M48
METRIC,LZ,000.000
;FILE_FORMAT=3:3
;TYPE=PLATED
;Layer: PTH_Through
;EasyEDA v6.5.47, 2024-11-16 13:31:00
;4b74037932bb4b1ca174142373b6d15f,245894e16db242c49054a459ccc28e09,10
;Gerber Generator version 0.2
;Holesize 1 = 0.800 mm
T01C0.800
;Holesize 2 = 0.901 mm
T02C0.901
;Holesize 3 = 2.000 mm
T03C2.000
%
G05
G90
T01
X098108Y021025
X098108Y010725
X113665Y085795
X113665Y075495
X037712Y081915
X048013Y081915
X032385Y069850
X034925Y069850
X037465Y069850
X040005Y069850
X042545Y069850
X045085Y069850
X032385Y059690
X034925Y059690
X037465Y059690
X040005Y059690
X042545Y059690
X045085Y059690
X094615Y006985
X094615Y004445
X074930Y078105
X074930Y075565
X074930Y073025
X074930Y070485
X074930Y067945
X074930Y065405
X074930Y062865
X074930Y060325
X068580Y057785
X068580Y060325
X068580Y062865
X068580Y065405
X062527Y089497
X060028Y089497
X060028Y087497
X062527Y087497
X088900Y085725
X088900Y088265
X066170Y006765
X066170Y004225
X089170Y006765
X089170Y004225
X120340Y088814
X113340Y088814
X117840Y088814
X115840Y088814
X104140Y086995
X101727Y086995
X099060Y086995
X096520Y086995
X093980Y086995
X082550Y086995
X080137Y086995
X077470Y086995
X074930Y086995
X072390Y086995
X085090Y019755
X085090Y009455
X095250Y021025
X095250Y010725
X012390Y087165
X009890Y087165
X007890Y087165
X005390Y087165
X012390Y089665
X009890Y089665
X007890Y089665
X005390Y089665
X030170Y087165
X027670Y087165
X025670Y087165
X023170Y087165
X030170Y089665
X027670Y089665
X025670Y089665
X023170Y089665
X047950Y087165
X045450Y087165
X043450Y087165
X040950Y087165
X047950Y089665
X045450Y089665
X043450Y089665
X040950Y089665
X115570Y056515
X113030Y056515
X080010Y050165
X082550Y050165
X085090Y050165
X087630Y050165
X090170Y050165
X092710Y050165
X095250Y050165
X097790Y050165
X100330Y050165
X102870Y050165
X105410Y050165
X107950Y050165
X110490Y050165
X113030Y050165
X115570Y050165
X080010Y024765
X082550Y024765
X085090Y024765
X087630Y024765
X090170Y024765
X092710Y024765
X095250Y024765
X097790Y024765
X100330Y024765
X102870Y024765
X105410Y024765
X107950Y024765
X110490Y024765
X113030Y024765
X115570Y024765
X030480Y041275
X027940Y041275
X025400Y041275
X033020Y041275
X035560Y041275
X038100Y041275
X040640Y041275
X043180Y041275
X043180Y028575
X040640Y028575
X038100Y028575
X035560Y028575
X033020Y028575
X030480Y028575
X027940Y028575
X025400Y028575
X113030Y043815
X112713Y020320
X106363Y019685
X100330Y029845
X092710Y031750
X077470Y067945
X084455Y067945
X038100Y031115
X038735Y037783
X056515Y057468
X048578Y057468
X054610Y023495
X054610Y064135
X045085Y051435
X038100Y051435
X090170Y027305
X121920Y027305
X092710Y055245
X038100Y054610
X085725Y060325
X074930Y057785
X093980Y094615
X093980Y089535
X063500Y073025
X060325Y073025
X060325Y080645
X063500Y080645
X113030Y036195
X098425Y006985
T02
X012720Y038100
X015220Y038100
X018415Y075355
X015875Y075355
X020340Y023495
X022840Y023495
X058440Y024130
X060940Y024130
X050006Y023020
X050006Y025520
X050006Y028020
X050006Y030520
X050006Y033020
X116205Y085725
X118745Y085725
X091440Y014645
X091440Y017145
X091440Y019645
X115570Y020955
X115570Y018415
X012700Y017165
X012700Y019665
X038040Y047625
X035540Y047625
X033040Y047625
X030540Y047625
X072390Y014645
X072390Y017145
X072390Y019645
X081280Y017165
X081280Y019665
X050760Y075565
X048260Y075565
X045760Y075565
X102870Y014645
X102870Y017145
X102870Y019645
X011390Y028575
X008890Y028575
X006390Y028575
X119380Y006985
X116840Y006985
X114300Y006985
X104140Y006985
X106680Y006985
X109220Y006985
X111760Y006985
X057150Y040085
X057150Y042585
X057150Y045085
X057150Y047585
X057150Y050085
X067310Y078045
X067310Y075545
X067310Y073045
X067310Y070545
X109210Y036195
X101610Y036195
X020070Y018825
X020070Y001825
X060070Y001825
X060070Y018825
T03
X022098Y046482
X017018Y046482
X012192Y046482
X067298Y092208
X055257Y092208
X110270Y091526
X123410Y091526
X013160Y008065
X010410Y003365
X007160Y008065
X002320Y092375
X002320Y086695
X015460Y086695
X015460Y092375
X020100Y092375
X020100Y086695
X033240Y086695
X033240Y092375
X037880Y092375
X037880Y086695
X051020Y086695
X051020Y092375
M30
