G04 Layer: TopSolderMaskLayer*
G04 EasyEDA v6.5.47, 2024-11-16 13:31:00*
G04 4b74037932bb4b1ca174142373b6d15f,245894e16db242c49054a459ccc28e09,10*
G04 Gerber Generator version 0.2*
G04 Scale: 100 percent, Rotated: No, Reflected: No *
G04 Dimensions in millimeters *
G04 leading zeros omitted , absolute positions ,4 integer and 5 decimal *
%FSLAX45Y45*%
%MOMM*%

%AMMACRO1*4,1,8,-0.7707,-1.05,-0.8,-1.0207,-0.8,1.0207,-0.7707,1.05,0.7707,1.05,0.8,1.0207,0.8,-1.0207,0.7707,-1.05,-0.7707,-1.05,0*%
%AMMACRO2*4,1,8,-1.5211,-1.5508,-1.5508,-1.521,-1.5508,1.5211,-1.5211,1.5508,1.521,1.5508,1.5508,1.5211,1.5508,-1.521,1.521,-1.5508,-1.5211,-1.5508,0*%
%AMMACRO3*4,1,8,-0.7711,-1.0508,-0.8008,-1.021,-0.8008,1.0211,-0.7711,1.0508,0.771,1.0508,0.8008,1.0211,0.8008,-1.021,0.771,-1.0508,-0.7711,-1.0508,0*%
%AMMACRO4*4,1,8,-1.0207,-0.8,-1.05,-0.7707,-1.05,0.7707,-1.0207,0.8,1.0207,0.8,1.05,0.7707,1.05,-0.7707,1.0207,-0.8,-1.0207,-0.8,0*%
%AMMACRO5*4,1,8,-1.0421,-0.8516,-1.1016,-0.7921,-1.1016,0.7921,-1.0421,0.8516,1.0421,0.8516,1.1016,0.7921,1.1016,-0.7921,1.0421,-0.8516,-1.0421,-0.8516,0*%
%AMMACRO6*4,1,8,-1.0421,-1.1016,-1.1016,-1.0421,-1.1016,1.0421,-1.0421,1.1016,1.0421,1.1016,1.1016,1.0421,1.1016,-1.0421,1.0421,-1.1016,-1.0421,-1.1016,0*%
%AMMACRO7*4,1,8,-1.0421,-0.6016,-1.1016,-0.5421,-1.1016,0.5421,-1.0421,0.6016,1.0421,0.6016,1.1016,0.5421,1.1016,-0.5421,1.0421,-0.6016,-1.0421,-0.6016,0*%
%AMMACRO8*4,1,8,-0.5421,-1.1016,-0.6016,-1.0421,-0.6016,1.0421,-0.5421,1.1016,0.5421,1.1016,0.6016,1.0421,0.6016,-1.0421,0.5421,-1.1016,-0.5421,-1.1016,0*%
%AMMACRO9*4,1,8,-0.7921,-1.1016,-0.8516,-1.0421,-0.8516,1.0421,-0.7921,1.1016,0.7921,1.1016,0.8516,1.0421,0.8516,-1.0421,0.7921,-1.1016,-0.7921,-1.1016,0*%
%AMMACRO10*4,1,8,-1.0211,-0.8008,-1.0508,-0.771,-1.0508,0.7711,-1.0211,0.8008,1.021,0.8008,1.0508,0.7711,1.0508,-0.771,1.021,-0.8008,-1.0211,-0.8008,0*%
%AMMACRO11*4,1,8,-0.771,-1.0508,-0.8008,-1.021,-0.8008,1.0211,-0.771,1.0508,0.771,1.0508,0.8008,1.0211,0.8008,-1.021,0.771,-1.0508,-0.771,-1.0508,0*%
%AMMACRO12*4,1,8,-1.0211,-1.0508,-1.0508,-1.021,-1.0508,1.0211,-1.0211,1.0508,1.021,1.0508,1.0508,1.0211,1.0508,-1.021,1.021,-1.0508,-1.0211,-1.0508,0*%
%AMMACRO13*4,1,8,-1.0207,-1.05,-1.05,-1.0207,-1.05,1.0207,-1.0207,1.05,1.0207,1.05,1.05,1.0207,1.05,-1.0207,1.0207,-1.05,-1.0207,-1.05,0*%
%AMMACRO14*4,1,8,-1.3121,-1.3716,-1.3716,-1.3121,-1.3716,1.3121,-1.3121,1.3716,1.3121,1.3716,1.3716,1.3121,1.3716,-1.3121,1.3121,-1.3716,-1.3121,-1.3716,0*%
%ADD10MACRO1*%
%ADD11C,3.1016*%
%ADD12MACRO2*%
%ADD13MACRO3*%
%ADD14MACRO4*%
%ADD15MACRO5*%
%ADD16MACRO6*%
%ADD17C,2.2032*%
%ADD18MACRO7*%
%ADD19MACRO8*%
%ADD20MACRO9*%
%ADD21MACRO10*%
%ADD22C,1.6016*%
%ADD23C,3.7016*%
%ADD24C,3.3016*%
%ADD25O,3.6000182000000005X4.1000172*%
%ADD26C,3.6000*%
%ADD27MACRO11*%
%ADD28C,3.6016*%
%ADD29C,2.1016*%
%ADD30MACRO12*%
%ADD31MACRO13*%
%ADD32MACRO14*%
%ADD33C,0.0126*%

%LPD*%
D10*
G01*
X1271979Y3810000D03*
G01*
X1521992Y3810000D03*
D11*
G01*
X2209800Y4648200D03*
D12*
G01*
X1701800Y4648200D03*
G01*
X1219200Y4648200D03*
D13*
G01*
X1841501Y7535494D03*
G01*
X1587501Y7535494D03*
D10*
G01*
X2033979Y2349500D03*
G01*
X2283992Y2349500D03*
G01*
X5843979Y2413000D03*
G01*
X6093992Y2413000D03*
D14*
G01*
X5000625Y2302000D03*
G01*
X5000625Y2551987D03*
G01*
X5000625Y2801999D03*
G01*
X5000625Y3052011D03*
G01*
X5000625Y3301998D03*
D15*
G01*
X9810750Y2102511D03*
G01*
X9810750Y1072490D03*
D13*
G01*
X11620501Y8572500D03*
G01*
X11874501Y8572500D03*
D16*
G01*
X11366500Y8579510D03*
D17*
G01*
X11366500Y7549489D03*
D14*
G01*
X9144000Y1464489D03*
G01*
X9144000Y1714501D03*
G01*
X9144000Y1964488D03*
D18*
G01*
X3771247Y8191500D03*
D19*
G01*
X4801268Y8191500D03*
D20*
G01*
X3238500Y6985000D03*
G01*
X3492500Y6985000D03*
G01*
X3746500Y6985000D03*
G01*
X4000500Y6985000D03*
G01*
X4254500Y6985000D03*
G01*
X4508500Y6985000D03*
G01*
X3238500Y5969000D03*
G01*
X3492500Y5969000D03*
G01*
X3746500Y5969000D03*
G01*
X4000500Y5969000D03*
G01*
X4254500Y5969000D03*
G01*
X4508500Y5969000D03*
D21*
G01*
X9461500Y698501D03*
G01*
X9461500Y444501D03*
D14*
G01*
X7493000Y7810498D03*
G01*
X7493000Y7556498D03*
G01*
X7493000Y7302498D03*
G01*
X7493000Y7048498D03*
G01*
X7493000Y6794498D03*
G01*
X7493000Y6540498D03*
G01*
X7493000Y6286498D03*
G01*
X7493000Y6032498D03*
D15*
G01*
X6858000Y5778498D03*
G01*
X6858000Y6032498D03*
D21*
G01*
X6858000Y6286498D03*
G01*
X6858000Y6540498D03*
D22*
G01*
X6252743Y8949740D03*
G01*
X6002756Y8949740D03*
G01*
X6002756Y8749741D03*
G01*
X6252743Y8749741D03*
D23*
G01*
X6729755Y9220733D03*
G01*
X5525744Y9220733D03*
D21*
G01*
X8890000Y8572498D03*
G01*
X8890000Y8826498D03*
G01*
X6617004Y676502D03*
G01*
X6617004Y422502D03*
G01*
X8917000Y676502D03*
G01*
X8917000Y422502D03*
G01*
X11557000Y2095498D03*
G01*
X11557000Y1841498D03*
D10*
G01*
X12034013Y8881440D03*
G01*
X11334014Y8881440D03*
G01*
X11784001Y8881440D03*
G01*
X11584001Y8881440D03*
D24*
G01*
X11027003Y9152559D03*
G01*
X12340996Y9152559D03*
D13*
G01*
X10414000Y8699500D03*
G01*
X10172700Y8699500D03*
G01*
X9906000Y8699500D03*
G01*
X9652000Y8699500D03*
G01*
X9398000Y8699500D03*
G01*
X8255000Y8699500D03*
G01*
X8013700Y8699500D03*
G01*
X7747000Y8699500D03*
G01*
X7493000Y8699500D03*
G01*
X7239000Y8699500D03*
D14*
G01*
X1270000Y1716479D03*
G01*
X1270000Y1966492D03*
D10*
G01*
X3804006Y4762500D03*
G01*
X3553994Y4762500D03*
G01*
X3304007Y4762500D03*
G01*
X3053995Y4762500D03*
D14*
G01*
X7239000Y1464489D03*
G01*
X7239000Y1714501D03*
G01*
X7239000Y1964488D03*
G01*
X8128000Y1716479D03*
G01*
X8128000Y1966492D03*
D15*
G01*
X8509000Y1975511D03*
G01*
X8509000Y945490D03*
D10*
G01*
X5076010Y7556500D03*
G01*
X4825998Y7556500D03*
G01*
X4576014Y7556500D03*
D15*
G01*
X9525000Y2102511D03*
G01*
X9525000Y1072490D03*
D14*
G01*
X10287000Y1464489D03*
G01*
X10287000Y1714501D03*
G01*
X10287000Y1964488D03*
D10*
G01*
X1139010Y2857500D03*
G01*
X888998Y2857500D03*
G01*
X639014Y2857500D03*
D25*
G01*
X1315999Y806500D03*
D26*
G01*
X1040993Y336499D03*
G01*
X716000Y806500D03*
D10*
G01*
X11937998Y698500D03*
G01*
X11683998Y698500D03*
G01*
X11429998Y698500D03*
G01*
X10413998Y698500D03*
G01*
X10667998Y698500D03*
G01*
X10921998Y698500D03*
G01*
X11175998Y698500D03*
D14*
G01*
X5715000Y4008499D03*
G01*
X5715000Y4258486D03*
G01*
X5715000Y4508498D03*
G01*
X5715000Y4758510D03*
G01*
X5715000Y5008497D03*
G01*
X6731000Y7804506D03*
G01*
X6731000Y7554494D03*
G01*
X6731000Y7304507D03*
G01*
X6731000Y7054495D03*
D13*
G01*
X1239036Y8716467D03*
D27*
G01*
X989025Y8716467D03*
D13*
G01*
X789026Y8716467D03*
G01*
X539037Y8716467D03*
G01*
X1239036Y8966479D03*
D27*
G01*
X989025Y8966479D03*
D13*
G01*
X789026Y8966479D03*
G01*
X539037Y8966479D03*
D28*
G01*
X232029Y9237471D03*
G01*
X232029Y8669477D03*
G01*
X1546021Y8669477D03*
G01*
X1546021Y9237471D03*
D13*
G01*
X3017036Y8716467D03*
D27*
G01*
X2767025Y8716467D03*
D13*
G01*
X2567026Y8716467D03*
G01*
X2317037Y8716467D03*
G01*
X3017036Y8966479D03*
D27*
G01*
X2767025Y8966479D03*
D13*
G01*
X2567026Y8966479D03*
G01*
X2317037Y8966479D03*
D28*
G01*
X2010029Y9237471D03*
G01*
X2010029Y8669477D03*
G01*
X3324021Y8669477D03*
G01*
X3324021Y9237471D03*
D13*
G01*
X4795036Y8716467D03*
D27*
G01*
X4545025Y8716467D03*
D13*
G01*
X4345026Y8716467D03*
G01*
X4095037Y8716467D03*
G01*
X4795036Y8966479D03*
D27*
G01*
X4545025Y8966479D03*
D13*
G01*
X4345026Y8966479D03*
G01*
X4095037Y8966479D03*
D28*
G01*
X3788029Y9237471D03*
G01*
X3788029Y8669477D03*
G01*
X5102021Y8669477D03*
G01*
X5102021Y9237471D03*
D13*
G01*
X11557001Y5651500D03*
G01*
X11303001Y5651500D03*
D29*
G01*
X10921009Y3619500D03*
D30*
G01*
X10161015Y3619500D03*
D20*
G01*
X8001001Y5016500D03*
G01*
X8255001Y5016500D03*
G01*
X8509001Y5016500D03*
G01*
X8763001Y5016500D03*
G01*
X9017001Y5016500D03*
G01*
X9271001Y5016500D03*
G01*
X9525001Y5016500D03*
G01*
X9779001Y5016500D03*
G01*
X10033001Y5016500D03*
G01*
X10287001Y5016500D03*
G01*
X10541001Y5016500D03*
G01*
X10795001Y5016500D03*
G01*
X11049001Y5016500D03*
G01*
X11303001Y5016500D03*
G01*
X11557001Y5016500D03*
G01*
X8001001Y2476500D03*
G01*
X8255001Y2476500D03*
G01*
X8509001Y2476500D03*
G01*
X8763001Y2476500D03*
G01*
X9017001Y2476500D03*
G01*
X9271001Y2476500D03*
G01*
X9525001Y2476500D03*
G01*
X9779001Y2476500D03*
G01*
X10033001Y2476500D03*
G01*
X10287001Y2476500D03*
G01*
X10541001Y2476500D03*
G01*
X10795001Y2476500D03*
G01*
X11049001Y2476500D03*
G01*
X11303001Y2476500D03*
G01*
X11557001Y2476500D03*
G01*
X3048026Y4127500D03*
G01*
X2794026Y4127500D03*
G01*
X2540026Y4127500D03*
G01*
X3302026Y4127500D03*
G01*
X3556026Y4127500D03*
G01*
X3810026Y4127500D03*
G01*
X4064026Y4127500D03*
G01*
X4318026Y4127500D03*
G01*
X4318026Y2857500D03*
G01*
X4064026Y2857500D03*
G01*
X3810026Y2857500D03*
G01*
X3556026Y2857500D03*
G01*
X3302026Y2857500D03*
G01*
X3048026Y2857500D03*
G01*
X2794026Y2857500D03*
G01*
X2540026Y2857500D03*
D17*
G01*
X11303000Y4381500D03*
D20*
G01*
X11271248Y2032000D03*
G01*
X10636248Y1968500D03*
D16*
G01*
X10033000Y2984500D03*
G01*
X9271000Y3175000D03*
G01*
X7747000Y6794500D03*
G01*
X8445500Y6794500D03*
D20*
G01*
X3810000Y3111500D03*
D16*
G01*
X3873500Y3778250D03*
D30*
G01*
X5651500Y5746750D03*
G01*
X4857750Y5746750D03*
D29*
G01*
X5461000Y2349500D03*
D30*
G01*
X5461000Y6413500D03*
G01*
X4508500Y5143500D03*
G01*
X3810000Y5143500D03*
D21*
G01*
X9017000Y2730498D03*
D13*
G01*
X12191998Y2730500D03*
D29*
G01*
X9271000Y5524500D03*
D30*
G01*
X3810000Y5461000D03*
D16*
G01*
X8572500Y6032500D03*
G01*
X7493000Y5778500D03*
D31*
G01*
X9398000Y9461500D03*
G01*
X9398000Y8953500D03*
G01*
X6350000Y7302500D03*
G01*
X6032500Y7302500D03*
G01*
X6032500Y8064500D03*
G01*
X6350000Y8064500D03*
D17*
G01*
X11303000Y3619500D03*
D32*
G01*
X2006998Y1882500D03*
G01*
X2006998Y182529D03*
G01*
X6006990Y182504D03*
G01*
X6006990Y1882500D03*
D15*
G01*
X9842489Y698496D03*
M02*
