G04 Layer: BottomLayer*
G04 EasyEDA v6.5.47, 2024-11-16 13:31:00*
G04 4b74037932bb4b1ca174142373b6d15f,245894e16db242c49054a459ccc28e09,10*
G04 Gerber Generator version 0.2*
G04 Scale: 100 percent, Rotated: No, Reflected: No *
G04 Dimensions in millimeters *
G04 leading zeros omitted , absolute positions ,4 integer and 5 decimal *
%FSLAX45Y45*%
%MOMM*%

%ADD10C,1.0160*%
%ADD11C,1.2700*%
%ADD12C,0.8000*%
%ADD13R,1.5000X2.0000*%
%ADD14C,3.0000*%
%ADD15R,3.0000X3.0000*%
%ADD16R,2.0000X1.5000*%
%ADD17R,2.0000X2.0000*%
%ADD18C,2.0000*%
%ADD19R,2.0000X1.0000*%
%ADD20R,1.0000X2.0000*%
%ADD21C,1.5000*%
%ADD22C,3.6000*%
%ADD23C,3.2000*%
%ADD24O,3.4999930000000004X3.9999919999999998*%
%ADD25C,3.5000*%
%ADD26R,2.5400X2.5400*%
%ADD27R,0.0129X2.5400*%

%LPD*%
G36*
X1153668Y8319008D02*
G01*
X1149756Y8319770D01*
X1146505Y8322005D01*
X1144270Y8325256D01*
X1143508Y8329168D01*
X1143508Y8445246D01*
X1142847Y8458352D01*
X1137056Y8517026D01*
X1137361Y8520734D01*
X1138986Y8524087D01*
X1142847Y8529269D01*
X1146657Y8535517D01*
X1149146Y8538260D01*
X1152398Y8539937D01*
X1156055Y8540343D01*
X1164386Y8539734D01*
X1313688Y8539734D01*
X1324965Y8540546D01*
X1335633Y8542883D01*
X1345895Y8546693D01*
X1355496Y8551976D01*
X1364234Y8558530D01*
X1372006Y8566251D01*
X1378559Y8574989D01*
X1383792Y8584590D01*
X1387602Y8594852D01*
X1389938Y8605570D01*
X1390751Y8616848D01*
X1390751Y8816086D01*
X1389938Y8827363D01*
X1387297Y8839250D01*
X1387297Y8843670D01*
X1389938Y8855608D01*
X1390751Y8866835D01*
X1390751Y9066123D01*
X1389938Y9077401D01*
X1387602Y9088069D01*
X1383792Y9098330D01*
X1380286Y9104731D01*
X1379372Y9107119D01*
X1379067Y9109608D01*
X1378661Y9438132D01*
X1379423Y9441992D01*
X1381607Y9445294D01*
X1384909Y9447530D01*
X1388821Y9448292D01*
X2866085Y9448292D01*
X2869946Y9447530D01*
X2873248Y9445345D01*
X2875432Y9442043D01*
X2876245Y9438132D01*
X2876550Y9166860D01*
X2875737Y9162846D01*
X2873400Y9159494D01*
X2869895Y9157309D01*
X2865831Y9156700D01*
X2857195Y9157208D01*
X2476703Y9157208D01*
X2470759Y9157004D01*
X2465070Y9156344D01*
X2459431Y9155277D01*
X2453894Y9153804D01*
X2448458Y9151874D01*
X2443226Y9149588D01*
X2438146Y9146946D01*
X2433269Y9143898D01*
X2428697Y9140444D01*
X2424328Y9136735D01*
X2420264Y9132671D01*
X2416556Y9128302D01*
X2413101Y9123730D01*
X2410053Y9118854D01*
X2407412Y9113774D01*
X2405126Y9108541D01*
X2403195Y9103106D01*
X2401722Y9097568D01*
X2400655Y9091930D01*
X2399995Y9086240D01*
X2399792Y9080296D01*
X2399792Y8572703D01*
X2399995Y8566759D01*
X2400655Y8561070D01*
X2401722Y8555431D01*
X2403195Y8549894D01*
X2405126Y8544458D01*
X2407361Y8539276D01*
X2410917Y8532825D01*
X2411831Y8530437D01*
X2412136Y8527846D01*
X2410561Y8329066D01*
X2409748Y8325205D01*
X2407513Y8321954D01*
X2404262Y8319770D01*
X2400401Y8319008D01*
G37*

%LPD*%
G36*
X2675737Y8319008D02*
G01*
X2671826Y8319770D01*
X2668524Y8322005D01*
X2666339Y8325358D01*
X2665577Y8329269D01*
X2666796Y8485733D01*
X2667609Y8489594D01*
X2669844Y8492845D01*
X2673096Y8495030D01*
X2676956Y8495792D01*
X2857296Y8495792D01*
X2863240Y8495995D01*
X2868930Y8496655D01*
X2874568Y8497722D01*
X2880106Y8499195D01*
X2885541Y8501126D01*
X2890774Y8503412D01*
X2895854Y8506053D01*
X2900730Y8509101D01*
X2905302Y8512556D01*
X2909671Y8516264D01*
X2913735Y8520328D01*
X2917444Y8524697D01*
X2920847Y8529218D01*
X2924657Y8535517D01*
X2927146Y8538260D01*
X2930398Y8539937D01*
X2934055Y8540343D01*
X2942386Y8539734D01*
X3091688Y8539734D01*
X3102965Y8540546D01*
X3113633Y8542883D01*
X3123895Y8546693D01*
X3133496Y8551976D01*
X3142234Y8558530D01*
X3150006Y8566251D01*
X3156559Y8574989D01*
X3161792Y8584590D01*
X3165602Y8594852D01*
X3167938Y8605570D01*
X3168751Y8616848D01*
X3168751Y8816086D01*
X3167938Y8827363D01*
X3165297Y8839250D01*
X3165297Y8843670D01*
X3167938Y8855608D01*
X3168751Y8866835D01*
X3168751Y9066123D01*
X3167938Y9077401D01*
X3165602Y9088069D01*
X3161792Y9098330D01*
X3158286Y9104731D01*
X3157372Y9107119D01*
X3157067Y9109608D01*
X3156661Y9438132D01*
X3157423Y9441992D01*
X3159607Y9445294D01*
X3162909Y9447530D01*
X3166821Y9448292D01*
X4644085Y9448292D01*
X4647946Y9447530D01*
X4651248Y9445345D01*
X4653432Y9442043D01*
X4654245Y9438132D01*
X4654550Y9166860D01*
X4653737Y9162846D01*
X4651400Y9159494D01*
X4647895Y9157309D01*
X4643831Y9156700D01*
X4635195Y9157208D01*
X4254703Y9157208D01*
X4248759Y9157004D01*
X4243070Y9156344D01*
X4237431Y9155277D01*
X4231894Y9153804D01*
X4226458Y9151874D01*
X4221226Y9149588D01*
X4216146Y9146946D01*
X4211269Y9143898D01*
X4206697Y9140444D01*
X4202328Y9136735D01*
X4198264Y9132671D01*
X4194556Y9128302D01*
X4191101Y9123730D01*
X4188053Y9118854D01*
X4185412Y9113774D01*
X4183126Y9108541D01*
X4181195Y9103106D01*
X4179722Y9097568D01*
X4178655Y9091930D01*
X4177995Y9086240D01*
X4177792Y9080296D01*
X4177792Y8572703D01*
X4177995Y8566759D01*
X4178655Y8561070D01*
X4179722Y8555431D01*
X4181195Y8549894D01*
X4183126Y8544458D01*
X4185412Y8539226D01*
X4188053Y8534146D01*
X4191101Y8529269D01*
X4194556Y8524697D01*
X4198264Y8520328D01*
X4202328Y8516264D01*
X4206697Y8512556D01*
X4211269Y8509101D01*
X4216146Y8506053D01*
X4221226Y8503412D01*
X4226458Y8501126D01*
X4231894Y8499195D01*
X4237431Y8497722D01*
X4243070Y8496655D01*
X4248759Y8495995D01*
X4254703Y8495792D01*
X4405274Y8495792D01*
X4409135Y8495030D01*
X4412488Y8492794D01*
X4414672Y8489442D01*
X4415434Y8485530D01*
X4414012Y8329066D01*
X4413199Y8325205D01*
X4410964Y8321954D01*
X4407712Y8319770D01*
X4403852Y8319008D01*
G37*

%LPD*%
G36*
X6250279Y8241182D02*
G01*
X6246266Y8241690D01*
X6242812Y8243722D01*
X6240373Y8246973D01*
X6239408Y8250885D01*
X6240068Y8254847D01*
X6242304Y8260791D01*
X6244640Y8264448D01*
X6248298Y8266734D01*
X6252565Y8267344D01*
X6256680Y8266125D01*
X6259982Y8263280D01*
X6261760Y8259368D01*
X6261709Y8255000D01*
X6260439Y8249158D01*
X6258610Y8245246D01*
X6255359Y8242452D01*
G37*

%LPD*%
G36*
X36068Y25908D02*
G01*
X32156Y26670D01*
X28905Y28905D01*
X26670Y32156D01*
X25908Y36068D01*
X25908Y9679432D01*
X26670Y9683343D01*
X28905Y9686594D01*
X32156Y9688830D01*
X36068Y9689592D01*
X1118666Y9689592D01*
X1122984Y9688626D01*
X1126490Y9685934D01*
X1128522Y9682022D01*
X1128674Y9677603D01*
X1126947Y9673539D01*
X1119530Y9663074D01*
X1111961Y9649307D01*
X1105916Y9634778D01*
X1101598Y9619691D01*
X1098956Y9604197D01*
X1098042Y9588042D01*
X1098550Y9166860D01*
X1097737Y9162846D01*
X1095400Y9159494D01*
X1091895Y9157309D01*
X1087831Y9156700D01*
X1079195Y9157208D01*
X698703Y9157208D01*
X692759Y9157004D01*
X687070Y9156344D01*
X681431Y9155277D01*
X675894Y9153804D01*
X670458Y9151874D01*
X665226Y9149588D01*
X660146Y9146946D01*
X655269Y9143898D01*
X650697Y9140444D01*
X646328Y9136735D01*
X642264Y9132671D01*
X638556Y9128302D01*
X635101Y9123730D01*
X632053Y9118854D01*
X629412Y9113774D01*
X627126Y9108541D01*
X625195Y9103106D01*
X623722Y9097568D01*
X622655Y9091930D01*
X621995Y9086240D01*
X621792Y9080296D01*
X621792Y8572703D01*
X621995Y8566759D01*
X622655Y8561070D01*
X623722Y8555431D01*
X625195Y8549894D01*
X627126Y8544458D01*
X629412Y8539226D01*
X632053Y8534146D01*
X635101Y8529269D01*
X638556Y8524697D01*
X642264Y8520328D01*
X646328Y8516264D01*
X650697Y8512556D01*
X655269Y8509101D01*
X660146Y8506053D01*
X665226Y8503412D01*
X670458Y8501126D01*
X675894Y8499195D01*
X681431Y8497722D01*
X687070Y8496655D01*
X692759Y8495995D01*
X698703Y8495792D01*
X873658Y8495792D01*
X877316Y8495131D01*
X880465Y8493150D01*
X882751Y8490204D01*
X883767Y8486648D01*
X888492Y8438692D01*
X888492Y8191804D01*
X889457Y8176107D01*
X892200Y8160969D01*
X896772Y8146288D01*
X903122Y8132267D01*
X911098Y8119059D01*
X920597Y8106968D01*
X931468Y8096097D01*
X943559Y8086598D01*
X956767Y8078622D01*
X970787Y8072272D01*
X985469Y8067700D01*
X1000607Y8064957D01*
X1016304Y8063992D01*
X3082899Y8063992D01*
X3086709Y8063230D01*
X3090011Y8061096D01*
X3092196Y8057845D01*
X3093059Y8053984D01*
X3108350Y7142378D01*
X3107842Y7139076D01*
X3106267Y7136079D01*
X3099003Y7126427D01*
X3093770Y7116876D01*
X3089910Y7106615D01*
X3087624Y7095896D01*
X3086811Y7084618D01*
X3086811Y6885381D01*
X3087624Y6874103D01*
X3089910Y6863384D01*
X3093770Y6853123D01*
X3099003Y6843522D01*
X3105556Y6834784D01*
X3113278Y6827062D01*
X3122066Y6820509D01*
X3131667Y6815226D01*
X3141878Y6811416D01*
X3152597Y6809079D01*
X3163874Y6808266D01*
X3313125Y6808266D01*
X3324402Y6809079D01*
X3335121Y6811416D01*
X3345332Y6815226D01*
X3354933Y6820509D01*
X3359404Y6823811D01*
X3363315Y6825640D01*
X3367684Y6825640D01*
X3371596Y6823811D01*
X3376066Y6820509D01*
X3385667Y6815226D01*
X3395878Y6811416D01*
X3406597Y6809079D01*
X3417874Y6808266D01*
X3567125Y6808266D01*
X3578402Y6809079D01*
X3589121Y6811416D01*
X3599332Y6815226D01*
X3608933Y6820509D01*
X3613404Y6823811D01*
X3617315Y6825640D01*
X3621684Y6825640D01*
X3625596Y6823811D01*
X3630066Y6820509D01*
X3642715Y6813550D01*
X3644900Y6811111D01*
X3646220Y6808114D01*
X3673906Y6697218D01*
X3678580Y6682130D01*
X3684879Y6667753D01*
X3692753Y6654139D01*
X3700475Y6643420D01*
X3712768Y6629958D01*
X3724706Y6619697D01*
X3737711Y6610858D01*
X3751630Y6603542D01*
X3766261Y6597802D01*
X3778961Y6594246D01*
X3794506Y6591655D01*
X3810254Y6590792D01*
X4701692Y6590842D01*
X4717389Y6592011D01*
X4730394Y6594348D01*
X4745482Y6598716D01*
X4760010Y6604762D01*
X4773726Y6612381D01*
X4786579Y6621475D01*
X4800041Y6633768D01*
X4810302Y6645706D01*
X4817821Y6656578D01*
X5200091Y7293609D01*
X5207558Y7307783D01*
X5213248Y7322413D01*
X5217312Y7337602D01*
X5219598Y7353198D01*
X5220157Y7369149D01*
X5219090Y7418831D01*
X5219395Y7421422D01*
X5220766Y7424623D01*
X5224576Y7434884D01*
X5226913Y7445603D01*
X5227726Y7456881D01*
X5227726Y7483195D01*
X5228285Y7486497D01*
X5229860Y7489393D01*
X5232298Y7491679D01*
X5298948Y7535672D01*
X5303012Y7537196D01*
X5307330Y7536942D01*
X5311140Y7534909D01*
X5313781Y7531455D01*
X5314696Y7527239D01*
X5319877Y6583375D01*
X5319369Y6580276D01*
X5317998Y6577431D01*
X5315813Y6575196D01*
X5310784Y6571437D01*
X5303062Y6563715D01*
X5296509Y6554978D01*
X5291226Y6545376D01*
X5287416Y6535115D01*
X5285079Y6524396D01*
X5284317Y6513118D01*
X5284317Y6313881D01*
X5285079Y6302603D01*
X5287416Y6291884D01*
X5291226Y6281623D01*
X5296509Y6272022D01*
X5303062Y6263284D01*
X5310784Y6255562D01*
X5319522Y6249009D01*
X5329123Y6243726D01*
X5339384Y6239916D01*
X5350103Y6237579D01*
X5361381Y6236766D01*
X5560618Y6236766D01*
X5571896Y6237579D01*
X5582615Y6239916D01*
X5592876Y6243726D01*
X5602478Y6249009D01*
X5611215Y6255562D01*
X5618937Y6263284D01*
X5625490Y6272022D01*
X5630773Y6281623D01*
X5634583Y6291884D01*
X5636920Y6302603D01*
X5637733Y6313881D01*
X5637733Y6513118D01*
X5636920Y6524396D01*
X5634583Y6535115D01*
X5630773Y6545376D01*
X5625490Y6554978D01*
X5618937Y6563715D01*
X5611215Y6571437D01*
X5604357Y6576618D01*
X5602173Y6578803D01*
X5600750Y6581597D01*
X5600293Y6584696D01*
X5594400Y7659370D01*
X5595162Y7663281D01*
X5597398Y7666634D01*
X5600700Y7668818D01*
X5604611Y7669580D01*
X6587185Y7664907D01*
X6589674Y7664551D01*
X6592011Y7663637D01*
X6599123Y7659776D01*
X6609384Y7655915D01*
X6620103Y7653578D01*
X6631381Y7652816D01*
X6830618Y7652816D01*
X6841896Y7653578D01*
X6852615Y7655915D01*
X6862876Y7659776D01*
X6870953Y7664196D01*
X6873290Y7665110D01*
X6875780Y7665415D01*
X7352182Y7669174D01*
X7354722Y7668869D01*
X7357160Y7667955D01*
X7361123Y7665770D01*
X7371384Y7661909D01*
X7382103Y7659573D01*
X7393381Y7658811D01*
X7592618Y7658811D01*
X7603896Y7659573D01*
X7614615Y7661909D01*
X7624876Y7665770D01*
X7634478Y7671003D01*
X7643215Y7677556D01*
X7650937Y7685278D01*
X7657490Y7694066D01*
X7662773Y7703667D01*
X7666583Y7713878D01*
X7668920Y7724597D01*
X7669733Y7735874D01*
X7669733Y7885125D01*
X7668920Y7896402D01*
X7666583Y7907121D01*
X7662773Y7917332D01*
X7657490Y7926933D01*
X7650937Y7935722D01*
X7643215Y7943443D01*
X7634478Y7949996D01*
X7624876Y7955229D01*
X7614615Y7959090D01*
X7603896Y7961375D01*
X7592618Y7962188D01*
X7393381Y7962188D01*
X7382103Y7961375D01*
X7371384Y7959090D01*
X7361123Y7955229D01*
X7352995Y7950809D01*
X7350709Y7949895D01*
X7348220Y7949590D01*
X6871817Y7945831D01*
X6869277Y7946136D01*
X6866890Y7947050D01*
X6862876Y7949234D01*
X6852615Y7953095D01*
X6841896Y7955381D01*
X6830618Y7956194D01*
X6631381Y7956194D01*
X6620103Y7955381D01*
X6609384Y7953095D01*
X6599123Y7949234D01*
X6594144Y7946542D01*
X6591757Y7945628D01*
X6589268Y7945272D01*
X6536181Y7945526D01*
X6532168Y7946390D01*
X6528765Y7948828D01*
X6526631Y7952333D01*
X6526123Y7956448D01*
X6526733Y7964881D01*
X6526733Y8164118D01*
X6525920Y8175396D01*
X6523583Y8186115D01*
X6519773Y8196376D01*
X6514592Y8205825D01*
X6513474Y8209229D01*
X6513576Y8212886D01*
X6601409Y8608110D01*
X6603898Y8623350D01*
X6604508Y8636254D01*
X6604508Y8955379D01*
X6603288Y8971026D01*
X6600240Y8986113D01*
X6595414Y9000744D01*
X6588861Y9014663D01*
X6580682Y9027718D01*
X6570980Y9039656D01*
X6559905Y9050324D01*
X6547612Y9059621D01*
X6534302Y9067393D01*
X6520180Y9073438D01*
X6505397Y9077807D01*
X6490208Y9080296D01*
X6474510Y9081008D01*
X6335572Y9078620D01*
X6332626Y9079026D01*
X6313678Y9088678D01*
X6298031Y9094520D01*
X6281826Y9098635D01*
X6265265Y9100921D01*
X6248552Y9101378D01*
X6231890Y9100007D01*
X6215481Y9096806D01*
X6199530Y9091777D01*
X6184239Y9085072D01*
X6169761Y9076740D01*
X6156299Y9066834D01*
X6144006Y9055506D01*
X6133033Y9042908D01*
X6123533Y9029192D01*
X6115558Y9014460D01*
X6109258Y8999016D01*
X6104737Y8982913D01*
X6101994Y8966403D01*
X6101029Y8949740D01*
X6101994Y8933078D01*
X6104737Y8916568D01*
X6109258Y8900464D01*
X6115558Y8885021D01*
X6122162Y8872829D01*
X6123330Y8868867D01*
X6122873Y8864752D01*
X6120790Y8861196D01*
X6117437Y8858707D01*
X6113424Y8857792D01*
X6109360Y8858554D01*
X6105499Y8861348D01*
X6092596Y8871966D01*
X6078626Y8881110D01*
X6063691Y8888679D01*
X6048044Y8894521D01*
X6031839Y8898636D01*
X6015278Y8900922D01*
X5998565Y8901379D01*
X5981903Y8900007D01*
X5965494Y8896807D01*
X5949543Y8891778D01*
X5934252Y8885072D01*
X5919774Y8876741D01*
X5906312Y8866835D01*
X5894019Y8855506D01*
X5883046Y8842908D01*
X5873546Y8829192D01*
X5865571Y8814460D01*
X5859272Y8799017D01*
X5854750Y8782913D01*
X5852007Y8766403D01*
X5851093Y8750046D01*
X5850382Y8746794D01*
X5775299Y8561070D01*
X5646166Y8237880D01*
X5643321Y8228584D01*
X5641848Y8222742D01*
X5639968Y8213242D01*
X5639206Y8207248D01*
X5638444Y8197596D01*
X5638292Y8191398D01*
X5638292Y7960055D01*
X5637530Y7956143D01*
X5635294Y7952841D01*
X5631992Y7950657D01*
X5628081Y7949895D01*
X5458053Y7950657D01*
X5445810Y7949895D01*
X5430316Y7947304D01*
X5426913Y7946491D01*
X5415076Y7942986D01*
X5406542Y7940090D01*
X5391861Y7933944D01*
X5378145Y7926273D01*
X5365394Y7917078D01*
X5357774Y7910372D01*
X5091734Y7734909D01*
X5089042Y7733639D01*
X5086146Y7733182D01*
X5001361Y7733182D01*
X4990084Y7732420D01*
X4979416Y7730083D01*
X4969154Y7726273D01*
X4959553Y7720990D01*
X4957114Y7719161D01*
X4953152Y7717383D01*
X4948834Y7717383D01*
X4944922Y7719161D01*
X4942433Y7720990D01*
X4932832Y7726273D01*
X4922621Y7730083D01*
X4911902Y7732420D01*
X4900625Y7733182D01*
X4751374Y7733182D01*
X4740097Y7732420D01*
X4729378Y7730083D01*
X4719167Y7726273D01*
X4709566Y7720990D01*
X4700778Y7714437D01*
X4693056Y7706715D01*
X4686503Y7697978D01*
X4681270Y7688376D01*
X4677410Y7678115D01*
X4675124Y7667396D01*
X4674311Y7656118D01*
X4674311Y7456881D01*
X4675124Y7445603D01*
X4677410Y7434884D01*
X4681270Y7424623D01*
X4686503Y7415022D01*
X4692192Y7407402D01*
X4693970Y7403642D01*
X4694072Y7399528D01*
X4692548Y7395667D01*
X4539589Y7166254D01*
X4537303Y7163816D01*
X4534408Y7162241D01*
X4531106Y7161682D01*
X4433874Y7161682D01*
X4422597Y7160920D01*
X4411878Y7158583D01*
X4401667Y7154773D01*
X4392066Y7149490D01*
X4387596Y7146188D01*
X4383684Y7144359D01*
X4379315Y7144359D01*
X4375404Y7146188D01*
X4370933Y7149490D01*
X4361332Y7154773D01*
X4351121Y7158583D01*
X4340402Y7160920D01*
X4329125Y7161682D01*
X4179874Y7161682D01*
X4168597Y7160920D01*
X4157878Y7158583D01*
X4147667Y7154773D01*
X4138066Y7149490D01*
X4129278Y7142937D01*
X4121556Y7135215D01*
X4115003Y7126478D01*
X4109770Y7116876D01*
X4105910Y7106615D01*
X4103624Y7095896D01*
X4102811Y7084618D01*
X4102811Y6885381D01*
X4103014Y6882079D01*
X4102455Y6877964D01*
X4100322Y6874459D01*
X4096969Y6872071D01*
X4092905Y6871208D01*
X3939540Y6871208D01*
X3935425Y6872071D01*
X3932021Y6874509D01*
X3929887Y6878167D01*
X3898747Y6971690D01*
X3898188Y6974890D01*
X3898188Y7084618D01*
X3897426Y7095896D01*
X3895090Y7106615D01*
X3891229Y7116876D01*
X3885996Y7126478D01*
X3879443Y7135215D01*
X3871722Y7142937D01*
X3862933Y7149490D01*
X3853332Y7154773D01*
X3843121Y7158583D01*
X3832402Y7160920D01*
X3820464Y7161733D01*
X3817061Y7162596D01*
X3814165Y7164527D01*
X3812082Y7167321D01*
X3745026Y7301433D01*
X3737101Y7315352D01*
X3727805Y7328001D01*
X3717137Y7339584D01*
X3705250Y7349896D01*
X3692296Y7358786D01*
X3678428Y7366203D01*
X3663848Y7371994D01*
X3648659Y7376109D01*
X3633114Y7378547D01*
X3619246Y7379208D01*
X3579368Y7379208D01*
X3575456Y7379970D01*
X3572205Y7382205D01*
X3569970Y7385456D01*
X3569208Y7389368D01*
X3569208Y7850631D01*
X3569970Y7854543D01*
X3572205Y7857794D01*
X3575456Y7860030D01*
X3579368Y7860792D01*
X4793945Y7860792D01*
X4809794Y7861655D01*
X4825288Y7864297D01*
X4840427Y7868615D01*
X4854956Y7874609D01*
X4868722Y7882229D01*
X4881524Y7891322D01*
X4893259Y7901787D01*
X4903774Y7913471D01*
X4912868Y7926273D01*
X4920488Y7940040D01*
X4926533Y7954568D01*
X4930902Y7969656D01*
X4933543Y7985150D01*
X4934458Y8001152D01*
X4935067Y8573363D01*
X4935372Y8575903D01*
X4936286Y8578240D01*
X4939792Y8584590D01*
X4943602Y8594852D01*
X4945938Y8605570D01*
X4946751Y8616848D01*
X4946751Y8816086D01*
X4945938Y8827363D01*
X4943297Y8839250D01*
X4943297Y8843670D01*
X4945938Y8855608D01*
X4946751Y8866835D01*
X4946751Y9066123D01*
X4945938Y9077401D01*
X4943602Y9088069D01*
X4939792Y9098330D01*
X4936286Y9104731D01*
X4935372Y9107119D01*
X4935067Y9109608D01*
X4934458Y9588398D01*
X4933543Y9604197D01*
X4930902Y9619691D01*
X4926584Y9634778D01*
X4920538Y9649307D01*
X4912969Y9663074D01*
X4905552Y9673539D01*
X4903825Y9677603D01*
X4903978Y9682022D01*
X4906010Y9685934D01*
X4909515Y9688626D01*
X4913833Y9689592D01*
X12499594Y9689592D01*
X12503454Y9688830D01*
X12506756Y9686645D01*
X12508941Y9683343D01*
X12509754Y9679482D01*
X12547092Y3963873D01*
X12547092Y36068D01*
X12546330Y32156D01*
X12544094Y28905D01*
X12540843Y26670D01*
X12536932Y25908D01*
G37*

%LPC*%
G36*
X8763101Y50292D02*
G01*
X10924692Y50342D01*
X10940389Y51511D01*
X10953394Y53848D01*
X11463782Y181406D01*
X11478869Y186080D01*
X11493246Y192379D01*
X11506860Y200253D01*
X11517579Y207975D01*
X11531041Y220268D01*
X11541302Y232206D01*
X11550142Y245211D01*
X11557457Y259130D01*
X11563197Y273761D01*
X11566753Y286461D01*
X11569344Y302006D01*
X11570208Y317754D01*
X11570208Y516686D01*
X11570970Y520547D01*
X11573103Y523798D01*
X11576304Y525983D01*
X11580063Y526846D01*
X11583924Y526237D01*
X11587378Y524916D01*
X11598097Y522579D01*
X11609374Y521766D01*
X11758625Y521766D01*
X11769902Y522579D01*
X11780621Y524916D01*
X11790832Y528726D01*
X11800433Y534009D01*
X11804904Y537311D01*
X11808815Y539140D01*
X11813184Y539140D01*
X11817096Y537311D01*
X11821566Y534009D01*
X11831167Y528726D01*
X11841378Y524916D01*
X11852097Y522579D01*
X11863374Y521766D01*
X12012625Y521766D01*
X12023902Y522579D01*
X12034621Y524916D01*
X12044832Y528726D01*
X12054433Y534009D01*
X12063222Y540562D01*
X12070943Y548284D01*
X12077496Y557022D01*
X12082729Y566623D01*
X12086590Y576884D01*
X12088926Y587603D01*
X12089688Y598881D01*
X12089688Y675792D01*
X12090349Y679348D01*
X12092178Y682396D01*
X12415621Y1059789D01*
X12425070Y1072286D01*
X12432842Y1085596D01*
X12438938Y1099769D01*
X12443256Y1114501D01*
X12445796Y1129741D01*
X12446508Y1143254D01*
X12446508Y2349347D01*
X12446254Y2357628D01*
X12445593Y2364841D01*
X12444323Y2372918D01*
X12442799Y2379980D01*
X12440615Y2387854D01*
X12438227Y2394712D01*
X12435078Y2402230D01*
X12431928Y2408732D01*
X12427864Y2415844D01*
X12423952Y2421940D01*
X12419076Y2428494D01*
X12414453Y2434031D01*
X12408865Y2439974D01*
X12403582Y2444902D01*
X12397282Y2450134D01*
X12391440Y2454402D01*
X12384481Y2458923D01*
X12257786Y2534920D01*
X12254636Y2537917D01*
X12253010Y2541981D01*
X12253214Y2546350D01*
X12255296Y2550210D01*
X12258751Y2552852D01*
X12263018Y2553766D01*
X12266625Y2553766D01*
X12277902Y2554579D01*
X12288621Y2556916D01*
X12298832Y2560726D01*
X12308433Y2566009D01*
X12317222Y2572562D01*
X12324943Y2580284D01*
X12331496Y2589022D01*
X12336729Y2598623D01*
X12340590Y2608884D01*
X12342926Y2619603D01*
X12343688Y2630881D01*
X12343688Y2830118D01*
X12342926Y2841396D01*
X12340590Y2852115D01*
X12336729Y2862376D01*
X12331496Y2871978D01*
X12324943Y2880715D01*
X12322505Y2883204D01*
X12320270Y2886456D01*
X12319508Y2890367D01*
X12319508Y8191246D01*
X12318949Y8203184D01*
X12318593Y8206740D01*
X12316612Y8218424D01*
X12315850Y8221878D01*
X12312497Y8233257D01*
X12311278Y8236559D01*
X12306554Y8247430D01*
X12304979Y8250631D01*
X12298984Y8260842D01*
X12297003Y8263788D01*
X12289790Y8273288D01*
X12028576Y8586774D01*
X12026798Y8589822D01*
X12026188Y8593328D01*
X12026188Y8672118D01*
X12025426Y8683396D01*
X12023445Y8692388D01*
X12023496Y8696909D01*
X12025477Y8700922D01*
X12028982Y8703716D01*
X12033351Y8704732D01*
X12108637Y8704732D01*
X12119914Y8705545D01*
X12130633Y8707882D01*
X12140844Y8711692D01*
X12150445Y8716924D01*
X12159234Y8723477D01*
X12166955Y8731199D01*
X12173508Y8739987D01*
X12178741Y8749588D01*
X12182602Y8759850D01*
X12184938Y8770518D01*
X12185700Y8781796D01*
X12185700Y8981084D01*
X12184938Y8992362D01*
X12182602Y9003030D01*
X12178741Y9013291D01*
X12173508Y9022892D01*
X12167768Y9030563D01*
X12166346Y9033154D01*
X12165787Y9036100D01*
X12141504Y9469221D01*
X12140844Y9477197D01*
X12139726Y9484969D01*
X12138202Y9492691D01*
X12136221Y9500311D01*
X12133834Y9507829D01*
X12131040Y9515144D01*
X12127839Y9522307D01*
X12124232Y9529318D01*
X12120219Y9536074D01*
X12115850Y9542627D01*
X12111126Y9548926D01*
X12106046Y9554921D01*
X12100661Y9560661D01*
X12094921Y9566046D01*
X12088926Y9571126D01*
X12082627Y9575850D01*
X12076074Y9580219D01*
X12069318Y9584182D01*
X12062307Y9587839D01*
X12055144Y9591040D01*
X12047829Y9593834D01*
X12040311Y9596221D01*
X12032691Y9598202D01*
X12025020Y9599726D01*
X12017197Y9600844D01*
X12009374Y9601504D01*
X12001347Y9601708D01*
X9568535Y9601708D01*
X9565436Y9602165D01*
X9562642Y9603587D01*
X9560407Y9605772D01*
X9555937Y9611715D01*
X9548215Y9619437D01*
X9539478Y9625990D01*
X9529876Y9631273D01*
X9519615Y9635083D01*
X9508896Y9637420D01*
X9497618Y9638182D01*
X9298381Y9638182D01*
X9287103Y9637420D01*
X9276384Y9635083D01*
X9266123Y9631273D01*
X9256522Y9625990D01*
X9247784Y9619437D01*
X9240062Y9611715D01*
X9233509Y9602978D01*
X9228226Y9593376D01*
X9224416Y9583115D01*
X9222079Y9572396D01*
X9221317Y9561118D01*
X9221317Y9361881D01*
X9222079Y9350603D01*
X9224416Y9339884D01*
X9228226Y9329623D01*
X9233509Y9320022D01*
X9240062Y9311284D01*
X9247784Y9303562D01*
X9256522Y9297009D01*
X9266123Y9291726D01*
X9276384Y9287916D01*
X9287103Y9285579D01*
X9298381Y9284766D01*
X9497618Y9284766D01*
X9508896Y9285579D01*
X9519615Y9287916D01*
X9529876Y9291726D01*
X9539478Y9297009D01*
X9548215Y9303562D01*
X9555937Y9311284D01*
X9560407Y9317228D01*
X9562642Y9319412D01*
X9565436Y9320834D01*
X9568535Y9321292D01*
X11859310Y9321292D01*
X11863070Y9320580D01*
X11866321Y9318498D01*
X11868556Y9315399D01*
X11869470Y9311690D01*
X11883136Y9067647D01*
X11882678Y9063939D01*
X11880900Y9060688D01*
X11878056Y9058249D01*
X11874550Y9057030D01*
X11858650Y9058148D01*
X11709349Y9058148D01*
X11698122Y9057335D01*
X11686235Y9054693D01*
X11681764Y9054693D01*
X11669877Y9057335D01*
X11658650Y9058148D01*
X11509349Y9058148D01*
X11498072Y9057335D01*
X11487404Y9054998D01*
X11477142Y9051188D01*
X11467541Y9045956D01*
X11458803Y9039402D01*
X11451031Y9031681D01*
X11444478Y9022892D01*
X11439245Y9013291D01*
X11435435Y9003030D01*
X11433098Y8992362D01*
X11432286Y8981084D01*
X11432286Y8781796D01*
X11433098Y8770518D01*
X11433556Y8768537D01*
X11433505Y8764066D01*
X11431524Y8760002D01*
X11427968Y8757208D01*
X11423599Y8756192D01*
X11266881Y8756192D01*
X11255603Y8755430D01*
X11244884Y8753094D01*
X11234623Y8749284D01*
X11225022Y8744000D01*
X11216284Y8737447D01*
X11208562Y8729726D01*
X11202009Y8720988D01*
X11196726Y8711387D01*
X11192916Y8701125D01*
X11190579Y8690406D01*
X11189817Y8679129D01*
X11189817Y8479891D01*
X11190579Y8468614D01*
X11192916Y8457895D01*
X11196726Y8447633D01*
X11202009Y8438032D01*
X11208562Y8429294D01*
X11216284Y8421573D01*
X11225022Y8415020D01*
X11234623Y8409736D01*
X11244884Y8405926D01*
X11255603Y8403590D01*
X11266881Y8402777D01*
X11466118Y8402777D01*
X11477396Y8403590D01*
X11488115Y8405926D01*
X11495481Y8408670D01*
X11499748Y8409279D01*
X11503863Y8408060D01*
X11513667Y8402726D01*
X11523878Y8398916D01*
X11534597Y8396579D01*
X11545874Y8395766D01*
X11695125Y8395766D01*
X11706402Y8396579D01*
X11717121Y8398916D01*
X11727332Y8402726D01*
X11736933Y8408009D01*
X11741404Y8411311D01*
X11745315Y8413140D01*
X11749684Y8413140D01*
X11753596Y8411311D01*
X11758066Y8408009D01*
X11767667Y8402726D01*
X11777878Y8398916D01*
X11788597Y8396579D01*
X11799874Y8395766D01*
X11851030Y8395766D01*
X11855348Y8394852D01*
X11858802Y8392160D01*
X12062155Y8148167D01*
X12063882Y8145119D01*
X12064492Y8141665D01*
X12064492Y3874008D01*
X12063679Y3869994D01*
X12061291Y3866591D01*
X12057837Y3864457D01*
X12053773Y3863848D01*
X12049810Y3864914D01*
X11118646Y4330496D01*
X11115649Y4332732D01*
X11113668Y4335932D01*
X11113008Y4339590D01*
X11113008Y4803648D01*
X11113516Y4806848D01*
X11122355Y4833416D01*
X11124336Y4836871D01*
X11127486Y4839309D01*
X11131296Y4840325D01*
X11134902Y4840579D01*
X11145621Y4842916D01*
X11155832Y4846726D01*
X11165433Y4852009D01*
X11174222Y4858562D01*
X11181943Y4866284D01*
X11188496Y4875022D01*
X11193729Y4884623D01*
X11197590Y4894884D01*
X11199926Y4905603D01*
X11200688Y4916881D01*
X11200688Y5116118D01*
X11199926Y5127396D01*
X11197590Y5138115D01*
X11193729Y5148376D01*
X11188496Y5157978D01*
X11181943Y5166715D01*
X11174222Y5174437D01*
X11165433Y5180990D01*
X11155832Y5186273D01*
X11145621Y5190083D01*
X11134902Y5192420D01*
X11123625Y5193182D01*
X10974374Y5193182D01*
X10963097Y5192420D01*
X10952378Y5190083D01*
X10942167Y5186273D01*
X10932566Y5180990D01*
X10928096Y5177688D01*
X10924184Y5175859D01*
X10919815Y5175859D01*
X10915904Y5177688D01*
X10911433Y5180990D01*
X10901832Y5186273D01*
X10891621Y5190083D01*
X10880902Y5192420D01*
X10869625Y5193182D01*
X10720374Y5193182D01*
X10709097Y5192420D01*
X10698378Y5190083D01*
X10688167Y5186273D01*
X10678566Y5180990D01*
X10674096Y5177688D01*
X10670184Y5175859D01*
X10665815Y5175859D01*
X10661904Y5177688D01*
X10657433Y5180990D01*
X10647832Y5186273D01*
X10637621Y5190083D01*
X10626902Y5192420D01*
X10615625Y5193182D01*
X10466374Y5193182D01*
X10455097Y5192420D01*
X10444378Y5190083D01*
X10434167Y5186273D01*
X10424566Y5180990D01*
X10420096Y5177688D01*
X10416184Y5175859D01*
X10411815Y5175859D01*
X10407904Y5177688D01*
X10403433Y5180990D01*
X10393832Y5186273D01*
X10387533Y5188610D01*
X10384536Y5190337D01*
X10382351Y5192928D01*
X10381081Y5196128D01*
X10351211Y5345633D01*
X10351008Y5347614D01*
X10350906Y7943088D01*
X10350042Y7952943D01*
X10258552Y8502853D01*
X10258653Y8506815D01*
X10261346Y8518245D01*
X10262870Y8521750D01*
X10265562Y8524392D01*
X10279532Y8529726D01*
X10288473Y8534603D01*
X10291673Y8535720D01*
X10295026Y8535720D01*
X10298226Y8534603D01*
X10307167Y8529726D01*
X10317378Y8525916D01*
X10328097Y8523579D01*
X10339374Y8522766D01*
X10488625Y8522766D01*
X10499902Y8523579D01*
X10510621Y8525916D01*
X10520832Y8529726D01*
X10530433Y8535009D01*
X10539222Y8541562D01*
X10546943Y8549284D01*
X10553496Y8558022D01*
X10558729Y8567623D01*
X10562590Y8577884D01*
X10564926Y8588603D01*
X10565688Y8599881D01*
X10565688Y8799118D01*
X10564926Y8810396D01*
X10562590Y8821115D01*
X10558729Y8831376D01*
X10553496Y8840978D01*
X10546943Y8849715D01*
X10539222Y8857437D01*
X10530433Y8863990D01*
X10520832Y8869273D01*
X10510621Y8873083D01*
X10499902Y8875420D01*
X10488625Y8876182D01*
X10339374Y8876182D01*
X10328097Y8875420D01*
X10317378Y8873083D01*
X10307167Y8869273D01*
X10298226Y8864396D01*
X10295026Y8863279D01*
X10291673Y8863279D01*
X10288473Y8864396D01*
X10279532Y8869273D01*
X10269321Y8873083D01*
X10258602Y8875420D01*
X10247325Y8876182D01*
X10098074Y8876182D01*
X10086797Y8875420D01*
X10076078Y8873083D01*
X10065867Y8869273D01*
X10056266Y8863990D01*
X10043261Y8854287D01*
X10039350Y8853525D01*
X10035438Y8854287D01*
X10022433Y8863990D01*
X10012832Y8869273D01*
X10002621Y8873083D01*
X9991902Y8875420D01*
X9980625Y8876182D01*
X9831374Y8876182D01*
X9820097Y8875420D01*
X9809378Y8873083D01*
X9799167Y8869273D01*
X9789566Y8863990D01*
X9780778Y8857437D01*
X9773056Y8849715D01*
X9766503Y8840978D01*
X9761270Y8831376D01*
X9757410Y8821115D01*
X9755124Y8810396D01*
X9754311Y8799118D01*
X9754311Y8599881D01*
X9755124Y8588603D01*
X9757410Y8577884D01*
X9761270Y8567623D01*
X9766503Y8558022D01*
X9773056Y8549284D01*
X9780778Y8541562D01*
X9789566Y8535009D01*
X9802977Y8527694D01*
X9805212Y8524951D01*
X9806381Y8521598D01*
X9905492Y7926120D01*
X9905492Y5192674D01*
X9904628Y5188559D01*
X9902190Y5185156D01*
X9898634Y5183022D01*
X9894468Y5182514D01*
X9890455Y5183733D01*
X9885832Y5186273D01*
X9875621Y5190083D01*
X9864902Y5192420D01*
X9853625Y5193182D01*
X9839502Y5193182D01*
X9835794Y5193893D01*
X9832644Y5195874D01*
X9830409Y5198821D01*
X9764979Y5329580D01*
X9757054Y5342737D01*
X9747554Y5354878D01*
X9736683Y5365800D01*
X9726320Y5374132D01*
X9711436Y5383326D01*
X9697415Y5389626D01*
X9682734Y5394248D01*
X9667595Y5397042D01*
X9654286Y5398008D01*
X9416948Y5398008D01*
X9412528Y5399024D01*
X9408972Y5401818D01*
X9407042Y5405882D01*
X9406991Y5410403D01*
X9408972Y5414467D01*
X9415018Y5422138D01*
X9424771Y5437479D01*
X9432899Y5453735D01*
X9439300Y5470753D01*
X9443974Y5488381D01*
X9446768Y5506313D01*
X9447682Y5524500D01*
X9446768Y5542686D01*
X9443974Y5560618D01*
X9439300Y5578246D01*
X9432899Y5595264D01*
X9424771Y5611520D01*
X9415018Y5626862D01*
X9403740Y5641136D01*
X9391040Y5654192D01*
X9377070Y5665825D01*
X9361982Y5675985D01*
X9345879Y5684520D01*
X9329064Y5691378D01*
X9311589Y5696458D01*
X9293707Y5699709D01*
X9275572Y5701131D01*
X9257385Y5700674D01*
X9239300Y5698337D01*
X9221622Y5694172D01*
X9204452Y5688177D01*
X9187942Y5680456D01*
X9172346Y5671108D01*
X9157817Y5660186D01*
X9144457Y5647842D01*
X9132468Y5634177D01*
X9121902Y5619343D01*
X9112961Y5603494D01*
X9105646Y5586831D01*
X9100108Y5569508D01*
X9096400Y5551678D01*
X9094520Y5533593D01*
X9094520Y5515406D01*
X9096400Y5497322D01*
X9100108Y5479491D01*
X9105646Y5462168D01*
X9112961Y5445506D01*
X9121902Y5429656D01*
X9132468Y5414822D01*
X9140952Y5405170D01*
X9142831Y5402021D01*
X9143492Y5398465D01*
X9143492Y5270804D01*
X9144457Y5255107D01*
X9147200Y5239969D01*
X9151772Y5225288D01*
X9158122Y5211267D01*
X9165488Y5199075D01*
X9166860Y5195214D01*
X9166606Y5191150D01*
X9164777Y5187543D01*
X9161678Y5184902D01*
X9154566Y5180990D01*
X9150096Y5177688D01*
X9146184Y5175859D01*
X9141815Y5175859D01*
X9137904Y5177688D01*
X9133433Y5180990D01*
X9123832Y5186273D01*
X9113621Y5190083D01*
X9102902Y5192420D01*
X9091625Y5193182D01*
X9057894Y5193182D01*
X9054592Y5193741D01*
X9051696Y5195316D01*
X9049410Y5197754D01*
X8997035Y5276291D01*
X8680704Y5782513D01*
X8677706Y5786983D01*
X8671610Y5795213D01*
X8668258Y5799175D01*
X8661247Y5806541D01*
X8657437Y5810097D01*
X8649563Y5816600D01*
X8645347Y5819648D01*
X8636762Y5825134D01*
X8632190Y5827674D01*
X8622995Y5832094D01*
X8618220Y5834024D01*
X8612378Y5836005D01*
X8608872Y5838037D01*
X8606434Y5841288D01*
X8605469Y5845251D01*
X8606129Y5849264D01*
X8608314Y5852668D01*
X8611666Y5855004D01*
X8615629Y5855766D01*
X8672118Y5855766D01*
X8683396Y5856579D01*
X8694115Y5858916D01*
X8704376Y5862726D01*
X8713978Y5868009D01*
X8722715Y5874562D01*
X8730437Y5882284D01*
X8736990Y5891022D01*
X8742273Y5900623D01*
X8746083Y5910884D01*
X8748420Y5921603D01*
X8749233Y5932881D01*
X8749233Y6132118D01*
X8748420Y6143396D01*
X8746083Y6154115D01*
X8742273Y6164376D01*
X8736990Y6173978D01*
X8730437Y6182715D01*
X8722715Y6190437D01*
X8713978Y6196990D01*
X8704376Y6202273D01*
X8694115Y6206083D01*
X8688933Y6207201D01*
X8685784Y6208471D01*
X8683193Y6210757D01*
X8681516Y6213754D01*
X8680958Y6217107D01*
X8680958Y6397040D01*
X8681466Y6400139D01*
X8682837Y6402984D01*
X8813495Y6585864D01*
X8818219Y6592925D01*
X8821978Y6599275D01*
X8825839Y6606692D01*
X8828836Y6613448D01*
X8831834Y6621221D01*
X8834120Y6628231D01*
X8836202Y6636308D01*
X8837625Y6643573D01*
X8838844Y6651802D01*
X8839454Y6659168D01*
X8839708Y6667652D01*
X8839708Y6934047D01*
X8839454Y6942378D01*
X8838844Y6949897D01*
X8837676Y6958025D01*
X8836202Y6965391D01*
X8834120Y6973316D01*
X8831834Y6980478D01*
X8828887Y6988149D01*
X8825839Y6995007D01*
X8821978Y7002424D01*
X8758682Y7116318D01*
X8750147Y7129881D01*
X8740343Y7142124D01*
X8729167Y7153249D01*
X8716873Y7163003D01*
X8703564Y7171334D01*
X8689340Y7178141D01*
X8674506Y7183323D01*
X8659164Y7186777D01*
X8642705Y7188555D01*
X8531860Y7194092D01*
X8528151Y7195007D01*
X8525002Y7197242D01*
X8522919Y7200442D01*
X8522208Y7204252D01*
X8522208Y8064398D01*
X8522055Y8070596D01*
X8521293Y8080248D01*
X8520531Y8086242D01*
X8518652Y8095742D01*
X8517229Y8101584D01*
X8514334Y8110880D01*
X8427974Y8327085D01*
X8427262Y8331403D01*
X8428431Y8335619D01*
X8431326Y8338972D01*
X8553043Y8430260D01*
X8555888Y8431784D01*
X8559139Y8432292D01*
X8747252Y8432292D01*
X8749741Y8431987D01*
X8752078Y8431072D01*
X8758123Y8427770D01*
X8768384Y8423910D01*
X8779103Y8421573D01*
X8790381Y8420811D01*
X8989618Y8420811D01*
X9000896Y8421573D01*
X9011615Y8423910D01*
X9021876Y8427770D01*
X9027922Y8431072D01*
X9030258Y8431987D01*
X9032748Y8432292D01*
X9270695Y8432292D01*
X9286697Y8433206D01*
X9302191Y8435848D01*
X9317278Y8440166D01*
X9331807Y8446211D01*
X9345574Y8453780D01*
X9358426Y8462873D01*
X9370364Y8473541D01*
X9416592Y8519820D01*
X9419894Y8522004D01*
X9423806Y8522766D01*
X9472625Y8522766D01*
X9483902Y8523579D01*
X9494621Y8525916D01*
X9504832Y8529726D01*
X9514433Y8535009D01*
X9523222Y8541562D01*
X9530943Y8549284D01*
X9537496Y8558022D01*
X9542729Y8567623D01*
X9546590Y8577884D01*
X9548926Y8588603D01*
X9549688Y8599881D01*
X9549688Y8792819D01*
X9550501Y8796731D01*
X9552686Y8800033D01*
X9555937Y8803284D01*
X9562490Y8812022D01*
X9567773Y8821623D01*
X9571583Y8831884D01*
X9573920Y8842603D01*
X9574733Y8853881D01*
X9574733Y9053118D01*
X9573920Y9064396D01*
X9571583Y9075115D01*
X9567773Y9085376D01*
X9562490Y9094978D01*
X9555937Y9103715D01*
X9548215Y9111437D01*
X9539478Y9117990D01*
X9529876Y9123273D01*
X9519615Y9127083D01*
X9508896Y9129420D01*
X9497618Y9130182D01*
X9298381Y9130182D01*
X9287103Y9129420D01*
X9276384Y9127083D01*
X9266123Y9123273D01*
X9256522Y9117990D01*
X9247784Y9111437D01*
X9240062Y9103715D01*
X9233509Y9094978D01*
X9228226Y9085376D01*
X9224416Y9075115D01*
X9222079Y9064396D01*
X9221317Y9053118D01*
X9221317Y8853881D01*
X9222079Y8842603D01*
X9224416Y8831884D01*
X9228226Y8821623D01*
X9233509Y8812022D01*
X9240062Y8803284D01*
X9243314Y8800033D01*
X9245498Y8796731D01*
X9246311Y8792819D01*
X9246311Y8750300D01*
X9245498Y8746388D01*
X9243314Y8743086D01*
X9215882Y8715705D01*
X9212580Y8713470D01*
X9208719Y8712708D01*
X9032748Y8712708D01*
X9030258Y8713012D01*
X9027922Y8713927D01*
X9021876Y8717229D01*
X9011615Y8721090D01*
X9000896Y8723376D01*
X8989618Y8724188D01*
X8790381Y8724188D01*
X8779103Y8723376D01*
X8768384Y8721090D01*
X8758123Y8717229D01*
X8752078Y8713927D01*
X8749741Y8713012D01*
X8747252Y8712708D01*
X8659368Y8712708D01*
X8655456Y8713470D01*
X8652205Y8715705D01*
X8649970Y8718956D01*
X8649208Y8722868D01*
X8649208Y8953195D01*
X8648293Y8969197D01*
X8645652Y8984691D01*
X8641334Y8999778D01*
X8635288Y9014307D01*
X8627719Y9028074D01*
X8618626Y9040926D01*
X8608110Y9052610D01*
X8596426Y9063126D01*
X8583574Y9072219D01*
X8569807Y9079788D01*
X8555278Y9085834D01*
X8540191Y9090152D01*
X8524697Y9092793D01*
X8508695Y9093708D01*
X7239304Y9093708D01*
X7223302Y9092793D01*
X7207808Y9090152D01*
X7192721Y9085834D01*
X7178192Y9079788D01*
X7164425Y9072219D01*
X7151573Y9063126D01*
X7139889Y9052610D01*
X7129373Y9040926D01*
X7120280Y9028074D01*
X7112711Y9014307D01*
X7106666Y8999778D01*
X7102348Y8984691D01*
X7099706Y8969197D01*
X7098792Y8953195D01*
X7098792Y8842248D01*
X7098487Y8839758D01*
X7097572Y8837422D01*
X7094270Y8831376D01*
X7090409Y8821115D01*
X7088124Y8810396D01*
X7087311Y8799118D01*
X7087311Y8599881D01*
X7088124Y8588603D01*
X7090409Y8577884D01*
X7094270Y8567623D01*
X7099503Y8558022D01*
X7106056Y8549284D01*
X7113778Y8541562D01*
X7122566Y8535009D01*
X7132167Y8529726D01*
X7142378Y8525916D01*
X7153097Y8523579D01*
X7164374Y8522766D01*
X7313625Y8522766D01*
X7324902Y8523579D01*
X7335621Y8525916D01*
X7345832Y8529726D01*
X7355433Y8535009D01*
X7364222Y8541562D01*
X7371943Y8549284D01*
X7378496Y8558022D01*
X7383729Y8567623D01*
X7387590Y8577884D01*
X7389926Y8588603D01*
X7390688Y8599881D01*
X7390688Y8799118D01*
X7390485Y8802420D01*
X7391044Y8806535D01*
X7393178Y8810040D01*
X7396530Y8812428D01*
X7400594Y8813292D01*
X7585405Y8813292D01*
X7589469Y8812428D01*
X7592822Y8810040D01*
X7594955Y8806535D01*
X7595514Y8802420D01*
X7595311Y8799118D01*
X7595311Y8599881D01*
X7596124Y8588603D01*
X7598409Y8577884D01*
X7602270Y8567623D01*
X7607503Y8558022D01*
X7614056Y8549284D01*
X7621778Y8541562D01*
X7630566Y8535009D01*
X7640167Y8529726D01*
X7650378Y8525916D01*
X7661097Y8523579D01*
X7673492Y8522766D01*
X7677403Y8522004D01*
X7680706Y8519769D01*
X7682890Y8516416D01*
X7872780Y8041741D01*
X7873492Y8037982D01*
X7873492Y6979615D01*
X7872475Y6975246D01*
X7869681Y6971690D01*
X7865668Y6969709D01*
X7861147Y6969709D01*
X7857896Y6970420D01*
X7846618Y6971182D01*
X7679893Y6971182D01*
X7675981Y6971995D01*
X7672679Y6974179D01*
X7670495Y6977481D01*
X7669733Y6981342D01*
X7669733Y7123125D01*
X7668920Y7134402D01*
X7666583Y7145121D01*
X7662773Y7155332D01*
X7657490Y7164933D01*
X7654188Y7169403D01*
X7652359Y7173315D01*
X7652359Y7177684D01*
X7654188Y7181596D01*
X7657490Y7186066D01*
X7662773Y7195667D01*
X7666583Y7205878D01*
X7668920Y7216597D01*
X7669733Y7227874D01*
X7669733Y7377125D01*
X7668920Y7388402D01*
X7666583Y7399121D01*
X7662773Y7409332D01*
X7657490Y7418933D01*
X7650937Y7427722D01*
X7643215Y7435443D01*
X7634478Y7441996D01*
X7624876Y7447229D01*
X7614615Y7451090D01*
X7603896Y7453375D01*
X7592618Y7454188D01*
X7393381Y7454188D01*
X7382103Y7453375D01*
X7371384Y7451090D01*
X7361123Y7447229D01*
X7351522Y7441996D01*
X7342784Y7435443D01*
X7340752Y7433411D01*
X7337450Y7431176D01*
X7333538Y7430414D01*
X6891274Y7431582D01*
X6887413Y7432395D01*
X6884111Y7434580D01*
X6881215Y7437475D01*
X6872478Y7444028D01*
X6862876Y7449261D01*
X6852615Y7453071D01*
X6841896Y7455408D01*
X6830618Y7456220D01*
X6631381Y7456220D01*
X6620103Y7455408D01*
X6609384Y7453071D01*
X6599123Y7449261D01*
X6589522Y7444028D01*
X6580784Y7437475D01*
X6577482Y7434173D01*
X6574231Y7431989D01*
X6570370Y7431176D01*
X6527698Y7430973D01*
X6524142Y7431582D01*
X6520992Y7433411D01*
X6518706Y7436256D01*
X6514490Y7443978D01*
X6507937Y7452715D01*
X6500215Y7460437D01*
X6491478Y7466990D01*
X6481876Y7472273D01*
X6471615Y7476083D01*
X6460896Y7478420D01*
X6449618Y7479182D01*
X6250381Y7479182D01*
X6239103Y7478420D01*
X6228384Y7476083D01*
X6218123Y7472273D01*
X6208522Y7466990D01*
X6199784Y7460437D01*
X6198412Y7459116D01*
X6195161Y7456881D01*
X6191250Y7456119D01*
X6187338Y7456881D01*
X6184087Y7459116D01*
X6182715Y7460437D01*
X6173978Y7466990D01*
X6164376Y7472273D01*
X6154115Y7476083D01*
X6143396Y7478420D01*
X6132118Y7479182D01*
X5932881Y7479182D01*
X5921603Y7478420D01*
X5910884Y7476083D01*
X5900623Y7472273D01*
X5891022Y7466990D01*
X5882284Y7460437D01*
X5874562Y7452715D01*
X5868009Y7443978D01*
X5862726Y7434376D01*
X5858916Y7424115D01*
X5856579Y7413396D01*
X5855817Y7402118D01*
X5855817Y7202881D01*
X5856579Y7191603D01*
X5858916Y7180884D01*
X5862726Y7170623D01*
X5868009Y7161022D01*
X5874562Y7152284D01*
X5882284Y7144562D01*
X5891022Y7138009D01*
X5900623Y7132726D01*
X5910884Y7128916D01*
X5921603Y7126579D01*
X5932881Y7125766D01*
X5937300Y7125766D01*
X5941669Y7124801D01*
X5945174Y7122058D01*
X5947156Y7118096D01*
X5972200Y7017867D01*
X5976924Y7002881D01*
X5983325Y6988860D01*
X5991301Y6975754D01*
X6000851Y6963664D01*
X6011773Y6952792D01*
X6023914Y6943344D01*
X6037122Y6935419D01*
X6051194Y6929170D01*
X6065875Y6924598D01*
X6081014Y6921906D01*
X6097524Y6920992D01*
X6572453Y6925564D01*
X6576415Y6924802D01*
X6589522Y6914997D01*
X6599123Y6909765D01*
X6609384Y6905904D01*
X6620103Y6903567D01*
X6631381Y6902805D01*
X6830618Y6902805D01*
X6841896Y6903567D01*
X6852615Y6905904D01*
X6862876Y6909765D01*
X6872478Y6914997D01*
X6881215Y6921550D01*
X6882434Y6922770D01*
X6885787Y6924954D01*
X6889699Y6925716D01*
X7317689Y6922363D01*
X7321753Y6921500D01*
X7325106Y6919061D01*
X7327239Y6915454D01*
X7327696Y6911340D01*
X7326528Y6907326D01*
X7323226Y6901332D01*
X7319416Y6891121D01*
X7317079Y6880402D01*
X7316317Y6868007D01*
X7315504Y6864096D01*
X7313269Y6860794D01*
X7309916Y6858609D01*
X6895744Y6692950D01*
X6891985Y6692188D01*
X6758381Y6692188D01*
X6747103Y6691375D01*
X6736384Y6689090D01*
X6726123Y6685229D01*
X6716522Y6679996D01*
X6707784Y6673443D01*
X6700062Y6665722D01*
X6693509Y6656933D01*
X6688226Y6647332D01*
X6684416Y6637121D01*
X6682079Y6626402D01*
X6681317Y6615125D01*
X6681317Y6465874D01*
X6682079Y6454597D01*
X6684416Y6443878D01*
X6688226Y6433667D01*
X6693509Y6424066D01*
X6696811Y6419596D01*
X6698640Y6415684D01*
X6698640Y6411315D01*
X6696811Y6407404D01*
X6693509Y6402933D01*
X6688226Y6393332D01*
X6684416Y6383121D01*
X6682079Y6372402D01*
X6681317Y6361125D01*
X6681317Y6211874D01*
X6682079Y6200597D01*
X6684416Y6189878D01*
X6688226Y6179667D01*
X6693509Y6170066D01*
X6700062Y6161278D01*
X6707784Y6153556D01*
X6716522Y6147003D01*
X6726123Y6141770D01*
X6736384Y6137910D01*
X6747103Y6135573D01*
X6758381Y6134811D01*
X6957618Y6134811D01*
X6968896Y6135573D01*
X6979615Y6137910D01*
X6989876Y6141770D01*
X6999478Y6147003D01*
X7008215Y6153556D01*
X7015937Y6161278D01*
X7022490Y6170066D01*
X7027773Y6179667D01*
X7031583Y6189878D01*
X7033920Y6200597D01*
X7034733Y6212992D01*
X7035495Y6216904D01*
X7037730Y6220206D01*
X7041083Y6222390D01*
X7455255Y6388049D01*
X7459014Y6388811D01*
X7592618Y6388811D01*
X7603896Y6389573D01*
X7607147Y6390284D01*
X7611668Y6390284D01*
X7615681Y6388303D01*
X7618475Y6384747D01*
X7619492Y6380378D01*
X7619492Y6192621D01*
X7618475Y6188252D01*
X7615681Y6184696D01*
X7611668Y6182715D01*
X7607147Y6182715D01*
X7603896Y6183376D01*
X7592618Y6184188D01*
X7393381Y6184188D01*
X7382103Y6183376D01*
X7371384Y6181090D01*
X7361123Y6177229D01*
X7351522Y6171996D01*
X7342784Y6165443D01*
X7335062Y6157722D01*
X7328509Y6148933D01*
X7323226Y6139332D01*
X7319416Y6129121D01*
X7316978Y6117894D01*
X7315758Y6114846D01*
X7313675Y6112357D01*
X7310831Y6110630D01*
X6861556Y5930950D01*
X6857796Y5930188D01*
X6758381Y5930188D01*
X6747103Y5929376D01*
X6736384Y5927090D01*
X6726123Y5923229D01*
X6716522Y5917996D01*
X6712254Y5915406D01*
X6709206Y5914847D01*
X5818987Y5891428D01*
X5815787Y5891834D01*
X5812891Y5893257D01*
X5801715Y5904687D01*
X5792978Y5911240D01*
X5783376Y5916523D01*
X5773115Y5920333D01*
X5762396Y5922670D01*
X5751118Y5923432D01*
X5551881Y5923432D01*
X5540603Y5922670D01*
X5529884Y5920333D01*
X5519623Y5916523D01*
X5510022Y5911240D01*
X5501284Y5904687D01*
X5493562Y5896965D01*
X5487009Y5888228D01*
X5481726Y5878626D01*
X5477916Y5868365D01*
X5475579Y5857646D01*
X5474817Y5846368D01*
X5474817Y5647131D01*
X5475579Y5635853D01*
X5477916Y5625134D01*
X5481726Y5614873D01*
X5487009Y5605272D01*
X5493562Y5596534D01*
X5501284Y5588812D01*
X5510022Y5582259D01*
X5519623Y5576976D01*
X5529884Y5573166D01*
X5540603Y5570829D01*
X5551881Y5570016D01*
X5564632Y5570016D01*
X5568543Y5569254D01*
X5571794Y5567070D01*
X5574030Y5563768D01*
X5574792Y5559856D01*
X5574792Y5154015D01*
X5574334Y5150916D01*
X5572912Y5148122D01*
X5570728Y5145887D01*
X5564784Y5141468D01*
X5557062Y5133695D01*
X5550509Y5124958D01*
X5545226Y5115356D01*
X5541416Y5105095D01*
X5539079Y5094427D01*
X5538317Y5083149D01*
X5538317Y4933848D01*
X5539079Y4922570D01*
X5541416Y4911902D01*
X5545226Y4901641D01*
X5550509Y4892040D01*
X5557062Y4883302D01*
X5564784Y4875530D01*
X5573522Y4868976D01*
X5583123Y4863744D01*
X5593384Y4859934D01*
X5604103Y4857597D01*
X5615381Y4856784D01*
X5814618Y4856784D01*
X5825896Y4857597D01*
X5836615Y4859934D01*
X5846876Y4863744D01*
X5856478Y4868976D01*
X5865215Y4875530D01*
X5872937Y4883302D01*
X5879490Y4892040D01*
X5884773Y4901641D01*
X5888583Y4911902D01*
X5890920Y4922570D01*
X5891733Y4933848D01*
X5891733Y5083149D01*
X5890920Y5094427D01*
X5888583Y5105095D01*
X5884773Y5115356D01*
X5879490Y5124958D01*
X5872937Y5133695D01*
X5865215Y5141468D01*
X5859272Y5145887D01*
X5857087Y5148122D01*
X5855665Y5150916D01*
X5855208Y5154015D01*
X5855208Y5601970D01*
X5855970Y5605780D01*
X5858103Y5609031D01*
X5861304Y5611266D01*
X5865114Y5612130D01*
X6721602Y5634634D01*
X6725462Y5634024D01*
X6736384Y5629910D01*
X6747103Y5627573D01*
X6758381Y5626811D01*
X6957618Y5626811D01*
X6968896Y5627573D01*
X6979615Y5629910D01*
X6989876Y5633770D01*
X6999478Y5639003D01*
X7008215Y5645556D01*
X7015937Y5653278D01*
X7022490Y5662066D01*
X7027773Y5671667D01*
X7031583Y5681878D01*
X7034022Y5693105D01*
X7035241Y5696153D01*
X7037324Y5698642D01*
X7040168Y5700369D01*
X7302347Y5805220D01*
X7306208Y5805982D01*
X7310069Y5805170D01*
X7313371Y5802934D01*
X7315504Y5799683D01*
X7316317Y5795822D01*
X7316317Y5678881D01*
X7317079Y5667603D01*
X7319416Y5656884D01*
X7323226Y5646623D01*
X7328509Y5637022D01*
X7335062Y5628284D01*
X7342784Y5620562D01*
X7351522Y5614009D01*
X7361123Y5608726D01*
X7371384Y5604916D01*
X7382103Y5602579D01*
X7393381Y5601766D01*
X7592618Y5601766D01*
X7603896Y5602579D01*
X7607147Y5603290D01*
X7611668Y5603290D01*
X7615681Y5601309D01*
X7618475Y5597753D01*
X7619492Y5593384D01*
X7619593Y5392420D01*
X7620457Y5382056D01*
X7621117Y5377078D01*
X7623200Y5366867D01*
X7624521Y5362041D01*
X7627823Y5352186D01*
X7629702Y5347563D01*
X7634122Y5338165D01*
X7636560Y5333796D01*
X7642098Y5325008D01*
X7645044Y5320944D01*
X7651648Y5312867D01*
X7655001Y5309209D01*
X7662519Y5301996D01*
X7666329Y5298744D01*
X7674660Y5292496D01*
X7678826Y5289753D01*
X7687818Y5284571D01*
X7692288Y5282336D01*
X7701889Y5278221D01*
X7906613Y5209895D01*
X7910372Y5207660D01*
X7912811Y5204002D01*
X7913522Y5199684D01*
X7912353Y5195468D01*
X7909509Y5192166D01*
X7894167Y5186273D01*
X7884566Y5180990D01*
X7875778Y5174437D01*
X7868056Y5166715D01*
X7861503Y5157978D01*
X7856270Y5148376D01*
X7852409Y5138115D01*
X7850124Y5127396D01*
X7849311Y5116118D01*
X7849311Y5063286D01*
X7848295Y5058918D01*
X7845501Y5055362D01*
X7324039Y4638243D01*
X7321092Y4636566D01*
X7317689Y4636008D01*
X5874867Y4636008D01*
X5870956Y4636770D01*
X5867704Y4639005D01*
X5865215Y4641443D01*
X5856478Y4647996D01*
X5846876Y4653229D01*
X5836615Y4657090D01*
X5825896Y4659376D01*
X5814618Y4660188D01*
X5615381Y4660188D01*
X5604103Y4659376D01*
X5593384Y4657090D01*
X5583123Y4653229D01*
X5573522Y4647996D01*
X5564784Y4641443D01*
X5557062Y4633722D01*
X5550509Y4624933D01*
X5545226Y4615332D01*
X5541416Y4605121D01*
X5539079Y4594402D01*
X5538317Y4583125D01*
X5538317Y4433874D01*
X5539079Y4422597D01*
X5541416Y4411878D01*
X5545226Y4401667D01*
X5550509Y4392066D01*
X5552338Y4389577D01*
X5554116Y4385665D01*
X5554116Y4381347D01*
X5552338Y4377385D01*
X5550509Y4374946D01*
X5545226Y4365345D01*
X5541416Y4355084D01*
X5539079Y4344416D01*
X5538317Y4333138D01*
X5538317Y4183837D01*
X5539079Y4172559D01*
X5541416Y4161891D01*
X5545226Y4151629D01*
X5550509Y4142028D01*
X5552338Y4139590D01*
X5554116Y4135678D01*
X5554116Y4131310D01*
X5552338Y4127398D01*
X5550509Y4124960D01*
X5545226Y4115358D01*
X5541416Y4105097D01*
X5539079Y4094429D01*
X5538317Y4083151D01*
X5538317Y3933850D01*
X5539079Y3922572D01*
X5541416Y3911904D01*
X5545226Y3901643D01*
X5550509Y3892042D01*
X5557062Y3883304D01*
X5564784Y3875532D01*
X5573522Y3868978D01*
X5583123Y3863746D01*
X5593384Y3859936D01*
X5604103Y3857599D01*
X5615381Y3856786D01*
X5683961Y3856786D01*
X5687822Y3856024D01*
X5691124Y3853840D01*
X5693308Y3850538D01*
X5694121Y3846626D01*
X5693308Y3842765D01*
X5691124Y3839464D01*
X5665165Y3813505D01*
X5661863Y3811270D01*
X5657951Y3810508D01*
X4836668Y3810508D01*
X4832756Y3811270D01*
X4829505Y3813505D01*
X4827270Y3816756D01*
X4826508Y3820668D01*
X4826508Y4571695D01*
X4825542Y4587392D01*
X4822799Y4602530D01*
X4818227Y4617212D01*
X4811877Y4631232D01*
X4803902Y4644440D01*
X4794402Y4656531D01*
X4783531Y4667402D01*
X4771440Y4676902D01*
X4758232Y4684877D01*
X4744212Y4691227D01*
X4729530Y4695799D01*
X4714392Y4698542D01*
X4698695Y4699508D01*
X4582668Y4699508D01*
X4578756Y4700270D01*
X4575505Y4702505D01*
X4573270Y4705756D01*
X4572508Y4709668D01*
X4572508Y4956606D01*
X4573270Y4960518D01*
X4575505Y4963820D01*
X4578756Y4966004D01*
X4582668Y4966766D01*
X4608118Y4966766D01*
X4619396Y4967579D01*
X4630115Y4969916D01*
X4640376Y4973726D01*
X4649978Y4979009D01*
X4658715Y4985562D01*
X4666437Y4993284D01*
X4672990Y5002022D01*
X4678273Y5011623D01*
X4682083Y5021884D01*
X4684420Y5032603D01*
X4685233Y5043881D01*
X4685233Y5243118D01*
X4684420Y5254396D01*
X4682083Y5265115D01*
X4678273Y5275376D01*
X4672990Y5284978D01*
X4666437Y5293715D01*
X4658715Y5301437D01*
X4649978Y5307990D01*
X4640376Y5313273D01*
X4630115Y5317083D01*
X4619396Y5319420D01*
X4608118Y5320182D01*
X4408881Y5320182D01*
X4397603Y5319420D01*
X4394352Y5318709D01*
X4389831Y5318709D01*
X4385818Y5320690D01*
X4383024Y5324246D01*
X4382008Y5328615D01*
X4382008Y5386832D01*
X4382770Y5390743D01*
X4385005Y5393994D01*
X4388256Y5396230D01*
X4392168Y5396992D01*
X5143195Y5396992D01*
X5158892Y5397957D01*
X5174030Y5400700D01*
X5188712Y5405272D01*
X5202732Y5411622D01*
X5215940Y5419598D01*
X5228031Y5429097D01*
X5238902Y5439968D01*
X5248402Y5452059D01*
X5256377Y5465267D01*
X5262727Y5479288D01*
X5267299Y5493969D01*
X5270042Y5509107D01*
X5271008Y5524804D01*
X5271008Y6032195D01*
X5270042Y6047892D01*
X5267299Y6063030D01*
X5262727Y6077712D01*
X5256377Y6091732D01*
X5248402Y6104940D01*
X5238902Y6117031D01*
X5228031Y6127902D01*
X5215940Y6137402D01*
X5202732Y6145377D01*
X5188712Y6151727D01*
X5174030Y6156299D01*
X5158892Y6159042D01*
X5143195Y6160008D01*
X4635754Y6160008D01*
X4622393Y6159347D01*
X4607204Y6156807D01*
X4592421Y6152540D01*
X4578553Y6146546D01*
X4574489Y6145682D01*
X4433874Y6145682D01*
X4422597Y6144920D01*
X4411878Y6142583D01*
X4401667Y6138773D01*
X4392066Y6133490D01*
X4387596Y6130188D01*
X4383684Y6128359D01*
X4379315Y6128359D01*
X4375404Y6130188D01*
X4370933Y6133490D01*
X4361332Y6138773D01*
X4351121Y6142583D01*
X4340402Y6144920D01*
X4329125Y6145682D01*
X4179874Y6145682D01*
X4168597Y6144920D01*
X4157878Y6142583D01*
X4147667Y6138773D01*
X4138066Y6133490D01*
X4129278Y6126937D01*
X4121556Y6119215D01*
X4115003Y6110478D01*
X4109770Y6100876D01*
X4105910Y6090615D01*
X4103624Y6079896D01*
X4102811Y6068618D01*
X4102811Y5869381D01*
X4103014Y5866079D01*
X4102455Y5861964D01*
X4100322Y5858459D01*
X4096969Y5856071D01*
X4092905Y5855208D01*
X3908094Y5855208D01*
X3904030Y5856071D01*
X3900678Y5858459D01*
X3898544Y5861964D01*
X3897985Y5866079D01*
X3898188Y5869381D01*
X3898188Y6068618D01*
X3897426Y6079896D01*
X3895090Y6090615D01*
X3891229Y6100876D01*
X3885996Y6110478D01*
X3879443Y6119215D01*
X3871722Y6126937D01*
X3862933Y6133490D01*
X3853332Y6138773D01*
X3843121Y6142583D01*
X3832402Y6144920D01*
X3821125Y6145682D01*
X3671874Y6145682D01*
X3660597Y6144920D01*
X3649878Y6142583D01*
X3639667Y6138773D01*
X3630066Y6133490D01*
X3625596Y6130188D01*
X3621684Y6128359D01*
X3617315Y6128359D01*
X3613404Y6130188D01*
X3608933Y6133490D01*
X3599332Y6138773D01*
X3589121Y6142583D01*
X3578402Y6144920D01*
X3567125Y6145682D01*
X3417874Y6145682D01*
X3406597Y6144920D01*
X3395878Y6142583D01*
X3385667Y6138773D01*
X3376066Y6133490D01*
X3371596Y6130188D01*
X3367684Y6128359D01*
X3363315Y6128359D01*
X3359404Y6130188D01*
X3354933Y6133490D01*
X3345332Y6138773D01*
X3335121Y6142583D01*
X3324402Y6144920D01*
X3313125Y6145682D01*
X3163874Y6145682D01*
X3152597Y6144920D01*
X3141878Y6142583D01*
X3131667Y6138773D01*
X3122066Y6133490D01*
X3113278Y6126937D01*
X3105556Y6119215D01*
X3099003Y6110478D01*
X3093770Y6100876D01*
X3089910Y6090615D01*
X3087624Y6079896D01*
X3086811Y6068618D01*
X3086811Y5869381D01*
X3087624Y5858103D01*
X3089910Y5847384D01*
X3093770Y5837123D01*
X3099003Y5827522D01*
X3105556Y5818784D01*
X3113278Y5811062D01*
X3122066Y5804509D01*
X3131667Y5799226D01*
X3141878Y5795416D01*
X3152597Y5793079D01*
X3156204Y5792825D01*
X3160014Y5791809D01*
X3163163Y5789371D01*
X3165144Y5785916D01*
X3180943Y5738418D01*
X3185261Y5727192D01*
X3186734Y5724042D01*
X3194100Y5710529D01*
X3200908Y5700776D01*
X3203092Y5698032D01*
X3211017Y5689142D01*
X3213506Y5686704D01*
X3222548Y5678779D01*
X3539642Y5425084D01*
X3551377Y5416702D01*
X3564890Y5409285D01*
X3579469Y5403443D01*
X3626358Y5387797D01*
X3629964Y5385714D01*
X3632403Y5382260D01*
X3633317Y5378196D01*
X3633317Y5361381D01*
X3634079Y5350103D01*
X3634790Y5346852D01*
X3634790Y5342331D01*
X3632809Y5338318D01*
X3629253Y5335524D01*
X3624884Y5334508D01*
X1714906Y5334508D01*
X1710994Y5335270D01*
X1707692Y5337505D01*
X1705508Y5340807D01*
X1704746Y5344718D01*
X1714246Y7374940D01*
X1715058Y7378801D01*
X1717243Y7382052D01*
X1720443Y7385253D01*
X1726996Y7394041D01*
X1732229Y7403642D01*
X1736089Y7413904D01*
X1738426Y7424572D01*
X1739188Y7435850D01*
X1739188Y7635138D01*
X1738426Y7646416D01*
X1736089Y7657084D01*
X1732229Y7667345D01*
X1726996Y7676946D01*
X1720443Y7685735D01*
X1712722Y7693456D01*
X1703933Y7700009D01*
X1694332Y7705242D01*
X1684121Y7709052D01*
X1673402Y7711389D01*
X1662125Y7712202D01*
X1512874Y7712202D01*
X1501597Y7711389D01*
X1490878Y7709052D01*
X1480667Y7705242D01*
X1471066Y7700009D01*
X1462278Y7693456D01*
X1454556Y7685735D01*
X1448003Y7676946D01*
X1442770Y7667345D01*
X1438910Y7657084D01*
X1436624Y7646416D01*
X1435811Y7635138D01*
X1435811Y7435850D01*
X1436624Y7424572D01*
X1438910Y7413904D01*
X1442770Y7403642D01*
X1448003Y7394041D01*
X1454556Y7385253D01*
X1456283Y7383576D01*
X1458468Y7380224D01*
X1459230Y7376312D01*
X1449730Y5344617D01*
X1448968Y5340756D01*
X1446733Y5337454D01*
X1443431Y5335270D01*
X1439570Y5334508D01*
X635304Y5334508D01*
X619607Y5333542D01*
X604469Y5330799D01*
X589788Y5326227D01*
X575767Y5319877D01*
X562559Y5311902D01*
X550468Y5302402D01*
X539597Y5291531D01*
X530098Y5279440D01*
X522122Y5266232D01*
X515772Y5252212D01*
X511200Y5237530D01*
X508457Y5222392D01*
X507492Y5206492D01*
X511301Y3017164D01*
X510489Y3013252D01*
X508304Y3009950D01*
X506069Y3007715D01*
X499516Y2998978D01*
X494284Y2989376D01*
X490423Y2979115D01*
X488086Y2968396D01*
X487324Y2957118D01*
X487324Y2757881D01*
X488086Y2746603D01*
X490423Y2735884D01*
X494284Y2725623D01*
X499516Y2716022D01*
X506069Y2707284D01*
X513791Y2699562D01*
X522579Y2693009D01*
X532180Y2687726D01*
X542391Y2683916D01*
X553110Y2681579D01*
X564388Y2680766D01*
X713638Y2680766D01*
X724916Y2681579D01*
X735634Y2683916D01*
X745845Y2687726D01*
X755446Y2693009D01*
X764235Y2699562D01*
X771956Y2707284D01*
X778510Y2716022D01*
X783742Y2725623D01*
X787603Y2735884D01*
X789940Y2746603D01*
X790702Y2757881D01*
X790702Y2957118D01*
X789940Y2968396D01*
X787603Y2979115D01*
X783742Y2989376D01*
X778510Y2998978D01*
X771956Y3007715D01*
X769264Y3010408D01*
X767080Y3013710D01*
X766318Y3017570D01*
X762762Y5069332D01*
X763524Y5073192D01*
X765708Y5076494D01*
X769010Y5078730D01*
X772922Y5079492D01*
X3623157Y5079492D01*
X3627018Y5078730D01*
X3630320Y5076494D01*
X3632504Y5073243D01*
X3633317Y5069332D01*
X3633317Y5043881D01*
X3634079Y5032603D01*
X3635654Y5025339D01*
X3635654Y5020818D01*
X3633673Y5016804D01*
X3630117Y5014010D01*
X3625748Y5012994D01*
X3479292Y5012994D01*
X3462121Y5012029D01*
X3445510Y5009235D01*
X3431794Y5005273D01*
X3429000Y5004866D01*
X3426206Y5005273D01*
X3412490Y5009235D01*
X3395878Y5012029D01*
X3378708Y5012994D01*
X3229305Y5012994D01*
X3212134Y5012029D01*
X3195523Y5009235D01*
X3181807Y5005273D01*
X3179013Y5004866D01*
X3176168Y5005273D01*
X3162503Y5009235D01*
X3145840Y5012029D01*
X3128721Y5012994D01*
X2979267Y5012994D01*
X2962148Y5012029D01*
X2945485Y5009235D01*
X2929280Y5004562D01*
X2913684Y4998110D01*
X2898952Y4989931D01*
X2885186Y4980178D01*
X2872587Y4968900D01*
X2861360Y4956352D01*
X2851556Y4942586D01*
X2843428Y4927803D01*
X2836926Y4912207D01*
X2832252Y4896002D01*
X2829458Y4879340D01*
X2828493Y4862220D01*
X2828493Y4662779D01*
X2829458Y4645660D01*
X2832252Y4628997D01*
X2836926Y4612792D01*
X2837738Y4610862D01*
X2838500Y4606899D01*
X2835554Y4290110D01*
X2834741Y4286351D01*
X2830982Y4277207D01*
X2826308Y4261002D01*
X2823464Y4244340D01*
X2822498Y4227220D01*
X2822498Y4027779D01*
X2823464Y4010660D01*
X2826308Y3993997D01*
X2830982Y3977792D01*
X2837434Y3962196D01*
X2845612Y3947414D01*
X2855366Y3933647D01*
X2866593Y3921099D01*
X2879191Y3909822D01*
X2892958Y3900068D01*
X2907741Y3891889D01*
X2923336Y3885437D01*
X2939542Y3880764D01*
X2956153Y3877970D01*
X2973324Y3877005D01*
X3122726Y3877005D01*
X3139897Y3877970D01*
X3156508Y3880764D01*
X3172206Y3885285D01*
X3175050Y3885692D01*
X3177844Y3885285D01*
X3193542Y3880764D01*
X3210153Y3877970D01*
X3227324Y3877005D01*
X3376726Y3877005D01*
X3393897Y3877970D01*
X3410508Y3880764D01*
X3426206Y3885285D01*
X3429050Y3885692D01*
X3431844Y3885285D01*
X3447542Y3880764D01*
X3464153Y3877970D01*
X3481324Y3877005D01*
X3630726Y3877005D01*
X3647897Y3877970D01*
X3664508Y3880764D01*
X3680206Y3885285D01*
X3683050Y3885692D01*
X3685844Y3885285D01*
X3689451Y3884269D01*
X3693261Y3882186D01*
X3695852Y3878732D01*
X3696817Y3874515D01*
X3696817Y3678631D01*
X3697579Y3667353D01*
X3699916Y3656634D01*
X3703726Y3646373D01*
X3709009Y3636772D01*
X3715562Y3628034D01*
X3723284Y3620312D01*
X3732022Y3613759D01*
X3741623Y3608476D01*
X3751884Y3604666D01*
X3762603Y3602329D01*
X3773881Y3601516D01*
X3973118Y3601516D01*
X3984396Y3602329D01*
X3995115Y3604666D01*
X4005376Y3608476D01*
X4014978Y3613759D01*
X4023715Y3620312D01*
X4031437Y3628034D01*
X4037990Y3636772D01*
X4043273Y3646373D01*
X4047083Y3656634D01*
X4049420Y3667353D01*
X4050233Y3678631D01*
X4050233Y3703574D01*
X4050893Y3707231D01*
X4052874Y3710381D01*
X4055821Y3712667D01*
X4126433Y3747973D01*
X4140352Y3755898D01*
X4153001Y3765194D01*
X4164584Y3775862D01*
X4174896Y3787749D01*
X4183786Y3800703D01*
X4191203Y3814572D01*
X4196994Y3829151D01*
X4201109Y3844340D01*
X4203547Y3859885D01*
X4204208Y3873754D01*
X4204208Y3984701D01*
X4204512Y3987190D01*
X4205427Y3989527D01*
X4208780Y3995623D01*
X4212590Y4005884D01*
X4214926Y4016603D01*
X4215739Y4027881D01*
X4215739Y4227118D01*
X4214926Y4238396D01*
X4213402Y4245356D01*
X4213352Y4249318D01*
X4214825Y4253026D01*
X4217568Y4255871D01*
X4221226Y4257446D01*
X4225188Y4257497D01*
X4239107Y4254957D01*
X4254804Y4253992D01*
X4370832Y4253992D01*
X4374743Y4253230D01*
X4377994Y4250994D01*
X4380230Y4247743D01*
X4380992Y4243832D01*
X4380992Y3492804D01*
X4381957Y3477107D01*
X4384700Y3461969D01*
X4389272Y3447287D01*
X4390847Y3443833D01*
X4391761Y3439922D01*
X4391050Y3435959D01*
X4388866Y3432556D01*
X4385513Y3430320D01*
X4381601Y3429508D01*
X4179722Y3429508D01*
X4176318Y3430117D01*
X4173321Y3431794D01*
X4171035Y3434435D01*
X4168901Y3437940D01*
X4159402Y3450031D01*
X4148531Y3460902D01*
X4136440Y3470401D01*
X4123232Y3478377D01*
X4109212Y3484727D01*
X4094530Y3489299D01*
X4079392Y3492042D01*
X4063695Y3493008D01*
X3594862Y3493008D01*
X3582873Y3492449D01*
X3579368Y3492093D01*
X3567684Y3490112D01*
X3564229Y3489350D01*
X3552850Y3485946D01*
X3549548Y3484778D01*
X3538626Y3480054D01*
X3535476Y3478479D01*
X3525215Y3472484D01*
X3512820Y3463340D01*
X3510178Y3461054D01*
X3501644Y3452774D01*
X3499256Y3450183D01*
X3491788Y3440937D01*
X3489756Y3438042D01*
X3483457Y3427984D01*
X3481781Y3424885D01*
X3476751Y3414115D01*
X3475431Y3410864D01*
X3471722Y3399586D01*
X3470859Y3396183D01*
X3468522Y3384448D01*
X3447745Y3247644D01*
X3446576Y3244240D01*
X3444290Y3241446D01*
X3441192Y3239617D01*
X3437686Y3239008D01*
X2664714Y3239008D01*
X2649372Y3237788D01*
X2634234Y3234740D01*
X2619654Y3229864D01*
X2607564Y3224326D01*
X2592679Y3215132D01*
X2580741Y3205378D01*
X2570073Y3194304D01*
X2560777Y3182010D01*
X2552954Y3168497D01*
X2488590Y3039821D01*
X2486355Y3036874D01*
X2483205Y3034893D01*
X2479497Y3034182D01*
X2465374Y3034182D01*
X2454097Y3033420D01*
X2443429Y3031083D01*
X2433167Y3027273D01*
X2423566Y3021990D01*
X2414828Y3015437D01*
X2407056Y3007715D01*
X2400503Y2998978D01*
X2395270Y2989376D01*
X2391460Y2979115D01*
X2389124Y2968396D01*
X2388311Y2957118D01*
X2388311Y2757881D01*
X2389124Y2746603D01*
X2391460Y2735884D01*
X2395270Y2725623D01*
X2400503Y2716022D01*
X2407056Y2707284D01*
X2414828Y2699562D01*
X2423566Y2693009D01*
X2433167Y2687726D01*
X2443429Y2683916D01*
X2454097Y2681579D01*
X2465374Y2680766D01*
X2614676Y2680766D01*
X2625953Y2681579D01*
X2636621Y2683916D01*
X2646883Y2687726D01*
X2656484Y2693009D01*
X2660954Y2696311D01*
X2664866Y2698140D01*
X2669184Y2698140D01*
X2673096Y2696311D01*
X2677566Y2693009D01*
X2687167Y2687726D01*
X2697429Y2683916D01*
X2708097Y2681579D01*
X2719374Y2680766D01*
X2868676Y2680766D01*
X2879953Y2681579D01*
X2890621Y2683916D01*
X2893263Y2684881D01*
X2896819Y2685542D01*
X2945231Y2685542D01*
X2948787Y2684881D01*
X2951429Y2683916D01*
X2962097Y2681579D01*
X2973374Y2680766D01*
X3122676Y2680766D01*
X3133953Y2681579D01*
X3144621Y2683916D01*
X3147263Y2684881D01*
X3150819Y2685542D01*
X3199231Y2685542D01*
X3202787Y2684881D01*
X3205429Y2683916D01*
X3216097Y2681579D01*
X3227374Y2680766D01*
X3376676Y2680766D01*
X3387953Y2681579D01*
X3398621Y2683916D01*
X3401263Y2684881D01*
X3404819Y2685542D01*
X3453231Y2685542D01*
X3456787Y2684881D01*
X3459429Y2683916D01*
X3470097Y2681579D01*
X3481374Y2680766D01*
X3630676Y2680766D01*
X3641953Y2681579D01*
X3652977Y2684018D01*
X3656736Y2685135D01*
X3660444Y2685491D01*
X3664102Y2684526D01*
X3667099Y2682240D01*
X3669080Y2679090D01*
X3669792Y2675382D01*
X3669792Y2603804D01*
X3670706Y2587802D01*
X3673348Y2572308D01*
X3677665Y2557221D01*
X3683711Y2542692D01*
X3691280Y2528925D01*
X3700373Y2516073D01*
X3710889Y2504389D01*
X3722573Y2493873D01*
X3735425Y2484780D01*
X3749192Y2477211D01*
X3763721Y2471166D01*
X3778808Y2466848D01*
X3794302Y2464206D01*
X3810304Y2463292D01*
X4446828Y2463292D01*
X4462780Y2464460D01*
X4478223Y2467305D01*
X4493260Y2471877D01*
X4507941Y2478227D01*
X4620158Y2534310D01*
X4623562Y2535326D01*
X4627067Y2535123D01*
X4630318Y2533700D01*
X4751171Y2453182D01*
X4761890Y2447036D01*
X4764938Y2445512D01*
X4776266Y2440635D01*
X4791252Y2435910D01*
X4794554Y2435098D01*
X4806696Y2432862D01*
X4836922Y2429408D01*
X4840173Y2428443D01*
X4842967Y2426512D01*
X4850384Y2419045D01*
X4859172Y2412492D01*
X4868773Y2407259D01*
X4879035Y2403398D01*
X4889703Y2401062D01*
X4900980Y2400300D01*
X5100269Y2400300D01*
X5111546Y2401062D01*
X5122214Y2403398D01*
X5132476Y2407259D01*
X5142077Y2412492D01*
X5150866Y2419045D01*
X5158282Y2426512D01*
X5161076Y2428443D01*
X5164328Y2429408D01*
X5190845Y2432405D01*
X5206390Y2435047D01*
X5221528Y2439416D01*
X5236006Y2445410D01*
X5247589Y2451658D01*
X5370423Y2525318D01*
X5372912Y2526436D01*
X5377840Y2526792D01*
X5381701Y2526030D01*
X5384952Y2523896D01*
X5387136Y2520696D01*
X5388000Y2516886D01*
X5387340Y2513025D01*
X5385308Y2509723D01*
X5382158Y2507437D01*
X5377942Y2505456D01*
X5362346Y2496108D01*
X5347817Y2485186D01*
X5334457Y2472842D01*
X5322468Y2459177D01*
X5311902Y2444343D01*
X5302961Y2428494D01*
X5295646Y2411831D01*
X5290108Y2394508D01*
X5286400Y2376678D01*
X5284520Y2358593D01*
X5284520Y2340406D01*
X5286400Y2322322D01*
X5290108Y2304491D01*
X5295646Y2287168D01*
X5302961Y2270506D01*
X5311902Y2254656D01*
X5318912Y2244801D01*
X5320334Y2242007D01*
X5320792Y2238908D01*
X5320792Y2095703D01*
X5321198Y2084628D01*
X5321655Y2079904D01*
X5323332Y2069084D01*
X5324297Y2064410D01*
X5327142Y2053793D01*
X5328615Y2049272D01*
X5332628Y2039112D01*
X5334609Y2034743D01*
X5339791Y2025091D01*
X5342229Y2020976D01*
X5348427Y2011934D01*
X5351322Y2008174D01*
X5358485Y1999843D01*
X5361787Y1996439D01*
X5369814Y1988972D01*
X5373522Y1985924D01*
X5382310Y1979422D01*
X5386324Y1976831D01*
X5395823Y1971344D01*
X5400090Y1969211D01*
X5410200Y1964791D01*
X5796838Y1813966D01*
X5800191Y1811782D01*
X5802477Y1808429D01*
X5803290Y1804466D01*
X5803290Y1755851D01*
X5804103Y1744624D01*
X5806440Y1733905D01*
X5810250Y1723643D01*
X5815482Y1714042D01*
X5822035Y1705305D01*
X5829757Y1697583D01*
X5838545Y1690979D01*
X5848146Y1685747D01*
X5858408Y1681937D01*
X5869076Y1679600D01*
X5880354Y1678787D01*
X5945632Y1678787D01*
X5949543Y1678025D01*
X5952794Y1675841D01*
X5955030Y1672539D01*
X5955792Y1668627D01*
X5955792Y698804D01*
X5956706Y682802D01*
X5959348Y667308D01*
X5963666Y652221D01*
X5969711Y637692D01*
X5977280Y623925D01*
X5986373Y611073D01*
X5996889Y599389D01*
X6008573Y588873D01*
X6021425Y579780D01*
X6035192Y572211D01*
X6049721Y566166D01*
X6064808Y561848D01*
X6080302Y559206D01*
X6096304Y558292D01*
X6448704Y558292D01*
X6451803Y557834D01*
X6454597Y556412D01*
X6456832Y554228D01*
X6459067Y551281D01*
X6466789Y543560D01*
X6475526Y537006D01*
X6485128Y531774D01*
X6495389Y527913D01*
X6506108Y525576D01*
X6517385Y524814D01*
X6716623Y524814D01*
X6727901Y525576D01*
X6738620Y527913D01*
X6748881Y531774D01*
X6758482Y537006D01*
X6767220Y543560D01*
X6774942Y551281D01*
X6777177Y554228D01*
X6779412Y556412D01*
X6782206Y557834D01*
X6785305Y558292D01*
X7119010Y558292D01*
X7122566Y557631D01*
X7125716Y555802D01*
X7337094Y370789D01*
X7342022Y366674D01*
X7349591Y361035D01*
X7354874Y357581D01*
X7363002Y352806D01*
X7368641Y349961D01*
X7377277Y346151D01*
X7383119Y343916D01*
X7392162Y341122D01*
X7398258Y339598D01*
X7407503Y337769D01*
X7413752Y336956D01*
X7423150Y336194D01*
X7429601Y336042D01*
X8538260Y336042D01*
X8542070Y335280D01*
X8545322Y333197D01*
X8547557Y329996D01*
X8636609Y129794D01*
X8642146Y119481D01*
X8644229Y116027D01*
X8650833Y106375D01*
X8653322Y103174D01*
X8660942Y94335D01*
X8663787Y91440D01*
X8672372Y83515D01*
X8675471Y80975D01*
X8684920Y74066D01*
X8688273Y71831D01*
X8698433Y66040D01*
X8702040Y64211D01*
X8712809Y59588D01*
X8716568Y58216D01*
X8727744Y54813D01*
X8731656Y53848D01*
X8743188Y51714D01*
X8747150Y51206D01*
X8758834Y50342D01*
G37*
G36*
X1303528Y456234D02*
G01*
X1328470Y456234D01*
X1353312Y458165D01*
X1377950Y461975D01*
X1402232Y467614D01*
X1426006Y475183D01*
X1449171Y484479D01*
X1471472Y495554D01*
X1492910Y508304D01*
X1513332Y522630D01*
X1532585Y538480D01*
X1550517Y555802D01*
X1567129Y574395D01*
X1582216Y594258D01*
X1595780Y615188D01*
X1607718Y637082D01*
X1617878Y659841D01*
X1626311Y683310D01*
X1632915Y707339D01*
X1637690Y731824D01*
X1640535Y756564D01*
X1641500Y781710D01*
X1641500Y831291D01*
X1640535Y856437D01*
X1637690Y881176D01*
X1632915Y905662D01*
X1626311Y929690D01*
X1617878Y953160D01*
X1607718Y975918D01*
X1595780Y997813D01*
X1582216Y1018743D01*
X1567129Y1038606D01*
X1550517Y1057198D01*
X1532585Y1074521D01*
X1519478Y1085291D01*
X1516888Y1088542D01*
X1515821Y1092606D01*
X1492656Y1550924D01*
X1493062Y1554276D01*
X1494485Y1557324D01*
X1497431Y1561439D01*
X1505610Y1576171D01*
X1512062Y1591767D01*
X1516735Y1607972D01*
X1519529Y1624634D01*
X1520494Y1641754D01*
X1520494Y1743710D01*
X1521256Y1747570D01*
X1523441Y1750872D01*
X1526743Y1753057D01*
X1530604Y1753870D01*
X1624838Y1754327D01*
X1627276Y1754073D01*
X1725625Y1730298D01*
X1729181Y1728622D01*
X1731873Y1725777D01*
X1733296Y1722018D01*
X1737969Y1705813D01*
X1744421Y1690217D01*
X1752549Y1675434D01*
X1762353Y1661668D01*
X1773580Y1649120D01*
X1786178Y1637842D01*
X1799945Y1628089D01*
X1814677Y1619910D01*
X1830273Y1613458D01*
X1846529Y1608785D01*
X1863140Y1605991D01*
X1880260Y1605026D01*
X2133701Y1605026D01*
X2150821Y1605991D01*
X2167483Y1608785D01*
X2183688Y1613458D01*
X2199284Y1619910D01*
X2214067Y1628089D01*
X2227834Y1637842D01*
X2240432Y1649120D01*
X2251659Y1661668D01*
X2261412Y1675434D01*
X2269591Y1690217D01*
X2276043Y1705813D01*
X2280716Y1722018D01*
X2283561Y1738680D01*
X2284526Y1755800D01*
X2284526Y2009241D01*
X2283561Y2026361D01*
X2280716Y2043023D01*
X2276043Y2059228D01*
X2269591Y2074824D01*
X2261412Y2089556D01*
X2251659Y2103323D01*
X2240432Y2115921D01*
X2227275Y2127656D01*
X2224735Y2131110D01*
X2223871Y2135327D01*
X2243582Y3966921D01*
X2244394Y3970782D01*
X2246630Y3974033D01*
X2249881Y3976217D01*
X2253742Y3976979D01*
X2316530Y3976979D01*
X2320391Y3976217D01*
X2323693Y3974033D01*
X2325928Y3970731D01*
X2329434Y3962196D01*
X2337612Y3947414D01*
X2347366Y3933647D01*
X2358593Y3921099D01*
X2371191Y3909822D01*
X2384958Y3900068D01*
X2399741Y3891889D01*
X2415336Y3885437D01*
X2431542Y3880764D01*
X2448153Y3877970D01*
X2465324Y3877005D01*
X2614726Y3877005D01*
X2631897Y3877970D01*
X2648508Y3880764D01*
X2664714Y3885437D01*
X2680309Y3891889D01*
X2695092Y3900068D01*
X2708859Y3909822D01*
X2721457Y3921099D01*
X2732684Y3933647D01*
X2742438Y3947414D01*
X2750616Y3962196D01*
X2757068Y3977792D01*
X2761742Y3993997D01*
X2764586Y4010660D01*
X2765552Y4027779D01*
X2765552Y4227220D01*
X2764586Y4244340D01*
X2761742Y4261002D01*
X2757068Y4277207D01*
X2750616Y4292803D01*
X2742438Y4307586D01*
X2732684Y4321352D01*
X2721457Y4333900D01*
X2708859Y4345178D01*
X2695092Y4354931D01*
X2680309Y4363110D01*
X2664714Y4369562D01*
X2648508Y4374235D01*
X2631897Y4377029D01*
X2614726Y4377994D01*
X2519934Y4377994D01*
X2515362Y4379061D01*
X2508910Y4382312D01*
X2490266Y4390593D01*
X2470912Y4396994D01*
X2451100Y4401566D01*
X2430881Y4404258D01*
X2412796Y4405020D01*
X2032101Y4405020D01*
X2024278Y4404868D01*
X2011527Y4404004D01*
X2003958Y4403140D01*
X1988312Y4400448D01*
X1984248Y4400448D01*
X1980539Y4401972D01*
X1977694Y4404817D01*
X1976221Y4408576D01*
X1976272Y4412589D01*
X1977898Y4416298D01*
X1979218Y4418126D01*
X1987397Y4432909D01*
X1993849Y4448505D01*
X1998522Y4464710D01*
X2001367Y4481372D01*
X2002332Y4498492D01*
X2002332Y4797907D01*
X2001367Y4815027D01*
X1998522Y4831689D01*
X1993849Y4847894D01*
X1987397Y4863490D01*
X1979218Y4878273D01*
X1969465Y4892040D01*
X1958238Y4904638D01*
X1945639Y4915865D01*
X1931873Y4925618D01*
X1917090Y4933797D01*
X1901494Y4940249D01*
X1885289Y4944922D01*
X1868627Y4947767D01*
X1851507Y4948682D01*
X1552092Y4948682D01*
X1534972Y4947767D01*
X1518310Y4944922D01*
X1502105Y4940249D01*
X1486509Y4933797D01*
X1471726Y4925618D01*
X1466392Y4921808D01*
X1462582Y4920183D01*
X1458417Y4920183D01*
X1454607Y4921808D01*
X1449273Y4925618D01*
X1434490Y4933797D01*
X1418894Y4940249D01*
X1402689Y4944922D01*
X1386027Y4947767D01*
X1368907Y4948682D01*
X1069492Y4948682D01*
X1052372Y4947767D01*
X1035710Y4944922D01*
X1019505Y4940249D01*
X1003909Y4933797D01*
X989126Y4925618D01*
X975360Y4915865D01*
X962761Y4904638D01*
X951534Y4892040D01*
X941781Y4878273D01*
X933602Y4863490D01*
X927150Y4847894D01*
X922477Y4831689D01*
X919632Y4815027D01*
X918718Y4797907D01*
X918718Y4498492D01*
X919632Y4481372D01*
X922477Y4464710D01*
X927150Y4448505D01*
X933602Y4432909D01*
X941781Y4418126D01*
X951534Y4404360D01*
X962761Y4391761D01*
X975360Y4380534D01*
X989126Y4370781D01*
X1003909Y4362602D01*
X1020318Y4355846D01*
X1023213Y4354068D01*
X1025347Y4351375D01*
X1026464Y4348175D01*
X1026464Y4344771D01*
X1004722Y4214164D01*
X1003706Y4207154D01*
X1002995Y4198366D01*
X1002792Y4191304D01*
X999490Y3099460D01*
X998829Y3095955D01*
X997000Y3092856D01*
X994206Y3090621D01*
X983945Y3084931D01*
X970178Y3075178D01*
X957580Y3063900D01*
X946353Y3051352D01*
X936599Y3037586D01*
X928420Y3022803D01*
X921969Y3007207D01*
X917295Y2991002D01*
X914450Y2974340D01*
X913485Y2957220D01*
X913485Y2757779D01*
X914450Y2740660D01*
X917295Y2723997D01*
X921969Y2707792D01*
X928420Y2692196D01*
X936599Y2677414D01*
X946353Y2663647D01*
X957580Y2651099D01*
X970178Y2639822D01*
X983945Y2630068D01*
X998728Y2621889D01*
X1014323Y2615438D01*
X1030528Y2610764D01*
X1047140Y2607970D01*
X1064310Y2607005D01*
X1213713Y2607005D01*
X1230884Y2607970D01*
X1247495Y2610764D01*
X1263700Y2615438D01*
X1279296Y2621889D01*
X1294079Y2630068D01*
X1307846Y2639822D01*
X1320444Y2651099D01*
X1331671Y2663647D01*
X1341424Y2677414D01*
X1349603Y2692196D01*
X1353515Y2701645D01*
X1355699Y2704947D01*
X1358950Y2707132D01*
X1362811Y2707944D01*
X1791665Y2712313D01*
X1795627Y2711551D01*
X1798929Y2709316D01*
X1801164Y2705963D01*
X1801926Y2702001D01*
X1796135Y2166366D01*
X1795475Y2162810D01*
X1793544Y2159711D01*
X1790700Y2157476D01*
X1787245Y2156409D01*
X1783588Y2156612D01*
X1701546Y2176475D01*
X1695602Y2177592D01*
X1690268Y2178862D01*
X1681429Y2180336D01*
X1670050Y2181656D01*
X1661160Y2182266D01*
X1655216Y2182266D01*
X1649628Y2182520D01*
X1427124Y2181301D01*
X1423212Y2182114D01*
X1419707Y2183536D01*
X1403502Y2188210D01*
X1386840Y2191054D01*
X1369720Y2192020D01*
X1170279Y2192020D01*
X1153160Y2191054D01*
X1136497Y2188210D01*
X1120292Y2183536D01*
X1104696Y2177084D01*
X1089914Y2168906D01*
X1076147Y2159152D01*
X1063599Y2147925D01*
X1052322Y2135327D01*
X1042568Y2121560D01*
X1034389Y2106777D01*
X1027937Y2091182D01*
X1023264Y2074976D01*
X1020470Y2058365D01*
X1019505Y2041194D01*
X1019505Y1891792D01*
X1020470Y1874621D01*
X1023264Y1858010D01*
X1027226Y1844293D01*
X1027633Y1841500D01*
X1027226Y1838655D01*
X1023264Y1824989D01*
X1020470Y1808327D01*
X1019505Y1791207D01*
X1019505Y1641754D01*
X1020470Y1624634D01*
X1023264Y1607972D01*
X1027937Y1591767D01*
X1034389Y1576171D01*
X1042568Y1561439D01*
X1052322Y1547672D01*
X1062583Y1536192D01*
X1064412Y1533296D01*
X1065123Y1529943D01*
X1088440Y1068781D01*
X1087729Y1064514D01*
X1085342Y1060958D01*
X1081481Y1057198D01*
X1064869Y1038606D01*
X1049782Y1018743D01*
X1036218Y997813D01*
X1024280Y975918D01*
X1014120Y953160D01*
X1005687Y929690D01*
X999083Y905662D01*
X994308Y881176D01*
X991463Y856437D01*
X990498Y831291D01*
X990498Y781710D01*
X991463Y756564D01*
X994308Y731824D01*
X999083Y707339D01*
X1005687Y683310D01*
X1014120Y659841D01*
X1024280Y637082D01*
X1036218Y615188D01*
X1049782Y594258D01*
X1064869Y574395D01*
X1081481Y555802D01*
X1099413Y538480D01*
X1118666Y522630D01*
X1139088Y508304D01*
X1160526Y495554D01*
X1182827Y484479D01*
X1205992Y475183D01*
X1229766Y467614D01*
X1254048Y461975D01*
X1278686Y458165D01*
G37*
G36*
X512572Y1283868D02*
G01*
X530707Y1285290D01*
X548589Y1288542D01*
X566064Y1293622D01*
X582879Y1300480D01*
X598982Y1309014D01*
X614070Y1319174D01*
X628040Y1330807D01*
X640740Y1343863D01*
X652018Y1358138D01*
X661771Y1373479D01*
X669899Y1389735D01*
X676300Y1406753D01*
X680974Y1424381D01*
X683768Y1442313D01*
X684682Y1460500D01*
X683768Y1478686D01*
X680974Y1496618D01*
X676300Y1514246D01*
X669899Y1531264D01*
X661771Y1547520D01*
X652018Y1562862D01*
X640740Y1577136D01*
X628040Y1590192D01*
X614070Y1601825D01*
X598982Y1611985D01*
X582879Y1620520D01*
X566064Y1627378D01*
X548589Y1632457D01*
X530707Y1635709D01*
X512572Y1637131D01*
X494385Y1636674D01*
X476300Y1634337D01*
X458622Y1630172D01*
X441451Y1624177D01*
X424942Y1616456D01*
X409346Y1607108D01*
X394817Y1596186D01*
X381457Y1583842D01*
X369468Y1570177D01*
X358902Y1555343D01*
X349961Y1539494D01*
X342646Y1522831D01*
X337108Y1505508D01*
X333400Y1487678D01*
X331520Y1469593D01*
X331520Y1451406D01*
X333400Y1433322D01*
X337108Y1415491D01*
X342646Y1398168D01*
X349961Y1381506D01*
X358902Y1365656D01*
X369468Y1350822D01*
X381457Y1337157D01*
X394817Y1324813D01*
X409346Y1313891D01*
X424942Y1304544D01*
X441451Y1296822D01*
X458622Y1290828D01*
X476300Y1286662D01*
X494385Y1284325D01*
G37*
G36*
X11482374Y4839766D02*
G01*
X11631625Y4839766D01*
X11642902Y4840579D01*
X11653621Y4842916D01*
X11663832Y4846726D01*
X11673433Y4852009D01*
X11682222Y4858562D01*
X11689943Y4866284D01*
X11696496Y4875022D01*
X11701729Y4884623D01*
X11705590Y4894884D01*
X11707926Y4905603D01*
X11708688Y4916881D01*
X11708688Y5116118D01*
X11707926Y5127396D01*
X11705590Y5138115D01*
X11701729Y5148376D01*
X11698427Y5154422D01*
X11697512Y5156758D01*
X11697208Y5159248D01*
X11697208Y5508752D01*
X11697512Y5511241D01*
X11698427Y5513578D01*
X11701729Y5519623D01*
X11705590Y5529884D01*
X11707926Y5540603D01*
X11708688Y5551881D01*
X11708688Y5751118D01*
X11707926Y5762396D01*
X11705590Y5773115D01*
X11701729Y5783376D01*
X11696496Y5792978D01*
X11689943Y5801715D01*
X11682222Y5809437D01*
X11673433Y5815990D01*
X11663832Y5821273D01*
X11653621Y5825083D01*
X11642902Y5827420D01*
X11631625Y5828182D01*
X11482374Y5828182D01*
X11471097Y5827420D01*
X11460378Y5825083D01*
X11450167Y5821273D01*
X11440566Y5815990D01*
X11431778Y5809437D01*
X11424056Y5801715D01*
X11417503Y5792978D01*
X11412270Y5783376D01*
X11408410Y5773115D01*
X11406124Y5762396D01*
X11405311Y5751118D01*
X11405311Y5551881D01*
X11406124Y5540603D01*
X11408410Y5529884D01*
X11412270Y5519623D01*
X11415572Y5513578D01*
X11416487Y5511241D01*
X11416792Y5508752D01*
X11416792Y5159248D01*
X11416487Y5156758D01*
X11415572Y5154422D01*
X11412270Y5148376D01*
X11408410Y5138115D01*
X11406124Y5127396D01*
X11405311Y5116118D01*
X11405311Y4916881D01*
X11406124Y4905603D01*
X11408410Y4894884D01*
X11412270Y4884623D01*
X11417503Y4875022D01*
X11424056Y4866284D01*
X11431778Y4858562D01*
X11440566Y4852009D01*
X11450167Y4846726D01*
X11460378Y4842916D01*
X11471097Y4840579D01*
G37*
G36*
X512572Y7887868D02*
G01*
X530707Y7889290D01*
X548589Y7892542D01*
X566064Y7897622D01*
X582879Y7904480D01*
X598982Y7913014D01*
X614070Y7923174D01*
X628040Y7934807D01*
X640740Y7947863D01*
X652018Y7962138D01*
X661771Y7977479D01*
X669899Y7993735D01*
X676300Y8010753D01*
X680974Y8028381D01*
X683768Y8046313D01*
X684682Y8064500D01*
X683768Y8082686D01*
X680974Y8100618D01*
X676300Y8118246D01*
X669899Y8135264D01*
X661771Y8151520D01*
X652018Y8166862D01*
X640740Y8181136D01*
X628040Y8194192D01*
X614070Y8205825D01*
X598982Y8215985D01*
X582879Y8224520D01*
X566064Y8231378D01*
X548589Y8236458D01*
X530707Y8239709D01*
X512572Y8241131D01*
X494385Y8240674D01*
X476300Y8238337D01*
X458622Y8234172D01*
X441451Y8228177D01*
X424942Y8220456D01*
X409346Y8211108D01*
X394817Y8200186D01*
X381457Y8187842D01*
X369468Y8174177D01*
X358902Y8159343D01*
X349961Y8143494D01*
X342646Y8126831D01*
X337108Y8109508D01*
X333400Y8091678D01*
X331520Y8073593D01*
X331520Y8055406D01*
X333400Y8037322D01*
X337108Y8019491D01*
X342646Y8002168D01*
X349961Y7985506D01*
X358902Y7969656D01*
X369468Y7954822D01*
X381457Y7941157D01*
X394817Y7928813D01*
X409346Y7917891D01*
X424942Y7908544D01*
X441451Y7900822D01*
X458622Y7894828D01*
X476300Y7890662D01*
X494385Y7888325D01*
G37*
G36*
X11815572Y7951368D02*
G01*
X11833707Y7952790D01*
X11851589Y7956042D01*
X11869064Y7961122D01*
X11885879Y7967980D01*
X11901982Y7976514D01*
X11917070Y7986674D01*
X11931040Y7998307D01*
X11943740Y8011363D01*
X11955018Y8025638D01*
X11964771Y8040979D01*
X11972899Y8057235D01*
X11979300Y8074253D01*
X11983974Y8091881D01*
X11986768Y8109813D01*
X11987682Y8128000D01*
X11986768Y8146186D01*
X11983974Y8164118D01*
X11979300Y8181746D01*
X11972899Y8198764D01*
X11964771Y8215020D01*
X11955018Y8230362D01*
X11943740Y8244636D01*
X11931040Y8257692D01*
X11917070Y8269325D01*
X11901982Y8279485D01*
X11885879Y8288020D01*
X11869064Y8294878D01*
X11851589Y8299958D01*
X11833707Y8303209D01*
X11815572Y8304631D01*
X11797385Y8304174D01*
X11779300Y8301837D01*
X11761622Y8297672D01*
X11744452Y8291677D01*
X11727942Y8283956D01*
X11712346Y8274608D01*
X11697817Y8263686D01*
X11684457Y8251342D01*
X11672468Y8237677D01*
X11661902Y8222843D01*
X11652961Y8206994D01*
X11645646Y8190331D01*
X11640108Y8173008D01*
X11636400Y8155178D01*
X11634520Y8137093D01*
X11634520Y8118906D01*
X11636400Y8100822D01*
X11640108Y8082991D01*
X11645646Y8065668D01*
X11652961Y8049006D01*
X11661902Y8033156D01*
X11672468Y8018322D01*
X11684457Y8004657D01*
X11697817Y7992313D01*
X11712346Y7981391D01*
X11727942Y7972044D01*
X11744452Y7964322D01*
X11761622Y7958328D01*
X11779300Y7954162D01*
X11797385Y7951825D01*
G37*

%LPD*%
G36*
X8163712Y8491778D02*
G01*
X8160105Y8492642D01*
X8157057Y8494776D01*
X8154974Y8497824D01*
X8149031Y8511489D01*
X8148167Y8515807D01*
X8149234Y8520125D01*
X8152079Y8523528D01*
X8156041Y8525459D01*
X8160461Y8525459D01*
X8169097Y8523579D01*
X8179409Y8522868D01*
X8183321Y8521750D01*
X8186521Y8519210D01*
X8188452Y8515604D01*
X8188756Y8511540D01*
X8187486Y8507628D01*
X8184794Y8504580D01*
X8170672Y8494014D01*
X8167420Y8492236D01*
G37*

%LPD*%
G36*
X4670094Y5855208D02*
G01*
X4666030Y5856071D01*
X4662678Y5858459D01*
X4660544Y5861964D01*
X4659985Y5866079D01*
X4660188Y5869381D01*
X4660188Y5894832D01*
X4661001Y5898743D01*
X4663186Y5901994D01*
X4666488Y5904230D01*
X4670348Y5904992D01*
X4685487Y5904992D01*
X4689856Y5904026D01*
X4693361Y5901283D01*
X4695393Y5897270D01*
X4695444Y5892800D01*
X4693259Y5888228D01*
X4687976Y5878626D01*
X4684166Y5868365D01*
X4683048Y5863183D01*
X4681778Y5860034D01*
X4679492Y5857443D01*
X4676495Y5855766D01*
X4673142Y5855208D01*
G37*

%LPD*%
G36*
X3596894Y5709361D02*
G01*
X3593134Y5709767D01*
X3589782Y5711545D01*
X3511499Y5774182D01*
X3508857Y5777382D01*
X3507689Y5781395D01*
X3508248Y5785510D01*
X3510381Y5789066D01*
X3513785Y5791454D01*
X3517849Y5792266D01*
X3567125Y5792266D01*
X3578402Y5793079D01*
X3589121Y5795416D01*
X3592576Y5796737D01*
X3596436Y5797346D01*
X3600196Y5796483D01*
X3603396Y5794298D01*
X3605529Y5791047D01*
X3606292Y5787186D01*
X3606292Y5719470D01*
X3605580Y5715762D01*
X3603599Y5712561D01*
X3600551Y5710326D01*
G37*

%LPD*%
G36*
X1292758Y3986682D02*
G01*
X1288897Y3987495D01*
X1285595Y3989679D01*
X1283360Y3992981D01*
X1282598Y3996893D01*
X1283157Y4178350D01*
X1309827Y4339183D01*
X1311046Y4342536D01*
X1313281Y4345279D01*
X1316380Y4347057D01*
X1319885Y4347667D01*
X1368907Y4347667D01*
X1386027Y4348632D01*
X1402689Y4351477D01*
X1418894Y4356150D01*
X1434490Y4362602D01*
X1446530Y4369257D01*
X1450797Y4370527D01*
X1455166Y4369816D01*
X1458874Y4367326D01*
X1461109Y4363466D01*
X1461516Y4359046D01*
X1453134Y4294936D01*
X1381760Y4049014D01*
X1379931Y4045508D01*
X1376883Y4042918D01*
X1366926Y4037431D01*
X1353159Y4027678D01*
X1340561Y4016400D01*
X1329334Y4003852D01*
X1320241Y3991000D01*
X1317955Y3988714D01*
X1315110Y3987241D01*
X1311960Y3986682D01*
G37*

%LPD*%
G36*
X1290269Y3135223D02*
G01*
X1286357Y3135985D01*
X1283004Y3138170D01*
X1280820Y3141472D01*
X1280007Y3145434D01*
X1281480Y3623157D01*
X1282242Y3627018D01*
X1284478Y3630320D01*
X1287780Y3632504D01*
X1291640Y3633266D01*
X1311960Y3633266D01*
X1315110Y3632758D01*
X1317955Y3631285D01*
X1320241Y3628999D01*
X1329334Y3616147D01*
X1340561Y3603599D01*
X1353159Y3592322D01*
X1366926Y3582568D01*
X1381709Y3574389D01*
X1397304Y3567937D01*
X1413510Y3563264D01*
X1430121Y3560470D01*
X1447292Y3559505D01*
X1596694Y3559505D01*
X1613865Y3560470D01*
X1630476Y3563264D01*
X1646682Y3567937D01*
X1662277Y3574389D01*
X1677060Y3582568D01*
X1690827Y3592322D01*
X1703425Y3603599D01*
X1714652Y3616147D01*
X1724406Y3629914D01*
X1732584Y3644696D01*
X1739036Y3660292D01*
X1743710Y3676497D01*
X1746554Y3693160D01*
X1747520Y3710279D01*
X1747520Y3863340D01*
X1747926Y3866134D01*
X1796338Y4033012D01*
X1798269Y4036669D01*
X1801520Y4039209D01*
X1805482Y4040327D01*
X1809597Y4039717D01*
X1813102Y4037533D01*
X1815439Y4034129D01*
X1816252Y4030065D01*
X1806752Y3150412D01*
X1805990Y3146602D01*
X1803806Y3143351D01*
X1800555Y3141167D01*
X1796694Y3140405D01*
G37*

%LPD*%
G36*
X3974033Y3032506D02*
G01*
X3969512Y3032556D01*
X3965498Y3034538D01*
X3962704Y3038043D01*
X3961688Y3042462D01*
X3961688Y3199790D01*
X3962501Y3203702D01*
X3964686Y3207004D01*
X3967987Y3209188D01*
X3971848Y3209950D01*
X3975760Y3209188D01*
X3979468Y3206597D01*
X3991559Y3197098D01*
X4004767Y3189122D01*
X4018787Y3182772D01*
X4033469Y3178200D01*
X4048607Y3175457D01*
X4064101Y3174492D01*
X4067962Y3173476D01*
X4071162Y3171088D01*
X4073144Y3167634D01*
X4073651Y3163671D01*
X4072585Y3159810D01*
X4012590Y3039821D01*
X4010355Y3036874D01*
X4007205Y3034893D01*
X4003497Y3034182D01*
X3989374Y3034182D01*
X3978097Y3033420D01*
G37*

%LPD*%
G36*
X5543854Y2505913D02*
G01*
X5539435Y2507640D01*
X5536031Y2510586D01*
X5534202Y2514650D01*
X5534355Y2519070D01*
X5536336Y2523083D01*
X5539841Y2525826D01*
X5544210Y2526792D01*
X5549747Y2526792D01*
X5553913Y2525877D01*
X5557367Y2523337D01*
X5559450Y2519578D01*
X5559806Y2515311D01*
X5558332Y2511247D01*
X5555386Y2508199D01*
X5551373Y2506624D01*
X5547156Y2505913D01*
G37*

%LPD*%
G36*
X7136180Y2302916D02*
G01*
X7132066Y2303424D01*
X7128459Y2305558D01*
X7126071Y2308961D01*
X7125208Y2313025D01*
X7125208Y2666695D01*
X7124293Y2682697D01*
X7121652Y2698191D01*
X7117334Y2713278D01*
X7111288Y2727807D01*
X7103719Y2741574D01*
X7094626Y2754426D01*
X7084110Y2766110D01*
X7073341Y2775762D01*
X7070953Y2779014D01*
X7069988Y2782976D01*
X7070648Y2786938D01*
X7072833Y2790393D01*
X7076135Y2792679D01*
X7080148Y2793492D01*
X7176566Y2793492D01*
X8585047Y2804922D01*
X8640978Y2804007D01*
X8644890Y2803144D01*
X8648141Y2800858D01*
X8650274Y2797454D01*
X8650986Y2793542D01*
X8650071Y2789631D01*
X8643772Y2775712D01*
X8639200Y2761030D01*
X8636457Y2745892D01*
X8635492Y2730195D01*
X8635492Y2652674D01*
X8634628Y2648559D01*
X8632190Y2645156D01*
X8628634Y2643022D01*
X8624468Y2642514D01*
X8620455Y2643733D01*
X8615832Y2646273D01*
X8605621Y2650083D01*
X8594902Y2652420D01*
X8583625Y2653182D01*
X8434374Y2653182D01*
X8423097Y2652420D01*
X8412378Y2650083D01*
X8402167Y2646273D01*
X8392566Y2640990D01*
X8388096Y2637688D01*
X8384184Y2635859D01*
X8379815Y2635859D01*
X8375903Y2637688D01*
X8371433Y2640990D01*
X8361832Y2646273D01*
X8351621Y2650083D01*
X8340902Y2652420D01*
X8329625Y2653182D01*
X8180374Y2653182D01*
X8169097Y2652420D01*
X8158378Y2650083D01*
X8148167Y2646273D01*
X8138566Y2640990D01*
X8134096Y2637688D01*
X8130184Y2635859D01*
X8125815Y2635859D01*
X8121903Y2637688D01*
X8117433Y2640990D01*
X8107832Y2646273D01*
X8097621Y2650083D01*
X8086902Y2652420D01*
X8075625Y2653182D01*
X7926374Y2653182D01*
X7915097Y2652420D01*
X7904378Y2650083D01*
X7894167Y2646273D01*
X7884566Y2640990D01*
X7875778Y2634437D01*
X7868056Y2626715D01*
X7861503Y2617978D01*
X7856270Y2608376D01*
X7852409Y2598115D01*
X7850124Y2587396D01*
X7849311Y2576118D01*
X7849311Y2376881D01*
X7850124Y2365603D01*
X7850784Y2362352D01*
X7850784Y2357831D01*
X7848803Y2353818D01*
X7845247Y2351024D01*
X7840878Y2350008D01*
X7239304Y2350008D01*
X7223607Y2349042D01*
X7208469Y2346299D01*
X7193788Y2341727D01*
X7179767Y2335377D01*
X7166559Y2327402D01*
X7154468Y2317902D01*
X7143343Y2306777D01*
X7140194Y2304084D01*
G37*

%LPD*%
G36*
X10149179Y2224887D02*
G01*
X9972852Y2227630D01*
X9969042Y2228443D01*
X9965842Y2230577D01*
X9960965Y2235454D01*
X9952228Y2242007D01*
X9942626Y2247239D01*
X9932365Y2251100D01*
X9921646Y2253386D01*
X9910368Y2254199D01*
X9711131Y2254199D01*
X9699853Y2253386D01*
X9689134Y2251100D01*
X9678873Y2247239D01*
X9672726Y2243886D01*
X9669576Y2242820D01*
X9666173Y2242820D01*
X9663023Y2243886D01*
X9656876Y2247239D01*
X9646615Y2251100D01*
X9635896Y2253386D01*
X9624618Y2254199D01*
X9425381Y2254199D01*
X9414103Y2253386D01*
X9403384Y2251100D01*
X9393123Y2247239D01*
X9383522Y2242007D01*
X9370364Y2232152D01*
X9366402Y2231390D01*
X9279991Y2232101D01*
X9276537Y2232710D01*
X9273489Y2234488D01*
X9271254Y2237232D01*
X9270085Y2240534D01*
X9267850Y2252827D01*
X9264040Y2265578D01*
X9257944Y2279751D01*
X9255252Y2285085D01*
X9254185Y2289048D01*
X9254794Y2293112D01*
X9256979Y2296617D01*
X9260332Y2298954D01*
X9264345Y2299766D01*
X9345625Y2299766D01*
X9356902Y2300579D01*
X9367621Y2302916D01*
X9377832Y2306726D01*
X9387433Y2312009D01*
X9391904Y2315311D01*
X9395815Y2317140D01*
X9400184Y2317140D01*
X9404096Y2315311D01*
X9408566Y2312009D01*
X9418167Y2306726D01*
X9428378Y2302916D01*
X9439097Y2300579D01*
X9450374Y2299766D01*
X9599625Y2299766D01*
X9610902Y2300579D01*
X9621621Y2302916D01*
X9631832Y2306726D01*
X9641433Y2312009D01*
X9645904Y2315311D01*
X9649815Y2317140D01*
X9654184Y2317140D01*
X9658096Y2315311D01*
X9662566Y2312009D01*
X9672167Y2306726D01*
X9682378Y2302916D01*
X9693097Y2300579D01*
X9704374Y2299766D01*
X9853625Y2299766D01*
X9864902Y2300579D01*
X9875621Y2302916D01*
X9885832Y2306726D01*
X9895433Y2312009D01*
X9899904Y2315311D01*
X9903815Y2317140D01*
X9908184Y2317140D01*
X9912096Y2315311D01*
X9916566Y2312009D01*
X9926167Y2306726D01*
X9936378Y2302916D01*
X9947097Y2300579D01*
X9958374Y2299766D01*
X10107625Y2299766D01*
X10118902Y2300579D01*
X10129621Y2302916D01*
X10139832Y2306726D01*
X10144455Y2309266D01*
X10148468Y2310485D01*
X10152634Y2309977D01*
X10156190Y2307844D01*
X10158628Y2304440D01*
X10159492Y2300325D01*
X10159492Y2235047D01*
X10158679Y2231136D01*
X10156444Y2227834D01*
X10153091Y2225649D01*
G37*

%LPD*%
G36*
X8333282Y2098954D02*
G01*
X8329117Y2099716D01*
X8325662Y2102104D01*
X8323478Y2105660D01*
X8322919Y2109825D01*
X8324088Y2113889D01*
X8326780Y2117090D01*
X8339531Y2127097D01*
X8350402Y2137968D01*
X8359902Y2150059D01*
X8362645Y2154580D01*
X8365642Y2157730D01*
X8369706Y2159355D01*
X8374075Y2159101D01*
X8377936Y2157069D01*
X8380577Y2153564D01*
X8381492Y2149297D01*
X8381492Y2128672D01*
X8380831Y2125116D01*
X8379002Y2122017D01*
X8376208Y2119731D01*
X8367522Y2115007D01*
X8358784Y2108454D01*
X8352536Y2102205D01*
X8349335Y2100072D01*
X8345576Y2099259D01*
G37*

%LPD*%
G36*
X11187125Y1862988D02*
G01*
X11183112Y1863648D01*
X11179657Y1865833D01*
X11177320Y1869186D01*
X11176508Y1873148D01*
X11176508Y2316632D01*
X11177270Y2320544D01*
X11179505Y2323795D01*
X11181943Y2326284D01*
X11188496Y2335022D01*
X11193729Y2344623D01*
X11197590Y2354884D01*
X11199926Y2365603D01*
X11200688Y2376881D01*
X11200688Y2576118D01*
X11199926Y2587396D01*
X11197590Y2598115D01*
X11193729Y2608376D01*
X11188496Y2617978D01*
X11181943Y2626715D01*
X11174222Y2634437D01*
X11165433Y2640990D01*
X11155832Y2646273D01*
X11145621Y2650083D01*
X11134902Y2652420D01*
X11123625Y2653182D01*
X10974374Y2653182D01*
X10963097Y2652420D01*
X10952378Y2650083D01*
X10942167Y2646273D01*
X10932566Y2640990D01*
X10928096Y2637688D01*
X10924184Y2635859D01*
X10919815Y2635859D01*
X10915904Y2637688D01*
X10911433Y2640990D01*
X10901832Y2646273D01*
X10891621Y2650083D01*
X10880902Y2652420D01*
X10877296Y2652674D01*
X10873486Y2653690D01*
X10870336Y2656128D01*
X10868355Y2659583D01*
X10796016Y2876651D01*
X10795508Y2879852D01*
X10795508Y3619195D01*
X10794542Y3634892D01*
X10791799Y3650030D01*
X10787227Y3664712D01*
X10780877Y3678732D01*
X10772902Y3691940D01*
X10763402Y3704031D01*
X10752531Y3714902D01*
X10740440Y3724401D01*
X10727232Y3732377D01*
X10713212Y3738727D01*
X10698530Y3743299D01*
X10683392Y3746042D01*
X10667695Y3747008D01*
X10339171Y3747008D01*
X10335615Y3747668D01*
X10332516Y3749497D01*
X10330230Y3752291D01*
X10325506Y3760978D01*
X10318953Y3769715D01*
X10311231Y3777437D01*
X10302494Y3783990D01*
X10292892Y3789273D01*
X10282631Y3793083D01*
X10271912Y3795420D01*
X10260634Y3796182D01*
X10061397Y3796182D01*
X10050119Y3795420D01*
X10039400Y3793083D01*
X10029139Y3789273D01*
X10019538Y3783990D01*
X10010800Y3777437D01*
X10003078Y3769715D01*
X9996525Y3760978D01*
X9991242Y3751376D01*
X9987432Y3741115D01*
X9985095Y3730396D01*
X9984333Y3719118D01*
X9984333Y3519881D01*
X9985095Y3508603D01*
X9987432Y3497884D01*
X9991242Y3487623D01*
X9996525Y3478022D01*
X10003078Y3469284D01*
X10010800Y3461562D01*
X10019538Y3455009D01*
X10029139Y3449726D01*
X10039400Y3445916D01*
X10050119Y3443579D01*
X10061397Y3442766D01*
X10260634Y3442766D01*
X10271912Y3443579D01*
X10282631Y3445916D01*
X10292892Y3449726D01*
X10302494Y3455009D01*
X10311231Y3461562D01*
X10318953Y3469284D01*
X10325506Y3478022D01*
X10330230Y3486708D01*
X10332516Y3489502D01*
X10335615Y3491331D01*
X10339171Y3491992D01*
X10530332Y3491992D01*
X10534243Y3491229D01*
X10537494Y3488994D01*
X10539730Y3485743D01*
X10540492Y3481832D01*
X10540492Y2857703D01*
X10540898Y2847187D01*
X10541406Y2842209D01*
X10543082Y2831947D01*
X10544200Y2827070D01*
X10547096Y2816961D01*
X10597235Y2666593D01*
X10597743Y2662783D01*
X10596829Y2659075D01*
X10594594Y2655976D01*
X10591342Y2653944D01*
X10587583Y2653182D01*
X10466374Y2653182D01*
X10455097Y2652420D01*
X10444378Y2650083D01*
X10434167Y2646273D01*
X10424566Y2640990D01*
X10420096Y2637688D01*
X10416184Y2635859D01*
X10411815Y2635859D01*
X10407904Y2637688D01*
X10403433Y2640990D01*
X10393832Y2646273D01*
X10383621Y2650083D01*
X10372902Y2652420D01*
X10361625Y2653182D01*
X10212374Y2653182D01*
X10201097Y2652420D01*
X10190378Y2650083D01*
X10180167Y2646273D01*
X10170566Y2640990D01*
X10166096Y2637688D01*
X10162184Y2635859D01*
X10157815Y2635859D01*
X10153904Y2637688D01*
X10149433Y2640990D01*
X10139832Y2646273D01*
X10129621Y2650083D01*
X10118902Y2652420D01*
X10107625Y2653182D01*
X10093502Y2653182D01*
X10089794Y2653893D01*
X10086644Y2655874D01*
X10084409Y2658821D01*
X10050830Y2725978D01*
X10049865Y2728925D01*
X10049865Y2732074D01*
X10050830Y2735021D01*
X10084409Y2802178D01*
X10086644Y2805125D01*
X10089794Y2807106D01*
X10093502Y2807766D01*
X10132618Y2807766D01*
X10143896Y2808579D01*
X10154615Y2810916D01*
X10164876Y2814726D01*
X10174478Y2820009D01*
X10183215Y2826562D01*
X10190937Y2834284D01*
X10197490Y2843022D01*
X10202773Y2852623D01*
X10206583Y2862884D01*
X10208920Y2873603D01*
X10209733Y2884881D01*
X10209733Y3084118D01*
X10208920Y3095396D01*
X10206583Y3106115D01*
X10202773Y3116376D01*
X10197490Y3125978D01*
X10190937Y3134715D01*
X10183215Y3142437D01*
X10174478Y3148990D01*
X10164876Y3154273D01*
X10154615Y3158083D01*
X10143896Y3160420D01*
X10132618Y3161182D01*
X9933381Y3161182D01*
X9922103Y3160420D01*
X9911384Y3158083D01*
X9901123Y3154273D01*
X9891522Y3148990D01*
X9882784Y3142437D01*
X9875062Y3134715D01*
X9868509Y3125978D01*
X9860584Y3111449D01*
X9857282Y3109112D01*
X9853371Y3108248D01*
X9849408Y3108960D01*
X9846056Y3111144D01*
X9843820Y3114446D01*
X9843008Y3118408D01*
X9843008Y3619195D01*
X9842042Y3634892D01*
X9839299Y3650030D01*
X9834727Y3664712D01*
X9828377Y3678732D01*
X9820402Y3691940D01*
X9810902Y3704031D01*
X9800031Y3714902D01*
X9787940Y3724401D01*
X9774732Y3732377D01*
X9760712Y3738727D01*
X9746030Y3743299D01*
X9730892Y3746042D01*
X9715195Y3747008D01*
X8953652Y3747008D01*
X8945778Y3746754D01*
X8938107Y3746093D01*
X8930538Y3744925D01*
X8922969Y3743299D01*
X8915552Y3741216D01*
X8908288Y3738727D01*
X8901176Y3735781D01*
X8894267Y3732377D01*
X8887561Y3728618D01*
X8881059Y3724452D01*
X8874861Y3719880D01*
X8868968Y3714953D01*
X8863228Y3709568D01*
X8776665Y3623005D01*
X8773363Y3620770D01*
X8769451Y3620008D01*
X7620304Y3620008D01*
X7604607Y3619042D01*
X7590078Y3616401D01*
X7586421Y3616401D01*
X7571892Y3619042D01*
X7556195Y3620008D01*
X5856884Y3620008D01*
X5852972Y3620770D01*
X5849670Y3623005D01*
X5847486Y3626256D01*
X5846724Y3630168D01*
X5847486Y3634079D01*
X5849670Y3637330D01*
X6018834Y3806494D01*
X6022136Y3808729D01*
X6026048Y3809492D01*
X7556347Y3809492D01*
X7563713Y3809695D01*
X7571892Y3810406D01*
X7579004Y3811524D01*
X7587030Y3813200D01*
X7593990Y3815130D01*
X7601712Y3817772D01*
X7608417Y3820515D01*
X7615783Y3824122D01*
X7622082Y3827627D01*
X7628940Y3832098D01*
X7634884Y3836415D01*
X8168995Y4251858D01*
X8171942Y4253433D01*
X8175244Y4253992D01*
X9400286Y4253992D01*
X9415627Y4255211D01*
X9430766Y4258259D01*
X9445345Y4263136D01*
X9457436Y4268673D01*
X9472320Y4277868D01*
X9484258Y4287621D01*
X9494926Y4298696D01*
X9504222Y4310989D01*
X9512046Y4324502D01*
X9664496Y4629353D01*
X9666732Y4632350D01*
X9669932Y4634331D01*
X9673590Y4634992D01*
X10416286Y4634992D01*
X10431627Y4636211D01*
X10446766Y4639259D01*
X10461345Y4644136D01*
X10473436Y4649673D01*
X10488320Y4658868D01*
X10500258Y4668621D01*
X10510926Y4679696D01*
X10520222Y4691989D01*
X10528046Y4705502D01*
X10592409Y4834178D01*
X10594644Y4837125D01*
X10597794Y4839106D01*
X10601502Y4839766D01*
X10615625Y4839766D01*
X10626902Y4840579D01*
X10637621Y4842916D01*
X10647832Y4846726D01*
X10652455Y4849266D01*
X10656468Y4850485D01*
X10660634Y4849977D01*
X10664190Y4847844D01*
X10666628Y4844440D01*
X10667492Y4840325D01*
X10667492Y4125214D01*
X10668711Y4109872D01*
X10671759Y4094734D01*
X10676636Y4080154D01*
X10682173Y4068064D01*
X10691368Y4053179D01*
X10701121Y4041241D01*
X10712196Y4030573D01*
X10724489Y4021277D01*
X10738002Y4013454D01*
X11677853Y3543503D01*
X11680850Y3541268D01*
X11682831Y3538067D01*
X11683492Y3534410D01*
X11683492Y2652674D01*
X11682628Y2648559D01*
X11680190Y2645156D01*
X11676634Y2643022D01*
X11672468Y2642514D01*
X11668455Y2643733D01*
X11663832Y2646273D01*
X11653621Y2650083D01*
X11642902Y2652420D01*
X11631625Y2653182D01*
X11482374Y2653182D01*
X11471097Y2652420D01*
X11460378Y2650083D01*
X11450167Y2646273D01*
X11440566Y2640990D01*
X11431778Y2634437D01*
X11424056Y2626715D01*
X11417503Y2617978D01*
X11412270Y2608376D01*
X11408410Y2598115D01*
X11406124Y2587396D01*
X11405311Y2576118D01*
X11405311Y2376881D01*
X11406124Y2365603D01*
X11408410Y2354884D01*
X11412270Y2344623D01*
X11417503Y2335022D01*
X11424056Y2326284D01*
X11426494Y2323795D01*
X11428730Y2320544D01*
X11429492Y2316632D01*
X11429492Y2248662D01*
X11428831Y2245106D01*
X11427002Y2242007D01*
X11424208Y2239721D01*
X11415522Y2234996D01*
X11406784Y2228443D01*
X11399062Y2220722D01*
X11392509Y2211933D01*
X11387226Y2202332D01*
X11383416Y2192121D01*
X11381079Y2181402D01*
X11380317Y2170125D01*
X11380317Y2020874D01*
X11381079Y2009597D01*
X11383416Y1998878D01*
X11387226Y1988667D01*
X11392509Y1979066D01*
X11395811Y1974596D01*
X11397640Y1970684D01*
X11397640Y1966315D01*
X11395811Y1962404D01*
X11392509Y1957933D01*
X11385550Y1945284D01*
X11383111Y1943100D01*
X11380114Y1941779D01*
X11269218Y1914093D01*
X11254130Y1909419D01*
X11239754Y1903120D01*
X11226139Y1895246D01*
X11215420Y1887524D01*
X11201958Y1875231D01*
X11194288Y1866442D01*
X11191087Y1864004D01*
G37*

%LPD*%
G36*
X7422438Y1855114D02*
G01*
X7418019Y1856130D01*
X7414514Y1858924D01*
X7412532Y1862937D01*
X7412481Y1867458D01*
X7414920Y1878584D01*
X7415733Y1889861D01*
X7415733Y2039112D01*
X7414920Y2050389D01*
X7412583Y2061108D01*
X7408773Y2071319D01*
X7404049Y2079955D01*
X7402830Y2083968D01*
X7403338Y2088134D01*
X7405471Y2091689D01*
X7408875Y2094128D01*
X7412939Y2094992D01*
X7952943Y2094992D01*
X7957007Y2094128D01*
X7960410Y2091689D01*
X7962544Y2088134D01*
X7963052Y2083968D01*
X7961884Y2079955D01*
X7958226Y2073351D01*
X7954416Y2063089D01*
X7952079Y2052421D01*
X7951317Y2041143D01*
X7951317Y1891842D01*
X7952079Y1880616D01*
X7954772Y1868728D01*
X7954772Y1864207D01*
X7952790Y1860143D01*
X7949285Y1857349D01*
X7944866Y1856333D01*
G37*

%LPD*%
G36*
X8960561Y1855063D02*
G01*
X8688527Y1855622D01*
X8684666Y1856384D01*
X8681415Y1858518D01*
X8679230Y1861718D01*
X8678367Y1865477D01*
X8679027Y1869338D01*
X8682583Y1878888D01*
X8684920Y1889607D01*
X8685733Y1900885D01*
X8685733Y2050135D01*
X8684920Y2061413D01*
X8682583Y2072132D01*
X8678773Y2082342D01*
X8673490Y2091943D01*
X8666937Y2100732D01*
X8659215Y2108454D01*
X8650478Y2115007D01*
X8641791Y2119731D01*
X8638997Y2122017D01*
X8637168Y2125116D01*
X8636508Y2128672D01*
X8636508Y2300325D01*
X8637371Y2304440D01*
X8639810Y2307844D01*
X8643366Y2309977D01*
X8647531Y2310485D01*
X8651544Y2309266D01*
X8656167Y2306726D01*
X8666378Y2302916D01*
X8677097Y2300579D01*
X8688374Y2299766D01*
X8837625Y2299766D01*
X8848902Y2300579D01*
X8859621Y2302916D01*
X8869832Y2306726D01*
X8879433Y2312009D01*
X8883904Y2315311D01*
X8887815Y2317140D01*
X8892184Y2317140D01*
X8896096Y2315311D01*
X8900566Y2312009D01*
X8910167Y2306726D01*
X8920378Y2302916D01*
X8931097Y2300579D01*
X8942374Y2299766D01*
X8956497Y2299766D01*
X8960205Y2299106D01*
X8963355Y2297125D01*
X8965590Y2294178D01*
X9015425Y2194560D01*
X9016492Y2189988D01*
X9016492Y2117648D01*
X9015831Y2114092D01*
X9014002Y2110994D01*
X9011208Y2108708D01*
X9002522Y2103983D01*
X8993784Y2097430D01*
X8986062Y2089708D01*
X8979509Y2080920D01*
X8974226Y2071319D01*
X8970416Y2061108D01*
X8968079Y2050389D01*
X8967317Y2039112D01*
X8967317Y1889861D01*
X8968079Y1878584D01*
X8970518Y1867407D01*
X8970467Y1862886D01*
X8968486Y1858873D01*
X8964980Y1856079D01*
G37*

%LPD*%
G36*
X9327286Y1854707D02*
G01*
X9322917Y1855724D01*
X9319361Y1858518D01*
X9317380Y1862531D01*
X9317380Y1867052D01*
X9319920Y1878584D01*
X9320733Y1889861D01*
X9320733Y1966468D01*
X9321495Y1970379D01*
X9323730Y1973681D01*
X9327032Y1975916D01*
X9330944Y1976628D01*
X9363811Y1976374D01*
X9367672Y1975612D01*
X9370923Y1973427D01*
X9374784Y1969566D01*
X9383522Y1963013D01*
X9393123Y1957781D01*
X9403384Y1953920D01*
X9414103Y1951583D01*
X9425381Y1950821D01*
X9624618Y1950821D01*
X9635896Y1951583D01*
X9646615Y1953920D01*
X9656876Y1957781D01*
X9663023Y1961134D01*
X9666173Y1962200D01*
X9669576Y1962200D01*
X9672726Y1961134D01*
X9678873Y1957781D01*
X9689134Y1953920D01*
X9699853Y1951583D01*
X9711131Y1950821D01*
X9910368Y1950821D01*
X9921646Y1951583D01*
X9932365Y1953920D01*
X9942626Y1957781D01*
X9952228Y1963013D01*
X9961067Y1969668D01*
X9964470Y1971903D01*
X9968433Y1972665D01*
X10100310Y1970633D01*
X10104120Y1969770D01*
X10107371Y1967585D01*
X10109555Y1964283D01*
X10110317Y1960473D01*
X10110317Y1889861D01*
X10111079Y1878584D01*
X10113619Y1867052D01*
X10113619Y1862531D01*
X10111638Y1858518D01*
X10108082Y1855724D01*
X10103713Y1854707D01*
G37*

%LPD*%
G36*
X11554815Y857859D02*
G01*
X11550904Y859688D01*
X11546433Y862990D01*
X11536832Y868273D01*
X11521846Y873709D01*
X11519255Y876046D01*
X11517579Y879144D01*
X11443716Y1100683D01*
X11443208Y1103884D01*
X11443208Y1660601D01*
X11444173Y1664919D01*
X11446916Y1668475D01*
X11450878Y1670456D01*
X11527028Y1689506D01*
X11529517Y1689811D01*
X11656618Y1689811D01*
X11667896Y1690573D01*
X11678615Y1692910D01*
X11688876Y1696770D01*
X11698478Y1702003D01*
X11707215Y1708556D01*
X11714937Y1716278D01*
X11721490Y1725066D01*
X11726773Y1734667D01*
X11730583Y1744878D01*
X11732920Y1755597D01*
X11733733Y1766874D01*
X11733733Y1916125D01*
X11732920Y1927402D01*
X11730583Y1938121D01*
X11726773Y1948332D01*
X11721490Y1957933D01*
X11718188Y1962404D01*
X11716359Y1966315D01*
X11716359Y1970684D01*
X11718188Y1974596D01*
X11721490Y1979066D01*
X11726773Y1988667D01*
X11730583Y1998878D01*
X11732920Y2009597D01*
X11733733Y2020874D01*
X11733733Y2170125D01*
X11732920Y2181402D01*
X11730583Y2192121D01*
X11726773Y2202332D01*
X11721490Y2211933D01*
X11714937Y2220722D01*
X11707215Y2228443D01*
X11698478Y2234996D01*
X11689791Y2239721D01*
X11686997Y2242007D01*
X11685168Y2245106D01*
X11684508Y2248662D01*
X11684508Y2316632D01*
X11685270Y2320544D01*
X11687505Y2323795D01*
X11689943Y2326284D01*
X11695226Y2333294D01*
X11697868Y2335784D01*
X11701272Y2337155D01*
X11704878Y2337257D01*
X11708333Y2336088D01*
X11711127Y2333752D01*
X11715546Y2328468D01*
X11721134Y2322525D01*
X11726418Y2317597D01*
X11732717Y2312365D01*
X11738559Y2308098D01*
X11745518Y2303576D01*
X11996064Y2153259D01*
X11998706Y2150973D01*
X12000382Y2147976D01*
X12000992Y2144572D01*
X12000992Y1510436D01*
X12000128Y1506372D01*
X11997740Y1502968D01*
X11994184Y1500835D01*
X11990070Y1500327D01*
X11986056Y1501444D01*
X11982856Y1504137D01*
X11981027Y1507845D01*
X11979300Y1514246D01*
X11972899Y1531264D01*
X11964771Y1547520D01*
X11955018Y1562862D01*
X11943740Y1577136D01*
X11931040Y1590192D01*
X11917070Y1601825D01*
X11901982Y1611985D01*
X11885879Y1620520D01*
X11869064Y1627378D01*
X11851589Y1632457D01*
X11833707Y1635709D01*
X11815572Y1637131D01*
X11797385Y1636674D01*
X11779300Y1634337D01*
X11761622Y1630172D01*
X11744452Y1624177D01*
X11727942Y1616456D01*
X11712346Y1607108D01*
X11697817Y1596186D01*
X11684457Y1583842D01*
X11672468Y1570177D01*
X11661902Y1555343D01*
X11652961Y1539494D01*
X11645646Y1522831D01*
X11640108Y1505508D01*
X11636400Y1487678D01*
X11634520Y1469593D01*
X11634520Y1451406D01*
X11636400Y1433322D01*
X11640108Y1415491D01*
X11645646Y1398168D01*
X11652961Y1381506D01*
X11661902Y1365656D01*
X11672468Y1350822D01*
X11684457Y1337157D01*
X11697817Y1324813D01*
X11712346Y1313891D01*
X11727942Y1304544D01*
X11744452Y1296822D01*
X11761622Y1290828D01*
X11779300Y1286662D01*
X11797385Y1284325D01*
X11815572Y1283868D01*
X11833707Y1285290D01*
X11851589Y1288542D01*
X11869064Y1293622D01*
X11885879Y1300480D01*
X11901982Y1309014D01*
X11917070Y1319174D01*
X11931040Y1330807D01*
X11943740Y1343863D01*
X11955018Y1358138D01*
X11964771Y1373479D01*
X11972899Y1389735D01*
X11979300Y1406753D01*
X11981027Y1413154D01*
X11982856Y1416862D01*
X11986056Y1419555D01*
X11990070Y1420672D01*
X11994184Y1420164D01*
X11997740Y1418031D01*
X12000128Y1414627D01*
X12000992Y1410563D01*
X12000992Y1320901D01*
X12000382Y1317396D01*
X11998553Y1314297D01*
X11650878Y908710D01*
X11641429Y896213D01*
X11632336Y880313D01*
X11630050Y877620D01*
X11627002Y875842D01*
X11623497Y875182D01*
X11609374Y875182D01*
X11598097Y874420D01*
X11587378Y872083D01*
X11577167Y868273D01*
X11567566Y862990D01*
X11563096Y859688D01*
X11559184Y857859D01*
G37*

%LPD*%
G36*
X6555282Y828192D02*
G01*
X6498996Y836980D01*
X6492748Y837793D01*
X6483146Y838555D01*
X6476898Y838708D01*
X6246368Y838708D01*
X6242456Y839469D01*
X6239205Y841705D01*
X6236970Y844956D01*
X6236208Y848868D01*
X6236106Y1719783D01*
X6235293Y1730298D01*
X6234633Y1735429D01*
X6232652Y1745792D01*
X6231432Y1750822D01*
X6228283Y1760880D01*
X6226505Y1765757D01*
X6222288Y1775409D01*
X6211874Y1795272D01*
X6211011Y1797557D01*
X6210706Y1800047D01*
X6210706Y2009139D01*
X6209893Y2020417D01*
X6207556Y2031136D01*
X6203746Y2041347D01*
X6198514Y2050948D01*
X6191961Y2059736D01*
X6184188Y2067458D01*
X6175451Y2074011D01*
X6165850Y2079243D01*
X6155588Y2083104D01*
X6144920Y2085390D01*
X6133642Y2086203D01*
X5880354Y2086203D01*
X5874258Y2085797D01*
X5869838Y2086457D01*
X5607659Y2188768D01*
X5604306Y2190953D01*
X5602020Y2194255D01*
X5601208Y2198217D01*
X5601208Y2221992D01*
X5601817Y2225497D01*
X5603595Y2228596D01*
X5606338Y2230831D01*
X5609691Y2232050D01*
X5719876Y2250287D01*
X5723280Y2250287D01*
X5726480Y2249170D01*
X5737148Y2243226D01*
X5747359Y2239416D01*
X5758078Y2237079D01*
X5769356Y2236266D01*
X5918606Y2236266D01*
X5929884Y2237079D01*
X5940602Y2239416D01*
X5950813Y2243226D01*
X5960414Y2248509D01*
X5969203Y2255062D01*
X5976924Y2262784D01*
X5983478Y2271522D01*
X5988710Y2281123D01*
X5992571Y2291384D01*
X5994908Y2302103D01*
X5995670Y2313381D01*
X5995670Y2512618D01*
X5995466Y2515920D01*
X5996025Y2520035D01*
X5998159Y2523540D01*
X6001512Y2525928D01*
X6005576Y2526792D01*
X6834631Y2526792D01*
X6838543Y2526030D01*
X6841794Y2523794D01*
X6844030Y2520543D01*
X6844792Y2516632D01*
X6844792Y1143152D01*
X6845096Y1133602D01*
X6845655Y1127353D01*
X6847027Y1118006D01*
X6848297Y1111859D01*
X6850684Y1102715D01*
X6852666Y1096721D01*
X6856069Y1087932D01*
X6858660Y1082192D01*
X6863029Y1073861D01*
X6866280Y1068476D01*
X6871563Y1060653D01*
X6875373Y1055624D01*
X6881469Y1048461D01*
X6885838Y1043889D01*
X6892798Y1037386D01*
X7099503Y856538D01*
X7101941Y853287D01*
X7102957Y849325D01*
X7102297Y845312D01*
X7100163Y841857D01*
X7096810Y839520D01*
X7092797Y838708D01*
X6731203Y838708D01*
X6719773Y838250D01*
X6715404Y837844D01*
X6704126Y836117D01*
X6664350Y828395D01*
X6662369Y828192D01*
G37*

%LPD*%
G36*
X8860739Y330708D02*
G01*
X8856929Y331470D01*
X8853678Y333552D01*
X8851442Y336753D01*
X8770416Y519023D01*
X8769553Y523087D01*
X8770416Y527202D01*
X8772804Y530606D01*
X8776411Y532739D01*
X8780576Y533247D01*
X8785148Y531774D01*
X8795410Y527913D01*
X8806078Y525576D01*
X8817356Y524814D01*
X9016644Y524814D01*
X9027922Y525576D01*
X9038590Y527913D01*
X9048851Y531774D01*
X9062110Y539140D01*
X9065209Y539699D01*
X9362643Y546811D01*
X9561118Y546811D01*
X9572396Y547573D01*
X9583115Y549910D01*
X9587636Y551586D01*
X9590938Y552246D01*
X9705543Y554990D01*
X9709404Y554329D01*
X9720935Y549910D01*
X9731552Y547573D01*
X9742830Y546811D01*
X9942118Y546811D01*
X9953396Y547573D01*
X9964115Y549910D01*
X9974326Y553720D01*
X9980422Y557072D01*
X9982758Y557987D01*
X9985248Y558292D01*
X10268458Y558292D01*
X10271556Y557834D01*
X10274350Y556412D01*
X10276586Y554228D01*
X10281056Y548284D01*
X10288778Y540562D01*
X10297566Y534009D01*
X10307167Y528726D01*
X10317378Y524916D01*
X10328097Y522579D01*
X10339374Y521766D01*
X10488625Y521766D01*
X10499902Y522579D01*
X10510621Y524916D01*
X10520832Y528726D01*
X10530433Y534009D01*
X10539222Y540562D01*
X10546943Y548284D01*
X10553496Y557022D01*
X10558729Y566623D01*
X10562590Y576884D01*
X10564926Y587603D01*
X10565688Y598881D01*
X10565688Y798118D01*
X10564926Y809396D01*
X10562590Y820115D01*
X10558729Y830376D01*
X10553496Y839978D01*
X10546943Y848715D01*
X10539222Y856437D01*
X10530433Y862990D01*
X10520832Y868273D01*
X10510621Y872083D01*
X10499902Y874420D01*
X10488625Y875182D01*
X10339374Y875182D01*
X10328097Y874420D01*
X10317378Y872083D01*
X10307167Y868273D01*
X10297566Y862990D01*
X10288778Y856437D01*
X10281056Y848715D01*
X10276586Y842771D01*
X10274350Y840587D01*
X10271556Y839165D01*
X10268458Y838708D01*
X9985248Y838708D01*
X9982758Y839012D01*
X9980371Y839927D01*
X9974326Y843229D01*
X9964115Y847090D01*
X9953396Y849376D01*
X9942118Y850188D01*
X9742830Y850188D01*
X9731552Y849376D01*
X9720884Y847090D01*
X9710623Y843229D01*
X9704578Y839927D01*
X9702241Y839012D01*
X9699752Y838708D01*
X9611868Y838708D01*
X9607956Y839469D01*
X9604705Y841705D01*
X9602470Y844956D01*
X9601708Y848868D01*
X9601708Y910640D01*
X9602470Y914501D01*
X9604705Y917803D01*
X9607956Y919987D01*
X9611868Y920800D01*
X9624618Y920800D01*
X9635896Y921562D01*
X9646615Y923899D01*
X9656876Y927760D01*
X9666478Y932992D01*
X9675215Y939546D01*
X9682937Y947267D01*
X9689490Y956056D01*
X9694773Y965657D01*
X9698583Y975868D01*
X9700920Y986586D01*
X9701733Y997864D01*
X9701733Y1147114D01*
X9700920Y1158392D01*
X9698583Y1169111D01*
X9694773Y1179322D01*
X9689490Y1188923D01*
X9682937Y1197711D01*
X9675215Y1205433D01*
X9666478Y1211986D01*
X9656876Y1217218D01*
X9646615Y1221079D01*
X9635896Y1223365D01*
X9624618Y1224178D01*
X9425381Y1224178D01*
X9414103Y1223365D01*
X9403384Y1221079D01*
X9393123Y1217218D01*
X9383522Y1211986D01*
X9374784Y1205433D01*
X9367062Y1197711D01*
X9360509Y1188923D01*
X9355226Y1179322D01*
X9351416Y1169111D01*
X9349079Y1158392D01*
X9348317Y1147114D01*
X9348317Y1070000D01*
X9347860Y1067003D01*
X9346488Y1064260D01*
X9342729Y1058773D01*
X9339326Y1052982D01*
X9335160Y1045057D01*
X9332366Y1038860D01*
X9329166Y1030528D01*
X9327083Y1024077D01*
X9324797Y1015390D01*
X9323476Y1008786D01*
X9322155Y999896D01*
X9321596Y993140D01*
X9321292Y984097D01*
X9321292Y848868D01*
X9320530Y844956D01*
X9318294Y841705D01*
X9315043Y839469D01*
X9311132Y838708D01*
X7549489Y838708D01*
X7545933Y839368D01*
X7542784Y841197D01*
X7128662Y1203604D01*
X7126122Y1207058D01*
X7125208Y1211224D01*
X7125208Y1552905D01*
X7126071Y1556969D01*
X7128459Y1560322D01*
X7131964Y1562455D01*
X7136079Y1563014D01*
X7139381Y1562811D01*
X7338618Y1562811D01*
X7349896Y1563573D01*
X7360615Y1565910D01*
X7370876Y1569770D01*
X7377480Y1573377D01*
X7379868Y1574292D01*
X7382357Y1574596D01*
X7985709Y1576019D01*
X7988249Y1575663D01*
X7990586Y1574749D01*
X7996123Y1571752D01*
X8006384Y1567891D01*
X8017103Y1565554D01*
X8028381Y1564792D01*
X8227618Y1564792D01*
X8238896Y1565554D01*
X8249615Y1567891D01*
X8259876Y1571752D01*
X8265464Y1574800D01*
X8267852Y1575714D01*
X8270341Y1576019D01*
X9000744Y1574596D01*
X9003233Y1574241D01*
X9005570Y1573326D01*
X9012123Y1569770D01*
X9022384Y1565910D01*
X9033103Y1563573D01*
X9044381Y1562811D01*
X9243618Y1562811D01*
X9254896Y1563573D01*
X9265615Y1565910D01*
X9275876Y1569770D01*
X9281922Y1573072D01*
X9284258Y1573987D01*
X9286748Y1574292D01*
X10144252Y1574292D01*
X10146741Y1573987D01*
X10149078Y1573072D01*
X10155123Y1569770D01*
X10165384Y1565910D01*
X10176103Y1563573D01*
X10187381Y1562811D01*
X10386618Y1562811D01*
X10397896Y1563573D01*
X10408615Y1565910D01*
X10418876Y1569770D01*
X10428478Y1575003D01*
X10437215Y1581556D01*
X10444937Y1589278D01*
X10451490Y1598066D01*
X10456773Y1607667D01*
X10460583Y1617878D01*
X10462920Y1628597D01*
X10463733Y1639874D01*
X10463733Y1789125D01*
X10462920Y1800402D01*
X10460583Y1811121D01*
X10456773Y1821332D01*
X10451490Y1830933D01*
X10449661Y1833422D01*
X10447883Y1837334D01*
X10447883Y1841652D01*
X10449661Y1845564D01*
X10451490Y1848053D01*
X10456773Y1857654D01*
X10460583Y1867865D01*
X10462920Y1878584D01*
X10463733Y1889861D01*
X10463733Y2039112D01*
X10462920Y2050389D01*
X10460583Y2061108D01*
X10456773Y2071319D01*
X10451490Y2080920D01*
X10444937Y2089708D01*
X10437215Y2097430D01*
X10428478Y2103983D01*
X10419791Y2108708D01*
X10416997Y2110994D01*
X10415168Y2114092D01*
X10414508Y2117648D01*
X10414508Y2149297D01*
X10415422Y2153564D01*
X10418064Y2157069D01*
X10421924Y2159101D01*
X10426293Y2159355D01*
X10430357Y2157730D01*
X10433354Y2154580D01*
X10436098Y2150059D01*
X10445597Y2137968D01*
X10456468Y2127097D01*
X10468559Y2117598D01*
X10481767Y2109622D01*
X10495788Y2103272D01*
X10510469Y2098700D01*
X10525607Y2095957D01*
X10541304Y2094992D01*
X10720832Y2094992D01*
X10724743Y2094230D01*
X10727994Y2091994D01*
X10730230Y2088743D01*
X10730992Y2084832D01*
X10730992Y952753D01*
X10731652Y939393D01*
X10734192Y924204D01*
X10738459Y909421D01*
X10744555Y895248D01*
X10775188Y834034D01*
X10776254Y830021D01*
X10775594Y825957D01*
X10773410Y820115D01*
X10771124Y809396D01*
X10770311Y798118D01*
X10770311Y598881D01*
X10771124Y587603D01*
X10773410Y576884D01*
X10777270Y566623D01*
X10782503Y557022D01*
X10789056Y548284D01*
X10796778Y540562D01*
X10805566Y534009D01*
X10815167Y528726D01*
X10825378Y524916D01*
X10836097Y522579D01*
X10847374Y521766D01*
X10996625Y521766D01*
X11007902Y522579D01*
X11018621Y524916D01*
X11028832Y528726D01*
X11038433Y534009D01*
X11042904Y537311D01*
X11046815Y539140D01*
X11051184Y539140D01*
X11055096Y537311D01*
X11059566Y534009D01*
X11069167Y528726D01*
X11079378Y524916D01*
X11090097Y522579D01*
X11101374Y521766D01*
X11250625Y521766D01*
X11261902Y522579D01*
X11272621Y524916D01*
X11276076Y526237D01*
X11279936Y526846D01*
X11283696Y525983D01*
X11286896Y523798D01*
X11289030Y520547D01*
X11289792Y516686D01*
X11289792Y434898D01*
X11288826Y430580D01*
X11286083Y427024D01*
X11282121Y425043D01*
X10905947Y331012D01*
X10903508Y330708D01*
G37*

%LPD*%
G36*
X2476500Y9080500D02*
G01*
X2476500Y8572500D01*
X2857500Y8572500D01*
X2857500Y9080500D01*
G37*
G36*
X698500Y9080500D02*
G01*
X698500Y8572500D01*
X1079500Y8572500D01*
X1079500Y9080500D01*
G37*
D10*
X5334000Y3302000D02*
G01*
X7429500Y3302000D01*
D11*
X10668000Y1107694D02*
G01*
X10668000Y698500D01*
X8509000Y945387D02*
G01*
X8509000Y1333500D01*
X9017000Y1333500D01*
X9779000Y1361439D01*
X9461500Y698500D02*
G01*
X9461500Y984250D01*
X9525000Y1072387D01*
X9525000Y1072387D01*
D10*
X9810750Y2102612D02*
G01*
X10287000Y2095245D01*
X10287000Y1964436D01*
D11*
X5525770Y9220708D02*
G01*
X6729729Y9220708D01*
X716025Y806450D02*
G01*
X254000Y1143000D01*
X254000Y1714500D01*
X833561Y2414003D01*
X889000Y2857500D01*
X3048025Y4127500D02*
G01*
X3053994Y4762500D01*
X10287000Y1714500D02*
G01*
X9144000Y1714500D01*
X8128000Y1716531D01*
D10*
X9525000Y2102612D02*
G01*
X9144000Y2105660D01*
X9144000Y1966468D01*
D11*
X10636250Y1968500D02*
G01*
X10668000Y1107694D01*
X9779000Y1333500D01*
X10668000Y1107615D02*
G01*
X10668000Y698500D01*
D10*
X4318000Y8191500D02*
G01*
X3771138Y8191500D01*
X1016000Y8191500D01*
X1016000Y8445500D01*
X989075Y8716518D01*
X7175500Y2921000D02*
G01*
X8585708Y2932429D01*
X9271000Y2921000D01*
X9271000Y2476500D01*
X7429500Y3302000D02*
G01*
X8243061Y3302000D01*
X8953500Y3302000D01*
X9056370Y3426460D01*
X9525000Y3429000D01*
X9525000Y2921000D01*
X9525000Y2667000D01*
X9525000Y2476500D01*
X7620000Y3492500D02*
G01*
X8115808Y3492500D01*
X8826500Y3492500D01*
X8953500Y3619500D01*
X9715500Y3619500D01*
X9715500Y3238500D01*
X9715500Y2667000D01*
X9779000Y2476500D01*
X4064000Y3302000D02*
G01*
X5334000Y3302000D01*
X7556500Y3492500D02*
G01*
X5270500Y3492500D01*
D11*
X4576063Y7556500D02*
G01*
X4064000Y7556500D01*
X4000500Y6985000D01*
X4857750Y5746750D02*
G01*
X4762500Y5715000D01*
X4064000Y5715000D01*
X4064000Y5270500D01*
X6729729Y9220708D02*
G01*
X6699250Y8382000D01*
X7493000Y8382000D01*
X7493000Y8699500D01*
X7493000Y9207500D02*
G01*
X6729729Y9220708D01*
X9652000Y9207500D01*
X9652000Y8699500D01*
X8890000Y8572500D02*
G01*
X8509000Y8572500D01*
X8509000Y8953500D01*
X7239000Y8953500D01*
X3746500Y6985000D02*
G01*
X3810000Y6794500D01*
X3429000Y8001000D02*
G01*
X3429000Y7937500D01*
X3429000Y7239000D01*
X3619500Y7239000D01*
X3746500Y6985000D01*
X7239000Y1714500D02*
G01*
X6985000Y1714500D01*
X6985000Y1143000D01*
X7493000Y698500D01*
X9842500Y698500D01*
X10287000Y1464563D02*
G01*
X10668000Y1456436D01*
X10636250Y1968500D01*
X10668000Y698500D02*
G01*
X10636250Y1968500D01*
D12*
X4318000Y4127500D02*
G01*
X4318000Y3524250D01*
X2794000Y3524250D01*
X2794000Y4127500D01*
D10*
X4545075Y8716518D02*
G01*
X4344924Y8716518D01*
X4344924Y8966454D02*
G01*
X4545075Y8966454D01*
D11*
X5525770Y9220708D02*
G01*
X5102097Y9237471D01*
X5334000Y5397500D02*
G01*
X5334000Y6032500D01*
X6731000Y7554490D02*
G01*
X5715000Y7556500D01*
X5734311Y6032500D01*
X4000500Y6350000D02*
G01*
X5080000Y6350000D01*
X5334000Y6096000D01*
X5334000Y4762500D01*
X5334000Y6032500D02*
G01*
X6858000Y6032500D01*
X5715000Y4758436D02*
G01*
X5334000Y4762500D01*
X5334000Y5397500D01*
D10*
X11583924Y8881363D02*
G01*
X11784075Y8881363D01*
X5715000Y4258561D02*
G01*
X5842000Y4318000D01*
X9017000Y2730500D02*
G01*
X8763000Y2730500D01*
X8763000Y2476500D01*
X8128000Y1966468D02*
G01*
X8509000Y1975612D01*
X8509000Y1975612D02*
G01*
X8509000Y2222500D01*
X8509000Y2476500D01*
X9144000Y1966468D02*
G01*
X9144000Y2222500D01*
X9017000Y2476500D01*
X10287000Y1964436D02*
G01*
X10287000Y2476500D01*
D11*
X11271250Y2032000D02*
G01*
X11303000Y2476500D01*
D10*
X11557000Y2095500D02*
G01*
X11557000Y2476500D01*
X11557000Y2476500D01*
D11*
X9461500Y698500D02*
G01*
X10033000Y698500D01*
X10414000Y698500D01*
X9461500Y444500D02*
G01*
X10668000Y444500D01*
X10668000Y698500D01*
X8916924Y676402D02*
G01*
X9461500Y698500D01*
X8916924Y422402D02*
G01*
X9461500Y444500D01*
X6616954Y422402D02*
G01*
X6096000Y444500D01*
X6007100Y182626D01*
X6616954Y676402D02*
G01*
X6477000Y698500D01*
X6096000Y698500D01*
X6096000Y1714500D01*
X6007100Y1882394D01*
X6007100Y1882394D02*
G01*
X5461000Y2095500D01*
X5461000Y2349500D01*
X3873500Y3778250D02*
G01*
X4064000Y3873500D01*
X4064000Y4127500D01*
X2794000Y3746500D02*
G01*
X2286000Y3746500D01*
X2286000Y2476500D01*
X2794000Y1968500D01*
X2794000Y571500D01*
X1270000Y1966468D02*
G01*
X1651000Y1968500D01*
X2007108Y1882394D01*
X1315974Y806450D02*
G01*
X1270000Y1716531D01*
X1040891Y336550D02*
G01*
X2007108Y182626D01*
X1040891Y336550D02*
G01*
X716025Y806450D01*
X3302025Y4127500D02*
G01*
X3304006Y4762500D01*
X3556025Y4127500D02*
G01*
X3553993Y4762500D01*
X3810025Y4127500D02*
G01*
X3804005Y4762500D01*
D10*
X5715000Y4008376D02*
G01*
X5905500Y4127500D01*
D11*
X4064000Y4127500D02*
G01*
X4064000Y5715000D01*
X3746500Y5715000D01*
X3746500Y5969000D01*
X7493000Y5778500D02*
G01*
X7493000Y6032500D01*
X5651500Y5746750D02*
G01*
X5715000Y5778500D01*
X5715000Y5008626D01*
X4000500Y5969000D02*
G01*
X4000500Y6350000D01*
X3810000Y2857500D02*
G01*
X3810000Y3111500D01*
X3302025Y2857500D02*
G01*
X3556025Y2857500D01*
X3048025Y2857500D02*
G01*
X3302025Y2857500D01*
X2794025Y2857500D02*
G01*
X3048025Y2857500D01*
X3556025Y2857500D02*
G01*
X3810025Y2857500D01*
D10*
X5397500Y2921000D02*
G01*
X7175500Y2921000D01*
D11*
X11303000Y2476500D02*
G01*
X11303000Y3619500D01*
X10920984Y3619500D01*
X11303000Y3619500D02*
G01*
X10920984Y3619500D01*
D10*
X10795000Y2476500D02*
G01*
X10668000Y2857500D01*
X10668000Y3619500D01*
X10161015Y3619500D01*
X8001000Y4762500D02*
G01*
X9144000Y4762500D01*
X9271000Y5016500D01*
X8064500Y4572000D02*
G01*
X9271000Y4572000D01*
X9525000Y5016500D01*
X8128000Y4381500D02*
G01*
X9398000Y4381500D01*
X9588500Y4762500D01*
X10414000Y4762500D01*
X10541000Y5016500D01*
X5905500Y4127500D02*
G01*
X7493000Y4127500D01*
X8064500Y4572000D01*
X8001000Y5016500D02*
G01*
X7366000Y4508500D01*
X5715000Y4508500D01*
X10287000Y5016500D02*
G01*
X10223500Y5334000D01*
X9779000Y5016500D02*
G01*
X9652000Y5270500D01*
X9271000Y5270500D01*
X9271000Y5524500D01*
X8255000Y5016500D02*
G01*
X8128000Y5270500D01*
X8128000Y5270500D02*
G01*
X7747000Y5397500D01*
X7747000Y6540500D01*
X7493000Y6540500D01*
X7747000Y6794500D02*
G01*
X7493000Y6794500D01*
D11*
X6858000Y5778500D02*
G01*
X5651500Y5746750D01*
D10*
X6731000Y7054595D02*
G01*
X6096000Y7048500D01*
X6032500Y7302500D01*
X6731000Y7304531D02*
G01*
X6350000Y7302500D01*
D11*
X6731000Y7804404D02*
G01*
X5461000Y7810500D01*
X5075930Y7556500D01*
X5461000Y6413500D02*
G01*
X5453385Y7807957D01*
X7493000Y7810500D02*
G01*
X6731000Y7804503D01*
X6731000Y7554490D02*
G01*
X7493000Y7556500D01*
D10*
X7493000Y7302500D02*
G01*
X6731000Y7304509D01*
X6731000Y7054496D02*
G01*
X7493000Y7048500D01*
X6858000Y6540500D02*
G01*
X7493000Y6794500D01*
X6858000Y6286500D02*
G01*
X7493000Y6540500D01*
D11*
X6858000Y6032500D02*
G01*
X7493000Y6286500D01*
X6858000Y5778500D02*
G01*
X7493000Y6032500D01*
X2010021Y8669487D02*
G01*
X2010021Y9237482D01*
X2317031Y8716477D02*
G01*
X2010021Y8669487D01*
D10*
X2767012Y8716479D02*
G01*
X2567012Y8716479D01*
X2536949Y8191500D02*
G01*
X2540000Y8572500D01*
X2566926Y8716515D01*
X2567012Y8716479D02*
G01*
X2567012Y8966492D01*
X2567012Y8966492D02*
G01*
X2767012Y8966492D01*
X2767012Y8966492D02*
G01*
X2767012Y8716479D01*
D11*
X3017029Y8966489D02*
G01*
X3017029Y8716477D01*
X3324014Y8669487D02*
G01*
X3788026Y8669487D01*
X3324014Y9237482D02*
G01*
X3324014Y8669487D01*
X3788023Y8669487D02*
G01*
X3788023Y9237482D01*
X3788023Y9237469D02*
G01*
X3324026Y9237469D01*
X4095036Y8716477D02*
G01*
X3788026Y8669487D01*
X4095036Y8716477D02*
G01*
X4095036Y8966489D01*
D10*
X4344924Y8716518D02*
G01*
X4344924Y8966454D01*
X4545075Y8966454D02*
G01*
X4545075Y8716518D01*
D11*
X4795034Y8966489D02*
G01*
X4795034Y8716477D01*
X5102097Y8669528D02*
G01*
X5102097Y9237471D01*
X7239000Y8953500D02*
G01*
X7239000Y8699500D01*
X6002781Y8949689D02*
G01*
X5971031Y9188958D01*
D10*
X6032500Y8064500D02*
G01*
X6223000Y8572500D01*
X6252718Y8749792D01*
X8509000Y5016500D02*
G01*
X8318500Y5397500D01*
X7937500Y5524500D01*
X7937500Y6540500D01*
X8001000Y6731000D01*
X8001000Y7556500D01*
X8001000Y8064500D01*
X7747000Y8699500D01*
D11*
X2010023Y9237469D02*
G01*
X1546026Y9237469D01*
D10*
X3238500Y6985000D02*
G01*
X3218258Y8191500D01*
D11*
X2010023Y8669479D02*
G01*
X1546026Y8669479D01*
X2317031Y8966489D02*
G01*
X2312779Y9237469D01*
X2317031Y8716477D02*
G01*
X2317031Y8966489D01*
X1546026Y9237469D02*
G01*
X1546026Y8669479D01*
X1239032Y8716479D02*
G01*
X1239032Y8966492D01*
X539031Y8716479D02*
G01*
X232023Y8669487D01*
X539031Y8716479D02*
G01*
X539031Y8966492D01*
D10*
X789012Y8966492D02*
G01*
X789012Y8716479D01*
X989012Y8716479D02*
G01*
X989012Y8966492D01*
X789012Y8966492D02*
G01*
X989012Y8966492D01*
X789012Y8716479D02*
G01*
X989073Y8716515D01*
D11*
X539028Y8966489D02*
G01*
X534779Y9237469D01*
X231902Y8669528D02*
G01*
X231902Y9237471D01*
X11303000Y4381500D02*
G01*
X11303000Y5016500D01*
X11557000Y5016500D02*
G01*
X11557000Y5651500D01*
X11303000Y5016500D02*
G01*
X11303000Y5651500D01*
D10*
X8763000Y5016500D02*
G01*
X8445500Y5556250D01*
X8128000Y5651500D01*
X8128000Y6477000D01*
X8191500Y6667500D01*
X8191500Y8096250D01*
X7969250Y8604250D01*
X8013700Y8699500D01*
D11*
X9398000Y8699500D02*
G01*
X9271000Y8572500D01*
X8890000Y8572500D01*
X9398000Y8699500D02*
G01*
X9398000Y8953500D01*
D10*
X10223500Y7937500D02*
G01*
X10128250Y8509000D01*
X10172700Y8699500D01*
X10033000Y7937500D02*
G01*
X9906000Y8699500D01*
X10223500Y5334000D02*
G01*
X10223500Y7937500D01*
X10033000Y5016500D02*
G01*
X10033000Y7937500D01*
D11*
X8890000Y8826500D02*
G01*
X8883650Y9207500D01*
D10*
X10033000Y2476500D02*
G01*
X9906000Y2730500D01*
X10033000Y2984500D01*
X10033000Y2984500D01*
X4191000Y3111500D02*
G01*
X4064000Y2857500D01*
X2540000Y2857500D02*
G01*
X2667000Y3111500D01*
X3556000Y3111500D01*
X3594608Y3365500D01*
X4064000Y3365500D01*
X5842000Y4318000D02*
G01*
X7429500Y4318000D01*
X8001000Y4762500D01*
D11*
X6007100Y182626D02*
G01*
X5715000Y571500D01*
X2286000Y571500D01*
X2007108Y182626D01*
X231902Y8669528D02*
G01*
X254000Y2349500D01*
X825500Y2349500D01*
X889000Y2857500D01*
X2007108Y1882394D02*
G01*
X2032000Y4191000D01*
X2413000Y4191000D01*
X2540000Y4127500D01*
X2018284Y2928620D02*
G01*
X1270000Y2921000D01*
X1154175Y2852420D01*
D10*
X12192000Y2730500D02*
G01*
X12192000Y8191500D01*
X11366500Y8579612D02*
G01*
X11620500Y8572500D01*
D11*
X7239000Y1714500D02*
G01*
X8128000Y1716531D01*
X9842500Y698500D02*
G01*
X8916924Y676402D01*
X8916924Y676402D01*
X6616954Y676402D02*
G01*
X6731000Y698500D01*
X7175500Y698500D01*
X7429500Y476250D01*
X8636000Y476250D01*
X8763000Y190500D01*
X10922000Y190500D01*
X11430000Y317500D01*
X11430000Y698500D01*
D10*
X10922000Y698500D02*
G01*
X10922000Y825500D01*
X10858500Y952500D01*
X10858500Y1968500D01*
X10858500Y2222500D01*
X10541000Y2222500D01*
X10541000Y2476500D01*
X11176000Y698500D02*
G01*
X11049000Y1079500D01*
X11049000Y1333500D01*
X11049000Y1968500D01*
X11049000Y2476500D01*
X11938000Y698500D02*
G01*
X12319000Y1143000D01*
X12319000Y2349500D01*
X12001500Y2540000D01*
X12001500Y3746500D01*
X10985500Y4254500D01*
X10985500Y4826000D01*
X11049000Y5016500D01*
X11684000Y698500D02*
G01*
X11747500Y825500D01*
X12128500Y1270000D01*
X12128500Y2222500D01*
X11811000Y2413000D01*
X11811000Y3619500D01*
X10795000Y4127500D01*
X10795000Y5016500D01*
X4508500Y5143500D02*
G01*
X4445000Y5080000D01*
X4445000Y4572000D01*
X4699000Y4572000D01*
X4699000Y3683000D01*
X5715000Y3683000D01*
X5969000Y3937000D01*
X7556500Y3937000D01*
X8128000Y4381500D01*
X5270500Y3492500D02*
G01*
X4508500Y3492500D01*
X4508500Y4381500D01*
X4254500Y4381500D01*
X4254500Y5524500D01*
X5143500Y5524500D01*
X5143500Y6032500D01*
X4635500Y6032500D01*
X4508500Y5969000D01*
X3810000Y5461000D02*
G01*
X3619500Y5524500D01*
X3302000Y5778500D01*
X3238500Y5969000D01*
D11*
X8572500Y6032500D02*
G01*
X8540750Y6127750D01*
X8540750Y6445250D01*
X8699500Y6667500D01*
X8699500Y6934200D01*
X8636000Y7048500D01*
X8382000Y7061200D01*
X8382000Y8064500D01*
X8255000Y8382000D01*
X8509000Y8572500D01*
X6002781Y8749792D02*
G01*
X5905500Y8509000D01*
X5778500Y8191500D01*
X5778500Y7810500D01*
X3746500Y6985000D02*
G01*
X3810000Y6731000D01*
X4699000Y6731000D01*
X5080000Y7366000D01*
X5075936Y7556500D01*
D10*
X4508500Y6985000D02*
G01*
X4572000Y6985000D01*
X4826000Y7366000D01*
X4826000Y7556500D01*
X12192000Y8191500D02*
G01*
X11874500Y8572500D01*
X11784075Y8881363D01*
D11*
X9398000Y9461500D02*
G01*
X12001500Y9461500D01*
X12034011Y8881363D01*
D10*
X6350000Y8064500D02*
G01*
X6477000Y8636000D01*
X6477000Y8953500D01*
X6252718Y8949689D01*
X4545022Y8716477D02*
G01*
X4540250Y8191500D01*
X4318000Y8191500D01*
D11*
X4795011Y8716518D02*
G01*
X4794250Y8001000D01*
X3429000Y8001000D01*
X4576063Y7556500D02*
G01*
X4635500Y7810500D01*
X5016500Y7810500D01*
X5102097Y8669528D01*
X4795011Y8966454D02*
G01*
X4794250Y9588500D01*
X3016250Y9588500D01*
X3017011Y8966454D01*
X3017011Y8966454D02*
G01*
X3016250Y9588500D01*
X1238250Y9588500D01*
X1239011Y8966454D01*
X11430000Y698500D02*
G01*
X11303000Y1079500D01*
X11303000Y1778000D01*
X11557000Y1841500D01*
D10*
X7239000Y1964436D02*
G01*
X7239000Y2222500D01*
X8255000Y2222500D01*
X8255000Y2476500D01*
X639063Y2857500D02*
G01*
X635000Y5207000D01*
X3683000Y5207000D01*
X3810000Y5143500D01*
D11*
X11333988Y8881363D02*
G01*
X11027003Y9152559D01*
X11366500Y7549489D02*
G01*
X11303000Y5651500D01*
X11026902Y9152636D02*
G01*
X11049000Y7556500D01*
X11366500Y7549387D01*
X10668000Y5651500D02*
G01*
X10668000Y9207500D01*
X11027003Y9152559D02*
G01*
X9652000Y9207500D01*
X7493000Y7556500D02*
G01*
X7747000Y7556500D01*
X7747000Y8064500D01*
X7493000Y8509000D01*
X7493000Y8699500D01*
D10*
X4318000Y2857500D02*
G01*
X4381500Y2921000D01*
X4699000Y2921000D01*
X4889500Y2794000D01*
X5000752Y2801873D01*
X5143500Y2794000D01*
X5397500Y2921000D01*
X9271000Y3175000D02*
G01*
X9080500Y3111500D01*
X5334000Y3111500D01*
X5143500Y3048000D01*
X5000752Y3052063D01*
X4889500Y3048000D01*
X4699000Y3111500D01*
X4191000Y3111500D01*
D11*
X5843981Y2413000D02*
G01*
X5461000Y2349500D01*
D10*
X9017000Y5016500D02*
G01*
X8890000Y5207000D01*
X8572500Y5715000D01*
X8318500Y5778500D01*
X8318500Y6477000D01*
X8445500Y6794500D01*
D11*
X7239000Y1714500D02*
G01*
X6985000Y1714500D01*
X6985000Y2667000D01*
X6141974Y2667000D01*
X5334000Y2667000D01*
X5175250Y2571750D01*
X5000752Y2551937D01*
X4826000Y2571750D01*
X4635500Y2698750D01*
X4445000Y2603500D01*
X3810000Y2603500D01*
X3810000Y2857500D01*
X1138936Y2857500D02*
G01*
X1143000Y4191000D01*
X1219200Y4648200D01*
D10*
X1587500Y7535494D02*
G01*
X1576600Y5207000D01*
X1521993Y3810000D02*
G01*
X1651000Y4254500D01*
X1701800Y4648200D01*
X1271981Y3810000D02*
G01*
X1141798Y3796903D01*
G36*
X4381500Y8953500D02*
G01*
X4508500Y8953500D01*
X4508500Y8763000D01*
X4381500Y8763000D01*
G37*
G36*
X2603500Y8953500D02*
G01*
X2730500Y8953500D01*
X2730500Y8763000D01*
X2603500Y8763000D01*
G37*
G36*
X762000Y8953500D02*
G01*
X952500Y8953500D01*
X952500Y8763000D01*
X762000Y8763000D01*
G37*
G36*
X4254500Y9080500D02*
G01*
X4635500Y9080500D01*
X4635500Y8572500D01*
X4254500Y8572500D01*
G37*
G36*
X2730500Y2952750D02*
G01*
X3905250Y2952750D01*
X3905250Y2762250D01*
X2730500Y2762250D01*
G37*
D13*
G01*
X1271981Y3810000D03*
G01*
X1521993Y3810000D03*
D14*
G01*
X2209800Y4648200D03*
D15*
G01*
X1701800Y4648200D03*
G01*
X1219200Y4648200D03*
D13*
G01*
X1841500Y7535494D03*
G01*
X1587500Y7535494D03*
G01*
X2033981Y2349500D03*
G01*
X2283993Y2349500D03*
G01*
X5843981Y2413000D03*
G01*
X6093993Y2413000D03*
D16*
G01*
X5000625Y2302002D03*
G01*
X5000625Y2551988D03*
G01*
X5000625Y2802001D03*
G01*
X5000625Y3052013D03*
G01*
X5000625Y3302000D03*
G01*
X9810750Y2102510D03*
G01*
X9810750Y1072489D03*
D13*
G01*
X11620500Y8572500D03*
G01*
X11874500Y8572500D03*
D17*
G01*
X11366500Y8579510D03*
D18*
G01*
X11366500Y7549489D03*
D16*
G01*
X9144000Y1464487D03*
G01*
X9144000Y1714500D03*
G01*
X9144000Y1964486D03*
D19*
G01*
X3771239Y8191500D03*
D20*
G01*
X4801260Y8191500D03*
D13*
G01*
X3238500Y6985000D03*
G01*
X3492500Y6985000D03*
G01*
X3746500Y6985000D03*
G01*
X4000500Y6985000D03*
G01*
X4254500Y6985000D03*
G01*
X4508500Y6985000D03*
G01*
X3238500Y5969000D03*
G01*
X3492500Y5969000D03*
G01*
X3746500Y5969000D03*
G01*
X4000500Y5969000D03*
G01*
X4254500Y5969000D03*
G01*
X4508500Y5969000D03*
D16*
G01*
X9461500Y698500D03*
G01*
X9461500Y444500D03*
G01*
X7493000Y7810500D03*
G01*
X7493000Y7556500D03*
G01*
X7493000Y7302500D03*
G01*
X7493000Y7048500D03*
G01*
X7493000Y6794500D03*
G01*
X7493000Y6540500D03*
G01*
X7493000Y6286500D03*
G01*
X7493000Y6032500D03*
G01*
X6858000Y5778500D03*
G01*
X6858000Y6032500D03*
G01*
X6858000Y6286500D03*
G01*
X6858000Y6540500D03*
D21*
G01*
X6252743Y8949740D03*
G01*
X6002756Y8949740D03*
G01*
X6002756Y8749741D03*
G01*
X6252743Y8749741D03*
D22*
G01*
X6729755Y9220733D03*
G01*
X5525744Y9220733D03*
D16*
G01*
X8890000Y8572500D03*
G01*
X8890000Y8826500D03*
G01*
X6617004Y676503D03*
G01*
X6617004Y422503D03*
G01*
X8917000Y676503D03*
G01*
X8917000Y422503D03*
G01*
X11557000Y2095500D03*
G01*
X11557000Y1841500D03*
D13*
G01*
X12034011Y8881440D03*
G01*
X11334013Y8881440D03*
G01*
X11783999Y8881440D03*
G01*
X11584000Y8881440D03*
D23*
G01*
X11027003Y9152559D03*
G01*
X12340996Y9152559D03*
D13*
G01*
X10414000Y8699500D03*
G01*
X10172700Y8699500D03*
G01*
X9906000Y8699500D03*
G01*
X9652000Y8699500D03*
G01*
X9398000Y8699500D03*
G01*
X8255000Y8699500D03*
G01*
X8013700Y8699500D03*
G01*
X7747000Y8699500D03*
G01*
X7493000Y8699500D03*
G01*
X7239000Y8699500D03*
D16*
G01*
X1270000Y1716481D03*
G01*
X1270000Y1966493D03*
D13*
G01*
X3804005Y4762500D03*
G01*
X3553993Y4762500D03*
G01*
X3304006Y4762500D03*
G01*
X3053994Y4762500D03*
D16*
G01*
X7239000Y1464487D03*
G01*
X7239000Y1714500D03*
G01*
X7239000Y1964486D03*
G01*
X8128000Y1716481D03*
G01*
X8128000Y1966493D03*
G01*
X8509000Y1975510D03*
G01*
X8509000Y945489D03*
D13*
G01*
X5076012Y7556500D03*
G01*
X4826000Y7556500D03*
G01*
X4576013Y7556500D03*
D16*
G01*
X9525000Y2102510D03*
G01*
X9525000Y1072489D03*
G01*
X10287000Y1464487D03*
G01*
X10287000Y1714500D03*
G01*
X10287000Y1964486D03*
D13*
G01*
X1139012Y2857500D03*
G01*
X889000Y2857500D03*
G01*
X639013Y2857500D03*
D24*
G01*
X1315999Y806500D03*
D25*
G01*
X1040993Y336499D03*
G01*
X716000Y806500D03*
D13*
G01*
X11938000Y698500D03*
G01*
X11684000Y698500D03*
G01*
X11430000Y698500D03*
G01*
X10414000Y698500D03*
G01*
X10668000Y698500D03*
G01*
X10922000Y698500D03*
G01*
X11176000Y698500D03*
D16*
G01*
X5715000Y4008501D03*
G01*
X5715000Y4258487D03*
G01*
X5715000Y4508500D03*
G01*
X5715000Y4758512D03*
G01*
X5715000Y5008498D03*
G01*
X6731000Y7804505D03*
G01*
X6731000Y7554493D03*
G01*
X6731000Y7304506D03*
G01*
X6731000Y7054494D03*
D13*
G01*
X1239037Y8716467D03*
G01*
X989025Y8716467D03*
G01*
X789025Y8716467D03*
G01*
X539038Y8716467D03*
G01*
X1239037Y8966479D03*
G01*
X989025Y8966479D03*
G01*
X789025Y8966479D03*
G01*
X539038Y8966479D03*
D25*
G01*
X232029Y9237471D03*
G01*
X232029Y8669477D03*
G01*
X1546021Y8669477D03*
G01*
X1546021Y9237471D03*
D13*
G01*
X3017037Y8716467D03*
G01*
X2767025Y8716467D03*
G01*
X2567025Y8716467D03*
G01*
X2317038Y8716467D03*
G01*
X3017037Y8966479D03*
G01*
X2767025Y8966479D03*
G01*
X2567025Y8966479D03*
G01*
X2317038Y8966479D03*
D25*
G01*
X2010029Y9237471D03*
G01*
X2010029Y8669477D03*
G01*
X3324021Y8669477D03*
G01*
X3324021Y9237471D03*
D13*
G01*
X4795037Y8716467D03*
G01*
X4545025Y8716467D03*
G01*
X4345025Y8716467D03*
G01*
X4095038Y8716467D03*
G01*
X4795037Y8966479D03*
G01*
X4545025Y8966479D03*
G01*
X4345025Y8966479D03*
G01*
X4095038Y8966479D03*
D25*
G01*
X3788029Y9237471D03*
G01*
X3788029Y8669477D03*
G01*
X5102021Y8669477D03*
G01*
X5102021Y9237471D03*
D13*
G01*
X11557000Y5651500D03*
G01*
X11303000Y5651500D03*
D18*
G01*
X10921009Y3619500D03*
D17*
G01*
X10161015Y3619500D03*
D13*
G01*
X8001000Y5016500D03*
G01*
X8255000Y5016500D03*
G01*
X8509000Y5016500D03*
G01*
X8763000Y5016500D03*
G01*
X9017000Y5016500D03*
G01*
X9271000Y5016500D03*
G01*
X9525000Y5016500D03*
G01*
X9779000Y5016500D03*
G01*
X10033000Y5016500D03*
G01*
X10287000Y5016500D03*
G01*
X10541000Y5016500D03*
G01*
X10795000Y5016500D03*
G01*
X11049000Y5016500D03*
G01*
X11303000Y5016500D03*
G01*
X11557000Y5016500D03*
G01*
X8001000Y2476500D03*
G01*
X8255000Y2476500D03*
G01*
X8509000Y2476500D03*
G01*
X8763000Y2476500D03*
G01*
X9017000Y2476500D03*
G01*
X9271000Y2476500D03*
G01*
X9525000Y2476500D03*
G01*
X9779000Y2476500D03*
G01*
X10033000Y2476500D03*
G01*
X10287000Y2476500D03*
G01*
X10541000Y2476500D03*
G01*
X10795000Y2476500D03*
G01*
X11049000Y2476500D03*
G01*
X11303000Y2476500D03*
G01*
X11557000Y2476500D03*
G01*
X3048025Y4127500D03*
G01*
X2794025Y4127500D03*
G01*
X2540025Y4127500D03*
G01*
X3302025Y4127500D03*
G01*
X3556025Y4127500D03*
G01*
X3810025Y4127500D03*
G01*
X4064025Y4127500D03*
G01*
X4318025Y4127500D03*
G01*
X4318025Y2857500D03*
G01*
X4064025Y2857500D03*
G01*
X3810025Y2857500D03*
G01*
X3556025Y2857500D03*
G01*
X3302025Y2857500D03*
G01*
X3048025Y2857500D03*
G01*
X2794025Y2857500D03*
G01*
X2540025Y2857500D03*
D18*
G01*
X11303000Y4381500D03*
D13*
G01*
X11271250Y2032000D03*
G01*
X10636250Y1968500D03*
D17*
G01*
X10033000Y2984500D03*
G01*
X9271000Y3175000D03*
G01*
X7747000Y6794500D03*
G01*
X8445500Y6794500D03*
D13*
G01*
X3810000Y3111500D03*
D17*
G01*
X3873500Y3778250D03*
G01*
X5651500Y5746750D03*
G01*
X4857750Y5746750D03*
D18*
G01*
X5461000Y2349500D03*
D17*
G01*
X5461000Y6413500D03*
G01*
X4508500Y5143500D03*
G01*
X3810000Y5143500D03*
D16*
G01*
X9017000Y2730500D03*
D13*
G01*
X12192000Y2730500D03*
D18*
G01*
X9271000Y5524500D03*
D17*
G01*
X3810000Y5461000D03*
G01*
X8572500Y6032500D03*
G01*
X7493000Y5778500D03*
G01*
X9398000Y9461500D03*
G01*
X9398000Y8953500D03*
G01*
X6350000Y7302500D03*
G01*
X6032500Y7302500D03*
G01*
X6032500Y8064500D03*
G01*
X6350000Y8064500D03*
D18*
G01*
X11303000Y3619500D03*
D26*
G01*
X2007006Y1882495D03*
G01*
X2007006Y182524D03*
G01*
X6006998Y182498D03*
G01*
X6006998Y1882495D03*
D16*
G01*
X9842500Y698500D03*
M02*
