G04 Layer: TopLayer*
G04 EasyEDA v6.5.47, 2024-11-16 13:31:00*
G04 4b74037932bb4b1ca174142373b6d15f,245894e16db242c49054a459ccc28e09,10*
G04 Gerber Generator version 0.2*
G04 Scale: 100 percent, Rotated: No, Reflected: No *
G04 Dimensions in millimeters *
G04 leading zeros omitted , absolute positions ,4 integer and 5 decimal *
%FSLAX45Y45*%
%MOMM*%

%ADD10R,1.5000X2.0000*%
%ADD11C,3.0000*%
%ADD12R,3.0000X3.0000*%
%ADD13R,2.0000X1.5000*%
%ADD14R,2.0000X2.0000*%
%ADD15C,2.0000*%
%ADD16R,2.0000X1.0000*%
%ADD17R,1.0000X2.0000*%
%ADD18C,1.5000*%
%ADD19C,3.6000*%
%ADD20C,3.2000*%
%ADD21O,3.4999930000000004X3.9999919999999998*%
%ADD22C,3.5000*%
%ADD23R,2.5400X2.5400*%
%ADD24R,0.0154X2.5400*%

%LPD*%
D10*
G01*
X1271981Y3810000D03*
G01*
X1521993Y3810000D03*
D11*
G01*
X2209800Y4648200D03*
D12*
G01*
X1701800Y4648200D03*
G01*
X1219200Y4648200D03*
D10*
G01*
X1841500Y7535494D03*
G01*
X1587500Y7535494D03*
G01*
X2033981Y2349500D03*
G01*
X2283993Y2349500D03*
G01*
X5843981Y2413000D03*
G01*
X6093993Y2413000D03*
D13*
G01*
X5000625Y2302002D03*
G01*
X5000625Y2551988D03*
G01*
X5000625Y2802001D03*
G01*
X5000625Y3052013D03*
G01*
X5000625Y3302000D03*
G01*
X9810750Y2102510D03*
G01*
X9810750Y1072489D03*
D10*
G01*
X11620500Y8572500D03*
G01*
X11874500Y8572500D03*
D14*
G01*
X11366500Y8579510D03*
D15*
G01*
X11366500Y7549489D03*
D13*
G01*
X9144000Y1464487D03*
G01*
X9144000Y1714500D03*
G01*
X9144000Y1964486D03*
D16*
G01*
X3771239Y8191500D03*
D17*
G01*
X4801260Y8191500D03*
D10*
G01*
X3238500Y6985000D03*
G01*
X3492500Y6985000D03*
G01*
X3746500Y6985000D03*
G01*
X4000500Y6985000D03*
G01*
X4254500Y6985000D03*
G01*
X4508500Y6985000D03*
G01*
X3238500Y5969000D03*
G01*
X3492500Y5969000D03*
G01*
X3746500Y5969000D03*
G01*
X4000500Y5969000D03*
G01*
X4254500Y5969000D03*
G01*
X4508500Y5969000D03*
D13*
G01*
X9461500Y698500D03*
G01*
X9461500Y444500D03*
G01*
X7493000Y7810500D03*
G01*
X7493000Y7556500D03*
G01*
X7493000Y7302500D03*
G01*
X7493000Y7048500D03*
G01*
X7493000Y6794500D03*
G01*
X7493000Y6540500D03*
G01*
X7493000Y6286500D03*
G01*
X7493000Y6032500D03*
G01*
X6858000Y5778500D03*
G01*
X6858000Y6032500D03*
G01*
X6858000Y6286500D03*
G01*
X6858000Y6540500D03*
D18*
G01*
X6252743Y8949740D03*
G01*
X6002756Y8949740D03*
G01*
X6002756Y8749741D03*
G01*
X6252743Y8749741D03*
D19*
G01*
X6729755Y9220733D03*
G01*
X5525744Y9220733D03*
D13*
G01*
X8890000Y8572500D03*
G01*
X8890000Y8826500D03*
G01*
X6617004Y676503D03*
G01*
X6617004Y422503D03*
G01*
X8917000Y676503D03*
G01*
X8917000Y422503D03*
G01*
X11557000Y2095500D03*
G01*
X11557000Y1841500D03*
D10*
G01*
X12034011Y8881440D03*
G01*
X11334013Y8881440D03*
G01*
X11783999Y8881440D03*
G01*
X11584000Y8881440D03*
D20*
G01*
X11027003Y9152559D03*
G01*
X12340996Y9152559D03*
D10*
G01*
X10414000Y8699500D03*
G01*
X10172700Y8699500D03*
G01*
X9906000Y8699500D03*
G01*
X9652000Y8699500D03*
G01*
X9398000Y8699500D03*
G01*
X8255000Y8699500D03*
G01*
X8013700Y8699500D03*
G01*
X7747000Y8699500D03*
G01*
X7493000Y8699500D03*
G01*
X7239000Y8699500D03*
D13*
G01*
X1270000Y1716481D03*
G01*
X1270000Y1966493D03*
D10*
G01*
X3804005Y4762500D03*
G01*
X3553993Y4762500D03*
G01*
X3304006Y4762500D03*
G01*
X3053994Y4762500D03*
D13*
G01*
X7239000Y1464487D03*
G01*
X7239000Y1714500D03*
G01*
X7239000Y1964486D03*
G01*
X8128000Y1716481D03*
G01*
X8128000Y1966493D03*
G01*
X8509000Y1975510D03*
G01*
X8509000Y945489D03*
D10*
G01*
X5076012Y7556500D03*
G01*
X4826000Y7556500D03*
G01*
X4576013Y7556500D03*
D13*
G01*
X9525000Y2102510D03*
G01*
X9525000Y1072489D03*
G01*
X10287000Y1464487D03*
G01*
X10287000Y1714500D03*
G01*
X10287000Y1964486D03*
D10*
G01*
X1139012Y2857500D03*
G01*
X889000Y2857500D03*
G01*
X639013Y2857500D03*
D21*
G01*
X1315999Y806500D03*
D22*
G01*
X1040993Y336499D03*
G01*
X716000Y806500D03*
D10*
G01*
X11938000Y698500D03*
G01*
X11684000Y698500D03*
G01*
X11430000Y698500D03*
G01*
X10414000Y698500D03*
G01*
X10668000Y698500D03*
G01*
X10922000Y698500D03*
G01*
X11176000Y698500D03*
D13*
G01*
X5715000Y4008501D03*
G01*
X5715000Y4258487D03*
G01*
X5715000Y4508500D03*
G01*
X5715000Y4758512D03*
G01*
X5715000Y5008498D03*
G01*
X6731000Y7804505D03*
G01*
X6731000Y7554493D03*
G01*
X6731000Y7304506D03*
G01*
X6731000Y7054494D03*
D10*
G01*
X1239037Y8716467D03*
G01*
X989025Y8716467D03*
G01*
X789025Y8716467D03*
G01*
X539038Y8716467D03*
G01*
X1239037Y8966479D03*
G01*
X989025Y8966479D03*
G01*
X789025Y8966479D03*
G01*
X539038Y8966479D03*
D22*
G01*
X232029Y9237471D03*
G01*
X232029Y8669477D03*
G01*
X1546021Y8669477D03*
G01*
X1546021Y9237471D03*
D10*
G01*
X3017037Y8716467D03*
G01*
X2767025Y8716467D03*
G01*
X2567025Y8716467D03*
G01*
X2317038Y8716467D03*
G01*
X3017037Y8966479D03*
G01*
X2767025Y8966479D03*
G01*
X2567025Y8966479D03*
G01*
X2317038Y8966479D03*
D22*
G01*
X2010029Y9237471D03*
G01*
X2010029Y8669477D03*
G01*
X3324021Y8669477D03*
G01*
X3324021Y9237471D03*
D10*
G01*
X4795037Y8716467D03*
G01*
X4545025Y8716467D03*
G01*
X4345025Y8716467D03*
G01*
X4095038Y8716467D03*
G01*
X4795037Y8966479D03*
G01*
X4545025Y8966479D03*
G01*
X4345025Y8966479D03*
G01*
X4095038Y8966479D03*
D22*
G01*
X3788029Y9237471D03*
G01*
X3788029Y8669477D03*
G01*
X5102021Y8669477D03*
G01*
X5102021Y9237471D03*
D10*
G01*
X11557000Y5651500D03*
G01*
X11303000Y5651500D03*
D15*
G01*
X10921009Y3619500D03*
D14*
G01*
X10161015Y3619500D03*
D10*
G01*
X8001000Y5016500D03*
G01*
X8255000Y5016500D03*
G01*
X8509000Y5016500D03*
G01*
X8763000Y5016500D03*
G01*
X9017000Y5016500D03*
G01*
X9271000Y5016500D03*
G01*
X9525000Y5016500D03*
G01*
X9779000Y5016500D03*
G01*
X10033000Y5016500D03*
G01*
X10287000Y5016500D03*
G01*
X10541000Y5016500D03*
G01*
X10795000Y5016500D03*
G01*
X11049000Y5016500D03*
G01*
X11303000Y5016500D03*
G01*
X11557000Y5016500D03*
G01*
X8001000Y2476500D03*
G01*
X8255000Y2476500D03*
G01*
X8509000Y2476500D03*
G01*
X8763000Y2476500D03*
G01*
X9017000Y2476500D03*
G01*
X9271000Y2476500D03*
G01*
X9525000Y2476500D03*
G01*
X9779000Y2476500D03*
G01*
X10033000Y2476500D03*
G01*
X10287000Y2476500D03*
G01*
X10541000Y2476500D03*
G01*
X10795000Y2476500D03*
G01*
X11049000Y2476500D03*
G01*
X11303000Y2476500D03*
G01*
X11557000Y2476500D03*
G01*
X3048025Y4127500D03*
G01*
X2794025Y4127500D03*
G01*
X2540025Y4127500D03*
G01*
X3302025Y4127500D03*
G01*
X3556025Y4127500D03*
G01*
X3810025Y4127500D03*
G01*
X4064025Y4127500D03*
G01*
X4318025Y4127500D03*
G01*
X4318025Y2857500D03*
G01*
X4064025Y2857500D03*
G01*
X3810025Y2857500D03*
G01*
X3556025Y2857500D03*
G01*
X3302025Y2857500D03*
G01*
X3048025Y2857500D03*
G01*
X2794025Y2857500D03*
G01*
X2540025Y2857500D03*
D15*
G01*
X11303000Y4381500D03*
D10*
G01*
X11271250Y2032000D03*
G01*
X10636250Y1968500D03*
D14*
G01*
X10033000Y2984500D03*
G01*
X9271000Y3175000D03*
G01*
X7747000Y6794500D03*
G01*
X8445500Y6794500D03*
D10*
G01*
X3810000Y3111500D03*
D14*
G01*
X3873500Y3778250D03*
G01*
X5651500Y5746750D03*
G01*
X4857750Y5746750D03*
D15*
G01*
X5461000Y2349500D03*
D14*
G01*
X5461000Y6413500D03*
G01*
X4508500Y5143500D03*
G01*
X3810000Y5143500D03*
D13*
G01*
X9017000Y2730500D03*
D10*
G01*
X12192000Y2730500D03*
D15*
G01*
X9271000Y5524500D03*
D14*
G01*
X3810000Y5461000D03*
G01*
X8572500Y6032500D03*
G01*
X7493000Y5778500D03*
G01*
X9398000Y9461500D03*
G01*
X9398000Y8953500D03*
G01*
X6350000Y7302500D03*
G01*
X6032500Y7302500D03*
G01*
X6032500Y8064500D03*
G01*
X6350000Y8064500D03*
D15*
G01*
X11303000Y3619500D03*
D23*
G01*
X2007006Y1882495D03*
G01*
X2007006Y182524D03*
G01*
X6006998Y182498D03*
G01*
X6006998Y1882495D03*
D13*
G01*
X9842500Y698500D03*
M02*
